<svg width="69" height="68" viewBox="0 0 69 68" xmlns="http://www.w3.org/2000/svg" xmlns:xlink="http://www.w3.org/1999/xlink">
    <defs>
        <filter x="-22%" y="-20%" width="168%" height="168%" filterUnits="objectBoundingBox" id="rlikhbim3a">
            <feOffset dx="6" dy="7" in="SourceAlpha" result="shadowOffsetOuter1"/>
            <feGaussianBlur stdDeviation="4.5" in="shadowOffsetOuter1" result="shadowBlurOuter1"/>
            <feComposite in="shadowBlurOuter1" in2="SourceAlpha" operator="out" result="shadowBlurOuter1"/>
            <feColorMatrix values="0 0 0 0 0 0 0 0 0 0.254901961 0 0 0 0 0.403921569 0 0 0 0.459380463 0" in="shadowBlurOuter1"/>
        </filter>
        <rect id="ofbeac4zhb" x="0" y="0" width="50" height="50" rx="25"/>
        <path id="czm4kfirhc" d="M0 0h25.754v25.754H0z"/>
    </defs>
    <g fill="none" fill-rule="evenodd">
        <g transform="translate(3.5 2)">
            <use fill="#000" filter="url(#rlikhbim3a)" xlink:href="#ofbeac4zhb"/>
            <rect stroke="#FFF" stroke-width="2.083" stroke-linejoin="square" fill-opacity=".95" fill="#FFF" x="1.042" y="1.042" width="47.917" height="47.917" rx="23.958"/>
        </g>
        <g transform="translate(15.5 14)">
            <mask id="v04ewj8p5d" fill="#fff">
                <use xlink:href="#czm4kfirhc"/>
            </mask>
            <path d="M18.508 0H7.246C1.94 0 0 1.94 0 7.246v11.262c0 5.306 1.94 7.246 7.246 7.246h11.259c5.305 0 7.25-1.94 7.25-7.246V7.246C25.754 1.94 23.813 0 18.507 0" fill="#C8102E" mask="url(#v04ewj8p5d)"/>
        </g>
        <path d="M26.736 28.936h1.033l-.518-1.204-.515 1.204zm-.254.608-.307.7h-.697l1.483-3.364h.603l1.477 3.365h-.716l-.302-.701h-1.541zm11.224.698h.674V26.88h-.674v3.363zm-2.683-1.445h1.242v-.612h-1.242v-.69h1.803v-.614H34.35v3.363h2.543v-.613h-1.87v-.834zm-2.679.398-.764-2.316h-.558l-.764 2.316-.744-2.314h-.727l1.173 3.365h.566l.765-2.21.766 2.21h.57l1.171-3.365h-.708l-.746 2.314zm-7.896-.388c0 .547-.271.84-.765.84-.496 0-.77-.301-.77-.864v-1.902h-.683v1.926c0 .947.527 1.49 1.444 1.49.926 0 1.458-.553 1.458-1.518v-1.9h-.684v1.928zM20.6 26.88h.683v3.367H20.6v-1.368h-1.543v1.368h-.683V26.88h.683v1.358H20.6V26.88zM24.09 18.305h.606a3.686 3.686 0 0 0 3.681 3.682 3.685 3.685 0 0 0 3.681-3.682h.606a4.292 4.292 0 0 1-4.287 4.287 4.292 4.292 0 0 1-4.287-4.287z" fill="#FFF"/>
    </g>
</svg>
