<svg width="69" height="68" viewBox="0 0 69 68" xmlns="http://www.w3.org/2000/svg" xmlns:xlink="http://www.w3.org/1999/xlink">
    <defs>
        <linearGradient x1="50%" y1="0%" x2="50%" y2="100%" id="plhvxmrn8c">
            <stop stop-color="#666" offset="0%"/>
            <stop stop-color="#333" offset="100%"/>
        </linearGradient>
        <filter x="-22%" y="-20%" width="168%" height="168%" filterUnits="objectBoundingBox" id="0rxtspjt1a">
            <feOffset dx="6" dy="7" in="SourceAlpha" result="shadowOffsetOuter1"/>
            <feGaussianBlur stdDeviation="4.5" in="shadowOffsetOuter1" result="shadowBlurOuter1"/>
            <feComposite in="shadowBlurOuter1" in2="SourceAlpha" operator="out" result="shadowBlurOuter1"/>
            <feColorMatrix values="0 0 0 0 0 0 0 0 0 0.254901961 0 0 0 0 0.403921569 0 0 0 0.459380463 0" in="shadowBlurOuter1"/>
        </filter>
        <rect id="gcw2zlb0ib" x="0" y="0" width="50" height="50" rx="25"/>
    </defs>
    <g fill="none" fill-rule="evenodd">
        <g transform="translate(3.5 2)">
            <use fill="#000" filter="url(#0rxtspjt1a)" xlink:href="#gcw2zlb0ib"/>
            <rect stroke="#FFF" stroke-width="2.083" stroke-linejoin="square" fill-opacity=".95" fill="#FFF" x="1.042" y="1.042" width="47.917" height="47.917" rx="23.958"/>
        </g>
        <path d="m29.794 16.045.287.02a5.788 5.788 0 0 1 4.569 2.491 5.72 5.72 0 0 0-2.699 4.795l-.01-.042a5.522 5.522 0 0 0 3.34 5.083 12.648 12.648 0 0 1-1.74 3.572c-1.025 1.547-2.144 3.02-3.801 3.082-1.658.063-2.196-.982-4.113-.982-1.916 0-2.475.988-4.096 1.045-1.622.057-2.865-1.65-3.926-3.181-2.119-3.129-3.766-8.812-1.554-12.677a6.084 6.084 0 0 1 5.122-3.134c1.632-.032 3.165 1.107 4.144 1.107.978 0 2.843-1.363 4.764-1.16zM30.097 10a5.642 5.642 0 0 1-1.274 4.032 4.677 4.677 0 0 1-3.708 1.766 5.377 5.377 0 0 1 1.31-3.881A5.682 5.682 0 0 1 30.097 10z" fill="url(#plhvxmrn8c)" fill-rule="nonzero" transform="translate(3.5 2)"/>
    </g>
</svg>
