<?xml version="1.0" encoding="utf-8"?>
<!-- Generator: Adobe Illustrator 24.0.2, SVG Export Plug-In . SVG Version: 6.00 Build 0)  -->
<svg version="1.1" id="Layer_1" xmlns="http://www.w3.org/2000/svg" xmlns:xlink="http://www.w3.org/1999/xlink" x="0px" y="0px"
	 viewBox="0 0 184.1 65.4" style="enable-background:new 0 0 184.1 65.4;" xml:space="preserve">
<style type="text/css">
	.st0{fill:url(#_x31_dfcjj0gfa_1_);}
	.st1{filter:url(#Adobe_OpacityMaskFilter);}
	.st2{fill-rule:evenodd;clip-rule:evenodd;fill:#FFFFFF;}
	.st3{mask:url(#dc6gdmgb1g_1_);fill-rule:evenodd;clip-rule:evenodd;fill:url(#SVGID_1_);}
</style>
<g transform="translate(8)">
	<g>
		<g>
			
				<radialGradient id="_x31_dfcjj0gfa_1_" cx="-335.7379" cy="623.3668" r="2.0483" gradientTransform="matrix(40.146 -22.4577 -22.458 -40.1454 27526.7891 17543.5391)" gradientUnits="userSpaceOnUse">
				<stop  offset="0" style="stop-color:#FFE000"/>
				<stop  offset="1" style="stop-color:#FFF200"/>
			</radialGradient>
			<path id="_x31_dfcjj0gfa_2_" class="st0" d="M33.5,12.1h101.2c12.7,0,22.9,10.3,22.9,22.9v0.2c0,12.7-10.3,22.9-22.9,22.9H33.5
				c-12.7,0-22.9-10.3-22.9-22.9V35C10.6,22.4,20.8,12.1,33.5,12.1z"/>
		</g>
	</g>
	<defs>
		<filter id="Adobe_OpacityMaskFilter" filterUnits="userSpaceOnUse" x="6.2" y="3.7" width="155" height="16.7">
			<feColorMatrix  type="matrix" values="1 0 0 0 0  0 1 0 0 0  0 0 1 0 0  0 0 0 1 0"/>
		</filter>
	</defs>
	<mask maskUnits="userSpaceOnUse" x="6.2" y="3.7" width="155" height="16.7" id="dc6gdmgb1g_1_">
		<g class="st1">
			<path id="_x31_dfcjj0gfa_4_" class="st2" d="M33.5,12.1h101.2c12.7,0,22.9,10.3,22.9,22.9v0.2c0,12.7-10.3,22.9-22.9,22.9H33.5
				c-12.7,0-22.9-10.3-22.9-22.9V35C10.6,22.4,20.8,12.1,33.5,12.1z"/>
		</g>
	</mask>
	
		<radialGradient id="SVGID_1_" cx="-315.6765" cy="166.2798" r="4.4662" gradientTransform="matrix(16.7276 0 0 -1.1952 5364.2339 210.8542)" gradientUnits="userSpaceOnUse">
		<stop  offset="0" style="stop-color:#FFFFFF"/>
		<stop  offset="1" style="stop-color:#FFF461;stop-opacity:0"/>
	</radialGradient>
	<path class="st3" d="M83.7,20.5c50.2,0,77.5-3.7,77.5-8.4c0-4.6-27.3-8.4-77.5-8.4S6.2,7.5,6.2,12.1C6.2,16.7,33.5,20.5,83.7,20.5z
		"/>
</g>
</svg>
