<svg width="110" height="154" viewBox="0 0 110 154" xmlns="http://www.w3.org/2000/svg" xmlns:xlink="http://www.w3.org/1999/xlink">
    <defs>
        <filter x="-140.7%" y="-164.3%" width="381.4%" height="428.6%" filterUnits="objectBoundingBox" id="x7i48pj2pa">
            <feGaussianBlur stdDeviation="4.97371153 3.96412773" in="SourceGraphic"/>
        </filter>
        <filter x="-152.9%" y="-178.5%" width="405.7%" height="457%" filterUnits="objectBoundingBox" id="pb5zyttleb">
            <feOffset in="SourceAlpha" result="shadowOffsetOuter1"/>
            <feGaussianBlur stdDeviation="2" in="shadowOffsetOuter1" result="shadowBlurOuter1"/>
            <feColorMatrix values="0 0 0 0 1 0 0 0 0 0.949019608 0 0 0 0 0 0 0 0 1 0" in="shadowBlurOuter1"/>
        </filter>
        <filter x="-36.6%" y="-42.7%" width="173.1%" height="185.4%" filterUnits="objectBoundingBox" id="f97o0d2wzd">
            <feOffset in="SourceAlpha" result="shadowOffsetOuter1"/>
            <feGaussianBlur stdDeviation="2" in="shadowOffsetOuter1" result="shadowBlurOuter1"/>
            <feColorMatrix values="0 0 0 0 1 0 0 0 0 0.949019608 0 0 0 0 0 0 0 0 1 0" in="shadowBlurOuter1"/>
        </filter>
        <filter x="-13.5%" y="-20.3%" width="127%" height="181.1%" filterUnits="objectBoundingBox" id="dp5lhomj0f">
            <feOffset dy="3" in="SourceAlpha" result="shadowOffsetOuter1"/>
            <feGaussianBlur stdDeviation="1.5" in="shadowOffsetOuter1" result="shadowBlurOuter1"/>
            <feColorMatrix values="0 0 0 0 1 0 0 0 0 1 0 0 0 0 1 0 0 0 0.74 0" in="shadowBlurOuter1"/>
        </filter>
        <filter x="-54.7%" y="-6.6%" width="209.5%" height="113.2%" filterUnits="objectBoundingBox" id="04dnccvn1i">
            <feGaussianBlur stdDeviation="1.24479455 -0.26186088" in="SourceGraphic"/>
        </filter>
        <filter x="-54.7%" y="-6.6%" width="209.5%" height="113.2%" filterUnits="objectBoundingBox" id="7bm9wlviaj">
            <feOffset in="SourceAlpha" result="shadowOffsetOuter1"/>
            <feColorMatrix values="0 0 0 0 1 0 0 0 0 1 0 0 0 0 1 0 0 0 0.5 0" in="shadowOffsetOuter1"/>
        </filter>
        <filter x="-120.4%" y="-6.2%" width="340.8%" height="112.4%" filterUnits="objectBoundingBox" id="50m9qldkdm">
            <feGaussianBlur stdDeviation="1.24479455 -0.26186088" in="SourceGraphic"/>
        </filter>
        <filter x="-120.4%" y="-6.2%" width="340.8%" height="112.4%" filterUnits="objectBoundingBox" id="ep55r9un1n">
            <feOffset in="SourceAlpha" result="shadowOffsetOuter1"/>
            <feColorMatrix values="0 0 0 0 1 0 0 0 0 1 0 0 0 0 1 0 0 0 0.5 0" in="shadowOffsetOuter1"/>
        </filter>
        <filter x="-120.4%" y="-6.2%" width="340.8%" height="112.4%" filterUnits="objectBoundingBox" id="7clvo3na7q">
            <feGaussianBlur stdDeviation="1.24479455 -0.26186088" in="SourceGraphic"/>
        </filter>
        <filter x="-120.4%" y="-6.2%" width="340.8%" height="112.4%" filterUnits="objectBoundingBox" id="sf49uuo0ur">
            <feOffset in="SourceAlpha" result="shadowOffsetOuter1"/>
            <feColorMatrix values="0 0 0 0 1 0 0 0 0 1 0 0 0 0 1 0 0 0 0.5 0" in="shadowOffsetOuter1"/>
        </filter>
        <filter x="-54.7%" y="-6.6%" width="209.5%" height="113.2%" filterUnits="objectBoundingBox" id="wch75rdpgt">
            <feGaussianBlur stdDeviation="1.24479455 -0.26186088" in="SourceGraphic"/>
        </filter>
        <filter x="-54.7%" y="-6.6%" width="209.5%" height="113.2%" filterUnits="objectBoundingBox" id="o8wz8zngeu">
            <feOffset in="SourceAlpha" result="shadowOffsetOuter1"/>
            <feColorMatrix values="0 0 0 0 1 0 0 0 0 1 0 0 0 0 1 0 0 0 0.5 0" in="shadowOffsetOuter1"/>
        </filter>
        <filter x="-120.4%" y="-5.1%" width="340.8%" height="110.2%" filterUnits="objectBoundingBox" id="fdeve1fchw">
            <feGaussianBlur stdDeviation="1.24479455 -0.26186088" in="SourceGraphic"/>
        </filter>
        <filter x="-120.4%" y="-5.1%" width="340.8%" height="110.2%" filterUnits="objectBoundingBox" id="b0wjhqfmmx">
            <feOffset in="SourceAlpha" result="shadowOffsetOuter1"/>
            <feColorMatrix values="0 0 0 0 1 0 0 0 0 1 0 0 0 0 1 0 0 0 0.5 0" in="shadowOffsetOuter1"/>
        </filter>
        <filter x="-120.4%" y="-5.1%" width="340.8%" height="110.2%" filterUnits="objectBoundingBox" id="q9sizj7cuA">
            <feGaussianBlur stdDeviation="1.24479455 -0.26186088" in="SourceGraphic"/>
        </filter>
        <filter x="-120.4%" y="-5.1%" width="340.8%" height="110.2%" filterUnits="objectBoundingBox" id="m4fdutdyaB">
            <feOffset in="SourceAlpha" result="shadowOffsetOuter1"/>
            <feColorMatrix values="0 0 0 0 1 0 0 0 0 1 0 0 0 0 1 0 0 0 0.5 0" in="shadowOffsetOuter1"/>
        </filter>
        <filter x="-39.4%" y="-23.6%" width="178.9%" height="147.1%" filterUnits="objectBoundingBox" id="357s58kkbE">
            <feOffset in="SourceAlpha" result="shadowOffsetOuter1"/>
            <feGaussianBlur stdDeviation=".5" in="shadowOffsetOuter1" result="shadowBlurOuter1"/>
            <feColorMatrix values="0 0 0 0 0 0 0 0 0 0.93220339 0 0 0 0 1 0 0 0 1 0" in="shadowBlurOuter1"/>
        </filter>
        <filter x="-53.2%" y="-53%" width="206.5%" height="206%" filterUnits="objectBoundingBox" id="aakzpcmvsH">
            <feOffset in="SourceAlpha" result="shadowOffsetOuter1"/>
            <feGaussianBlur stdDeviation=".5" in="shadowOffsetOuter1" result="shadowBlurOuter1"/>
            <feColorMatrix values="0 0 0 0 1 0 0 0 0 0.890196078 0 0 0 0 0 0 0 0 1 0" in="shadowBlurOuter1"/>
        </filter>
        <filter x="-5.6%" y="-3.4%" width="111.1%" height="113.6%" filterUnits="objectBoundingBox" id="87nhsrc6mX">
            <feOffset dy="1" in="SourceAlpha" result="shadowOffsetOuter1"/>
            <feColorMatrix values="0 0 0 0 0.535472571 0 0 0 0 0.839956975 0 0 0 0 0.798090369 0 0 0 1 0" in="shadowOffsetOuter1"/>
        </filter>
        <filter x="-5.6%" y="-3.4%" width="111.1%" height="113.6%" filterUnits="objectBoundingBox" id="kch2531lsZ">
            <feOffset dy="1" in="SourceAlpha" result="shadowOffsetInner1"/>
            <feComposite in="shadowOffsetInner1" in2="SourceAlpha" operator="arithmetic" k2="-1" k3="1" result="shadowInnerInner1"/>
            <feColorMatrix values="0 0 0 0 0 0 0 0 0 0 0 0 0 0 0 0 0 0 0.3 0" in="shadowInnerInner1"/>
        </filter>
        <path d="M15.581 1.353C12.045-3.024 3.675 3.748 0 14.05c10.794-1.488 19.117-8.318 15.581-12.696" id="tp2nelczpc"/>
        <path d="M15.581 1.353C12.045-3.024 3.675 3.748 0 14.05c10.794-1.488 19.117-8.318 15.581-12.696" id="5bq3yyh23e"/>
        <path id="jvrq7fwkdk" d="M.634 0h5.07l1.269 57.93H0z"/>
        <path id="1mxslpaqio" d="M5.727 5.603h3.169v61.75H5.727z"/>
        <path id="4kq4yinb6s" d="M46.929 2.42h3.169v61.75h-3.169z"/>
        <path id="i6nivu2sfv" d="M54.326 1.13h5.07l.634 57.93h-6.972z"/>
        <path id="m338r5nt6y" d="M39.322 5.603h3.169v75.118h-3.169z"/>
        <path id="q29zmppb9C" d="M14.601 5.603h3.169v75.118h-3.169z"/>
        <path d="M23.091 24.766c.688 0 1.245.566 1.245 1.263 0 .695-.557 1.26-1.245 1.26H21.78c-.954 0-1.246.66-1.246.66v-1.92c0-.697.557-1.263 1.246-1.263zm-.116-3.183c.656 0 1.189.566 1.189 1.26 0 .697-.533 1.26-1.19 1.26h-1.251c-.912 0-1.19.663-1.19.663v-1.922c0-.695.533-1.26 1.19-1.26z" id="pqx5yrqshF"/>
        <path d="M2.2 2.56a1.452 1.452 0 0 1-.569.253 1.003 1.003 0 0 1-.222.016 1.32 1.32 0 0 1-.38-.073C.527 2.585 0 2.122 0 1.416 0 .633.631 0 1.41 0a1.4 1.4 0 0 1 1.013.433c.245.254.394.6.394.982 0 .501-.276.9-.617 1.145z" id="gxwh9ffcnI"/>
        <path d="m.451 0 .05.049C1.161.7 2.16 1.56 3.517 2.329l.11.062c2.72 1.508 5.211 1.757 7.202 1.86l.096.004c2.338.108 4.211-.225 4.916-.468l.028-.01c.735-.275 2.624-1.745 2.624-1.745-.017.028-.305.517-.566.912l-.044.067c-.073.109-.143.208-.202.283l-.027.035c-.252.32-.453.529-.478.555l-.003.003c.036-.005 1.634-.236 3.381-1.235l.062-.035A22.98 22.98 0 0 0 23.403.742l.02-.016.047-.039-.04.05c-.631.78-1.643 1.841-3.121 2.738l-.108.065c-1.935 1.146-3.71 1.434-5.516 1.642l-.2.022-.202.023-.201.022-.05.005c-1.664.182-5.329.52-9.327-1.168l-.074-.032c-.465-.199-.84-.385-1.093-.516L3.469 3.5a14.007 14.007 0 0 1-.62-.352l.416.336c-.04-.019-1.15-.526-1.63-.921l-.056-.03c-.441-.243-.763-.762-.974-1.016l-.018-.022C.29 1.108 0 .026 0 .026l.965 1.06L.451 0z" id="fgypn4zzdK"/>
        <path d="M18.6 30.219c-7.406-.053-13.904-4.055-15.462-6.28-2.11-3.015-3.195-6.524-3.136-10.147C.08 9.072 2.035 5.465 5.815 3.07 9.116.976 13.755-.084 19.238.005c5.48.089 10.084 1.298 13.316 3.496 3.7 2.517 5.538 6.187 5.46 10.906-.058 3.623-1.256 7.095-3.463 10.04-1.518 2.026-7.685 5.773-15.762 5.773l-.189-.001z" id="oedi7sh4lL"/>
        <path id="n5ty7jsc9N" d="M0 0h40.207v64.686H0z"/>
        <path d="M4.252.017c.003.242-.764 1.218-1.707 1.623-.926.398-1.656.271-2.093.144-.3-.087-.46-.174-.452-.092.022.206.623 2.042 1.369 3.508.8 1.574 1.914 2.172 2.828 2.172.995 0 2-1.211 2.485-2.1.953-1.748 1.026-3.47 1.026-3.47-1.01.201-1.895-.34-2.516-.88C4.66.462 4.322 0 4.262 0c-.007 0-.01.005-.01.017" id="fcv5c5jdpP"/>
        <path id="r6hzym9kzR" d="M0 0h11.535v22.995H0z"/>
        <path d="M59.546 16.383c1.628 0 2.949 1.305 2.949 2.913 0 1.603-1.32 2.906-2.95 2.906h-3.107c-2.26 0-2.951 1.525-2.951 1.525v-4.431c0-1.608 1.318-2.913 2.951-2.913zm-.276-7.344c1.554 0 2.815 1.304 2.815 2.908 0 1.607-1.26 2.905-2.815 2.905h-2.966c-2.159 0-2.817 1.53-2.817 1.53v-4.435c0-1.604 1.26-2.908 2.817-2.908z" id="zex91ks8vY"/>
        <linearGradient x1="50%" y1="29.036%" x2="50%" y2="100%" id="vquwbb8vzh">
            <stop stop-color="#159080" offset="0%"/>
            <stop stop-color="#FFF" offset="100%"/>
        </linearGradient>
        <linearGradient x1="50%" y1="0%" x2="50%" y2="100%" id="773mfxywhl">
            <stop stop-color="#FFF" stop-opacity=".5" offset="0%"/>
            <stop stop-color="#FFF" stop-opacity="0" offset="100%"/>
        </linearGradient>
        <linearGradient x1="50%" y1="0%" x2="50%" y2="100%" id="bq9g9r2mcp">
            <stop stop-color="#FFF" stop-opacity=".5" offset="0%"/>
            <stop stop-color="#FFF" stop-opacity="0" offset="100%"/>
        </linearGradient>
        <linearGradient x1="50%" y1="0%" x2="50%" y2="100%" id="d6qs9aqx3z">
            <stop stop-color="#FFF" stop-opacity=".5" offset="0%"/>
            <stop stop-color="#FFF" stop-opacity="0" offset="100%"/>
        </linearGradient>
        <linearGradient x1="50%" y1="3.322%" x2="50%" y2="100%" id="wyli1l7riD">
            <stop stop-color="#EEEDEF" offset="0%"/>
            <stop stop-color="#C2BAC6" offset="31.438%"/>
            <stop stop-color="#220F2D" offset="100%"/>
        </linearGradient>
        <linearGradient x1="50%" y1="0%" x2="50%" y2="100%" id="y0m142k7jG">
            <stop stop-color="#00AEBE" offset="0%"/>
            <stop stop-color="#007689" offset="100%"/>
        </linearGradient>
        <linearGradient x1="50%" y1="0%" x2="50%" y2="100%" id="hle5ne350T">
            <stop stop-opacity="0" offset="0%"/>
            <stop stop-opacity=".6" offset="100%"/>
        </linearGradient>
        <linearGradient x1="-4.714%" y1="46.493%" x2="93.883%" y2="51.61%" id="iht62kek8W">
            <stop stop-color="#159080" offset="0%"/>
            <stop stop-color="#73C3B8" offset="29.57%"/>
            <stop stop-color="#73C3B8" offset="40.98%"/>
            <stop stop-color="#73C3B8" offset="60.7%"/>
            <stop stop-color="#004167" offset="86.19%"/>
            <stop stop-color="#159080" offset="100%"/>
        </linearGradient>
        <linearGradient x1=".134%" y1="49.949%" x2="99.5%" y2="49.949%" id="nfxay7aupaa">
            <stop stop-color="#004167" offset="0%"/>
            <stop stop-color="#159080" offset="100%"/>
        </linearGradient>
        <linearGradient x1="49.877%" y1="105.618%" x2="49.877%" y2="5.191%" id="zku1e2coqab">
            <stop stop-color="#FFF" offset="0%"/>
            <stop stop-color="#EDEAFA" offset="16.05%"/>
            <stop stop-color="#C5BCEF" offset="53.85%"/>
            <stop stop-color="#ADA0E8" offset="83.08%"/>
            <stop stop-color="#A496E5" offset="100%"/>
        </linearGradient>
        <linearGradient x1=".153%" y1="49.879%" x2="100.055%" y2="49.879%" id="psouh77f8ac">
            <stop stop-color="#159080" stop-opacity="0" offset="0%"/>
            <stop stop-color="#159080" offset="100%"/>
        </linearGradient>
        <linearGradient x1="50.664%" y1="1.347%" x2="50.664%" y2="98.294%" id="s7147wo35ae">
            <stop stop-color="#55FBFF" offset="0%"/>
            <stop stop-color="#53F8FE" offset="23.34%"/>
            <stop stop-color="#4EEFFC" offset="40%"/>
            <stop stop-color="#46DFF8" offset="54.58%"/>
            <stop stop-color="#3AC9F2" offset="67.98%"/>
            <stop stop-color="#2AACEA" offset="80.56%"/>
            <stop stop-color="#178AE1" offset="92.37%"/>
            <stop stop-color="#0B73DB" offset="100%"/>
        </linearGradient>
        <linearGradient x1="49.231%" y1="1.589%" x2="49.231%" y2="99.594%" id="56kjq1y0paf">
            <stop stop-color="#55FBFF" offset="0%"/>
            <stop stop-color="#53F8FE" offset="23.34%"/>
            <stop stop-color="#4EEFFC" offset="40%"/>
            <stop stop-color="#46DFF8" offset="54.58%"/>
            <stop stop-color="#3AC9F2" offset="67.98%"/>
            <stop stop-color="#2AACEA" offset="80.56%"/>
            <stop stop-color="#178AE1" offset="92.37%"/>
            <stop stop-color="#0B73DB" offset="98.92%"/>
        </linearGradient>
        <linearGradient x1="50.444%" y1="1.861%" x2="50.444%" y2="99.867%" id="027rto0txag">
            <stop stop-color="#55FBFF" offset="0%"/>
            <stop stop-color="#53F8FE" offset="23.34%"/>
            <stop stop-color="#4EEFFC" offset="40%"/>
            <stop stop-color="#46DFF8" offset="54.58%"/>
            <stop stop-color="#3AC9F2" offset="67.98%"/>
            <stop stop-color="#2AACEA" offset="80.56%"/>
            <stop stop-color="#178AE1" offset="92.37%"/>
            <stop stop-color="#0B73DB" offset="98.92%"/>
        </linearGradient>
        <radialGradient cx="0%" cy="65.603%" fx="0%" fy="65.603%" r="124.039%" gradientTransform="scale(1 .99542) rotate(-16.486 .01 .658)" id="lmbmtuhdlJ">
            <stop stop-color="#FFC700" offset="0%"/>
            <stop stop-color="#FFEC00" offset="100%"/>
        </radialGradient>
        <radialGradient cx="50%" cy="50%" fx="50%" fy="50%" r="68.475%" gradientTransform="matrix(-.19123 .7302 -.65599 -.09507 .924 .182)" id="5fqoiwtboU">
            <stop stop-color="#FFF" offset="0%"/>
            <stop stop-color="#FFF" stop-opacity="0" offset="100%"/>
        </radialGradient>
        <radialGradient cx="50%" cy="50%" fx="50%" fy="50%" r="58.282%" gradientTransform="matrix(-.25604 .8579 -.75253 -.1769 1.004 .16)" id="kzhih6prnV">
            <stop stop-color="#FFF" offset="0%"/>
            <stop stop-color="#FFF" stop-opacity="0" offset="100%"/>
        </radialGradient>
        <radialGradient cx="50.222%" cy="50.432%" fx="50.222%" fy="50.432%" r="50.729%" gradientTransform="matrix(.99816 0 0 1 0 0)" id="wexd2cc5fad">
            <stop stop-color="#FFF" offset="0%"/>
            <stop stop-color="#FFF" stop-opacity="0" offset="100%"/>
        </radialGradient>
        <ellipse id="bwcexpo0kg" cx="56.763" cy="96.137" rx="22.212" ry="7.395"/>
    </defs>
    <g fill="none" fill-rule="evenodd">
        <g filter="url(#x7i48pj2pa)" transform="rotate(-50 142.183 8.335)">
            <use fill="#000" filter="url(#pb5zyttleb)" xlink:href="#tp2nelczpc"/>
            <use fill="#E13738" xlink:href="#tp2nelczpc"/>
        </g>
        <g transform="rotate(-50 142.183 8.335)">
            <use fill="#000" filter="url(#f97o0d2wzd)" xlink:href="#5bq3yyh23e"/>
            <use fill="#E13738" xlink:href="#5bq3yyh23e"/>
        </g>
        <path d="M55.471 100.811c-4.874-.083-5.05 8.906-.268 16.781 5.03-7.708 5.142-16.698.268-16.78" fill="#E66440"/>
        <path d="M55.471 100.811c-4.132-.07-4.274 7.121-.214 13.426 4.259-6.163 4.346-13.355.214-13.426" fill="#EB9047"/>
        <path d="M55.471 100.811c-3.391-.058-3.5 5.337-.16 10.071 3.487-4.617 3.55-10.013.16-10.07" fill="#F0BD4F"/>
        <path d="M55.471 100.811c-2.65-.045-2.724 3.553-.107 6.717 2.717-3.073 2.757-6.672.107-6.717" fill="#F4E956"/>
        <g>
            <g>
                <use fill="#000" filter="url(#dp5lhomj0f)" xlink:href="#bwcexpo0kg"/>
                <use fill="url(#vquwbb8vzh)" xlink:href="#bwcexpo0kg"/>
            </g>
            <g>
                <ellipse fill="#004167" cx="56.281" cy="56.208" rx="41.945" ry="12.378"/>
                <g filter="url(#04dnccvn1i)" transform="translate(26.04 50.278)">
                    <use fill="#000" filter="url(#7bm9wlviaj)" xlink:href="#jvrq7fwkdk"/>
                    <use fill="url(#773mfxywhl)" xlink:href="#jvrq7fwkdk"/>
                </g>
                <g filter="url(#50m9qldkdm)" transform="translate(26.04 50.278)">
                    <use fill="#000" filter="url(#ep55r9un1n)" xlink:href="#1mxslpaqio"/>
                    <use fill="url(#bq9g9r2mcp)" xlink:href="#1mxslpaqio"/>
                </g>
                <g filter="url(#7clvo3na7q)" transform="translate(26.04 50.278)">
                    <use fill="#000" filter="url(#sf49uuo0ur)" xlink:href="#4kq4yinb6s"/>
                    <use fill="url(#bq9g9r2mcp)" xlink:href="#4kq4yinb6s"/>
                </g>
                <g filter="url(#wch75rdpgt)" transform="translate(26.04 50.278)">
                    <use fill="#000" filter="url(#o8wz8zngeu)" xlink:href="#i6nivu2sfv"/>
                    <use fill="url(#773mfxywhl)" xlink:href="#i6nivu2sfv"/>
                </g>
                <g filter="url(#fdeve1fchw)" transform="translate(26.04 50.278)">
                    <use fill="#000" filter="url(#b0wjhqfmmx)" xlink:href="#m338r5nt6y"/>
                    <use fill="url(#d6qs9aqx3z)" xlink:href="#m338r5nt6y"/>
                </g>
                <g filter="url(#q9sizj7cuA)" transform="translate(26.04 50.278)">
                    <use fill="#000" filter="url(#m4fdutdyaB)" xlink:href="#q29zmppb9C"/>
                    <use fill="url(#d6qs9aqx3z)" xlink:href="#q29zmppb9C"/>
                </g>
                <g>
                    <path d="M25.198.012h.906L27.442.01h.875l.43-.001.848-.001 1.23-.001h.788l.384-.001h.744l.36-.001h.695l.334-.001h.942l.293-.001h.813l.248-.001h.864L37.472 0 38.476 0v.025H39.696l.237.001h1.144l.141.001h.474a4.37 4.37 0 0 1 4.37 4.369l2.528 25.302a4.37 4.37 0 0 1-4.37 4.368H4.37A4.37 4.37 0 0 1 0 29.698L2.528 4.396A4.37 4.37 0 0 1 6.898.027H8.659l.237-.001H9.96l.15-.001.002-.025h1.004l.183.001h.863l.248.001h.813l.293.001h.943l.333.001h.695l.36.001h.744l.384.001h.788l1.23.002h.848l.43.001.875.001 1.339.001.906.001h1.806z" fill="url(#wyli1l7riD)" transform="translate(31.31 30.961)"/>
                    <path d="M31.997 60.842c.016.503.066 1.557.784 2.449.895 1.11 2.134 1.28 2.382 1.31-.576-.332-1.33-.888-1.85-1.796-.526-.917-.585-1.797-.607-2.188-.099-1.77.93-7.937.621-16.37-.111 8.272-1.4 14.403-1.33 16.595zM79.34 60.842c-.016.503-.066 1.557-.784 2.449-.894 1.11-2.134 1.28-2.382 1.31.576-.332 1.33-.888 1.85-1.796.526-.917.585-1.797.607-2.188.099-1.77-.93-7.937-.62-16.37.11 8.272 1.4 14.403 1.33 16.595zM55.103 31.392c-8.274-.111-14.408-.07-16.601 0-.502.016-1.558.066-2.45.784-1.11.894-1.28 2.134-1.31 2.381.332-.576.889-1.33 1.797-1.85.917-.525 1.797-.583 2.188-.605 1.77-.1 7.94-.4 16.376-.71M56.234 31.392c8.274-.111 14.408-.07 16.601 0 .503.016 1.558.066 2.45.784 1.11.894 1.28 2.134 1.31 2.381-.332-.576-.889-1.33-1.796-1.85-.918-.525-1.798-.583-2.19-.605-1.77-.1-7.94-.4-16.375-.71" fill="#FFF"/>
                </g>
                <g>
                    <path d="M70.184 80.691a.798.798 0 0 1-.252.266s-.113.073-.235.102c-.243.058-.655-.217-.959-.73a.448.448 0 0 1-.125.058c-.177.049-.34-.03-.43-.076-.435-.223-.713-.45-.713-.45a35.684 35.684 0 0 1-.748-.628l-.7-.664c-.35-.35-.702-.698-1.053-1.048l-2.854-2.467a19.922 19.922 0 0 1-1.71-1.162c.382.065.923.12 1.565.066a6.683 6.683 0 0 0 1.166-.213c.58-.156 1.524-.478 2.64-1.191a17.565 17.565 0 0 0 7.893-.016l1.066.119-6.049 2.64c.398.47.676.912.868 1.262.332.605.837 1.522.84 2.749a4.631 4.631 0 0 1-.21 1.383" fill="#DDD"/>
                    <path d="M69.959 80.942a.544.544 0 0 1-.31.124c-.183.01-.316-.093-.458-.205a1.687 1.687 0 0 1-.446-.546.605.605 0 0 1-.16.066c-.22.056-.473-.02-1.059-.475a8.869 8.869 0 0 1-.824-.729l-.619-.578-1.105-1.122-2.877-2.543a12.36 12.36 0 0 1-1.696-1.18 8.734 8.734 0 0 0 2.733-.15c.892 2.082 1.929 3.527 2.713 4.461.512.61 2.082 2.479 2.753 2.119.128-.068.195-.202.232-.311l.001.005c.041.435.28.926.625 1.067.108.044.214.048.222.049a.642.642 0 0 0 .275-.052" fill="#BAAFBF"/>
                    <path d="M70.184 80.691a.798.798 0 0 1-.252.266s-.113.073-.235.102c-.243.058-.655-.217-.959-.73a.448.448 0 0 1-.125.058c-.177.049-.34-.03-.43-.076-.435-.223-.713-.45-.713-.45a35.684 35.684 0 0 1-.748-.628l-.7-.664c-.35-.35-.702-.698-1.053-1.048l-2.854-2.467a19.922 19.922 0 0 1-1.71-1.162c.382.065.923.12 1.565.066a6.683 6.683 0 0 0 1.166-.213c.58-.156 1.524-.478 2.64-1.191a17.565 17.565 0 0 0 7.893-.016l1.066.119-6.049 2.64c.398.47.676.912.868 1.262.332.605.837 1.522.84 2.749a4.631 4.631 0 0 1-.21 1.383z" stroke="#180B23" stroke-width=".5" stroke-linejoin="round"/>
                    <path d="M68.897 75.83a3.774 3.774 0 0 0-1.386-1.19 4.263 4.263 0 0 0-1.268-.409 7.16 7.16 0 0 1 1.42.65c.541.324.947.668 1.234.95" fill="#BAAFBF"/>
                    <path d="M44.497 82.301a.997.997 0 0 0 .32.327c.001 0 .144.09.298.124.307.067.821-.281 1.194-.924.036.022.09.05.16.069.223.058.426-.042.54-.102.542-.284.888-.57.888-.57.364-.303.677-.572.932-.796l.87-.837 1.307-1.321 3.552-3.118a24.688 24.688 0 0 0 2.132-1.474 7.897 7.897 0 0 1-1.967.107 8.47 8.47 0 0 1-1.47-.246c-.732-.185-1.925-.571-3.34-1.44a22.293 22.293 0 0 1-9.929.107l-1.34.165 7.652 3.19a9.577 9.577 0 0 0-1.073 1.584c-.408.759-1.027 1.908-1.012 3.436.007.71.149 1.3.286 1.719" fill="#DDD"/>
                    <path d="M45.397 82.665c.226.009.388-.123.562-.269.14-.117.362-.336.542-.7a.73.73 0 0 0 .198.081c.274.067.584-.034 1.3-.623.27-.222.62-.533 1.005-.94l.755-.745 1.346-1.444c1.17-1.094 2.964-2.187 4.135-3.28.25-.154-.118-.322.144-.506.485-.34.92-.686 1.306-1.023a10.48 10.48 0 0 1-3.374-.145c-1.069 2.66-2.325 4.516-3.28 5.716-.622.784-2.53 3.186-3.363 2.74-.159-.085-.244-.254-.291-.392l-.001.007c-.045.553-.33 1.181-.755 1.366a.867.867 0 0 1-.273.066.77.77 0 0 1-.34-.062.66.66 0 0 0 .384.153z" fill="#BAAFBF"/>
                    <path d="M44.497 82.301a.997.997 0 0 0 .32.327c.001 0 .144.09.298.124.307.067.821-.281 1.194-.924.036.022.09.05.16.069.223.058.426-.042.54-.102.542-.284.888-.57.888-.57.364-.303.677-.572.932-.796l.87-.837 1.307-1.321 3.552-3.118a24.688 24.688 0 0 0 2.132-1.474 7.897 7.897 0 0 1-1.967.107 8.47 8.47 0 0 1-1.47-.246c-.732-.185-1.925-.571-3.34-1.44a22.293 22.293 0 0 1-9.929.107l-1.34.165 7.652 3.19a9.577 9.577 0 0 0-1.073 1.584c-.408.759-1.027 1.908-1.012 3.436.007.71.149 1.3.286 1.719z" stroke="#180B23" stroke-width=".5" stroke-linejoin="round"/>
                    <path d="M45.981 76.458a4.697 4.697 0 0 1 1.657-1.58 4.886 4.886 0 0 1 1.528-.552 8.375 8.375 0 0 0-1.707.87 8.107 8.107 0 0 0-1.478 1.262" fill="#BAAFBF"/>
                    <path d="M69.575 73.199a10.932 10.932 0 0 1-2.718-.297c-.422.168-1.012.392-1.729.62-4.102 1.312-8.44 1.11-10.124 1.023-3.639-.187-5.727-.916-7.631-1.686a6.045 6.045 0 0 1-2.312.233 9.916 9.916 0 0 1-4.243-.61 9.956 9.956 0 0 1-4.253-3.122 8.134 8.134 0 0 1-2.166-5.434 10.873 10.873 0 0 1 1.883-5.603l41.075-.082c.565.901 1.24 2.27 1.498 4.037.126.864.472 3.496-1.021 6.112a8.674 8.674 0 0 1-1.518 1.945 8.894 8.894 0 0 1-2.724 2.007c-1.697.802-3.208.843-4.017.857z" fill="#FFF"/>
                    <path d="M77.204 58.514a10.162 10.162 0 0 1 1.38 3.803c.123.84.464 3.396-.988 5.938a8.4 8.4 0 0 1-1.47 1.884 8.65 8.65 0 0 1-2.65 1.956c-1.65.78-3.12.817-3.906.83-1.105.02-2.02-.139-2.65-.29-.582.18-1.166.401-1.875.628-1.73.553-3.355.867-4.78 1.04a25.853 25.853 0 0 1-4.427.155 25.884 25.884 0 0 1-8.363-1.852c-.446.072-.762.147-1.12.193a5.772 5.772 0 0 1-1.27.021 9.763 9.763 0 0 1-4.17-.593 9.681 9.681 0 0 1-4.136-3.037 7.86 7.86 0 0 1-2.107-5.259 10.596 10.596 0 0 1 1.756-5.335z" stroke="#180B23" stroke-width=".546"/>
                    <path d="M39.175 67.302c1.458 1.486 4.459 4.25 8.363 5.77 1.685.656 3.473 1.054 3.692 1.102 2.242.492 4.004.567 4.71.584.27.006 1.007.02 1.97-.033.923-.05 3.005-.215 5.652-.94.854-.233 1.281-.35 1.681-.514 1.085-.448 3.024-1.55 4.716-4.586a13.222 13.222 0 0 1-2.832 2.804c-.62.45-2.467 1.702-6.116 2.396-5.226.993-9.554-.035-10.59-.298-5.6-1.422-9.376-4.507-11.246-6.285" fill="#180B23"/>
                    <g>
                        <path d="M36.662 59.24c-.24 1.405-.361 3.39.347 5.499 2.483 7.396 13.035 9.97 19.592 10.027 2.683.024 13.986.121 18.657-8.194 2.45-4.36 1.922-8.98 1.532-11.081-.11 1.408-.886 9.647-7.577 14.262-4.217 2.908-8.593 2.865-12.606 2.825-4.035-.04-11.37-.112-16.212-5.545-2.47-2.772-3.366-5.9-3.733-7.793" fill="#C2BAC6"/>
                        <path d="M68.805 70.78c-.719.384-1.5.737-2.331 1.052-3.001 1.137-6.624 1.795-10.086 1.787-7.14-.017-14.237-3.619-16.983-6.277-.421-.407-.739-.791-.94-1.137-.482-.83-2.77-4.769-1.924-9.197.215-1.125.785-2.535 1.924-5.35 1.262-3.117 1.952-4.396 2.376-5.447.938-2.327.711-8.384-2.692-12.143 1.636 1.54 7.562 4.686 12.54 5.795 2.015.45 6.45 1.61 11.793 0 1.53-.463 5.144-3.102 6.293-3.745.666-.371 2.406-.971 5.219-1.8-2.094 2.524-2.932 5.363-2.513 8.518.314 1.892.436 2.417.848 3.375.44 1.022 1.16 2.805 3.366 5.026 1.47 1.481 1.707 8.4-.44 13.325-1.554 3.568-5.215 5.557-6.45 6.218z" fill="#FFF"/>
                        <path d="M74.308 49.46c.502.608 1.14 1.84 1.303 2.01 2.2 2.322 1.85 8.621-.44 13.326a12.23 12.23 0 0 1-.946 1.675c-1.699 2.49-3.989 3.739-5.504 4.543-.54.287-1.33.674-2.331 1.052a22.3 22.3 0 0 0 2.173-1.568c1.112-.917 1.864-1.742 2.474-2.725.715-1.152 1.448-2.862 1.596-5.787.004-.076.008-.167.011-.276.13-4.11-2.601-11.553-2.724-11.89-.913-2.498-1.894-7.615 2.818-13.61-3.456 8.203 1.57 13.25 1.57 13.25z" fill="#E0DCE2"/>
                        <path d="M43.084 34.177a4.824 4.824 0 0 1-1.087 1.001 19.095 19.095 0 0 0 6.96 4.503c4.379 1.618 8.208 1.182 9.967.867-2.074.052-5.924-.141-10.088-2.2a21.386 21.386 0 0 1-5.752-4.17" fill="#FFF"/>
                        <path d="M38.28 51.71c2.856 2.071 8.226 5.314 15.504 6.005 12.656 1.202 22.241-6.156 22.133-6.42-.103-.25-8.91 5.628-21.002 5.126-6.919-.287-12.608-2.567-16.636-4.71" fill="#180E21"/>
                        <path d="M77.777 56.482c-.208.303-.436.51-.592.635-2.243 1.717-9.63 6.922-20.413 6.914-10.753-.008-18.114-5.194-20.36-6.914-.1-.551-.317-2.153.572-3.774a5.571 5.571 0 0 1 1.369-1.624c2.513 1.671 9.012 5.51 18.136 5.6 9.971.1 17.003-4.335 19.428-6.025.246.07.639.204 1.038.472.252.169.508.39.733.68.933 1.205.839 2.946.089 4.036" fill="#DDD"/>
                        <path d="M77.777 56.482a2.96 2.96 0 0 1-.592.635c-1.336 1.022-4.448 3.194-9.062 4.824-3.342 1.181-6.851 2.052-11.35 2.09-9.945.084-17.424-4.766-20.361-6.914-.063-.046 2.844 1.928 6.961 3.538 1.252.49 2.391.867 3.37 1.159a18.766 18.766 0 0 1 0-6.042l19.509.18a16.405 16.405 0 0 1 .259 6.069c4.249-1.176 6.943-2.836 8.4-3.892 1.227-.888 2.092-1.722 2.432-2.983.383-1.419-.087-2.72-.388-3.38.252.169.508.39.733.68.933 1.205.839 2.946.089 4.036" fill="#220F2D"/>
                        <path d="m49.649 49.465-2.118 2.077c-1.009 4.221-.895 8.498 0 12.814.401.978 1.282 1.642 2.684 1.965 2.905.67 5.18.578 5.18.578 3.611.051 6.587.344 8.493-.482.706-.306 1.09-.69 1.283-.914.59-.69.733-1.47.798-1.87.545-3.342.324-5.776.324-5.776a56.653 56.653 0 0 0-.993-6.582l-2.471-1.81h-13.18z" fill="#7F7484"/>
                        <path d="m49.649 48.82-2.118 2.078c-1.009 4.221-.895 8.498 0 12.814.401.978 1.282 1.642 2.684 1.965 2.905.67 5.18.578 5.18.578 3.611.051 6.587.344 8.493-.482.706-.306 1.09-.69 1.283-.915.59-.689.733-1.468.798-1.87.545-3.341.324-5.775.324-5.775a56.653 56.653 0 0 0-.993-6.582l-2.471-1.81h-13.18z" fill="#EEEDEF"/>
                        <g transform="translate(36.314 34.068)">
                            <use fill="#000" filter="url(#357s58kkbE)" xlink:href="#pqx5yrqshF"/>
                            <use fill="url(#y0m142k7jG)" xlink:href="#pqx5yrqshF"/>
                        </g>
                        <path d="m49.649 48.82-2.118 2.078c5.82-.46 11.738-.569 17.769-.267l-2.471-1.81h-13.18z" fill="#E0DCE2"/>
                        <g transform="translate(61.964 53.788)">
                            <use fill="#000" filter="url(#aakzpcmvsH)" xlink:href="#gxwh9ffcnI"/>
                            <use fill="url(#lmbmtuhdlJ)" xlink:href="#gxwh9ffcnI"/>
                        </g>
                        <path d="M64.782 55.204c0 .768-.652 1.298-1.186 1.397a1.003 1.003 0 0 1-.222.017 1.32 1.32 0 0 1-.38-.074c.566.02 1.1-.274 1.386-.763a1.56 1.56 0 0 0 .007-1.56c.245.254.395.6.395.983" fill="#000" opacity=".1"/>
                        <path d="m53.657 51.406-.25 5.533-.952.465c-.397 3.318-.125 5.948.107 8.618l.397.045c-.291-2.832-.373-5.757-.173-8.417l.878-.44.245-5.959-.252.155z" fill="#000"/>
                        <path d="M56.415 48.82c1.361.49 1.917 1.042 1.862 1.642l7.023.169-2.471-1.81h-6.414z" fill="#BAAFBF"/>
                        <path d="M39.427 52.504a6.341 6.341 0 0 0-1.553 2.545 6.35 6.35 0 0 0-.25 2.724 4.36 4.36 0 0 1-.09-2.91 4.349 4.349 0 0 1 1.893-2.359M41.063 53.482a6.34 6.34 0 0 0-1.553 2.545 6.35 6.35 0 0 0-.251 2.724 4.36 4.36 0 0 1-.09-2.91 4.349 4.349 0 0 1 1.894-2.359M42.9 54.411a6.339 6.339 0 0 0-1.554 2.544 6.353 6.353 0 0 0-.251 2.724 4.36 4.36 0 0 1-.09-2.909 4.348 4.348 0 0 1 1.894-2.359M44.8 55.272a6.34 6.34 0 0 0-1.553 2.544 6.35 6.35 0 0 0-.25 2.724 4.36 4.36 0 0 1-.09-2.909 4.349 4.349 0 0 1 1.894-2.36M74.209 52.417a6.34 6.34 0 0 1 1.553 2.545 6.35 6.35 0 0 1 .25 2.724 4.359 4.359 0 0 0 .09-2.91 4.349 4.349 0 0 0-1.893-2.359M72.573 53.395a6.34 6.34 0 0 1 1.553 2.544 6.35 6.35 0 0 1 .251 2.724 4.359 4.359 0 0 0 .09-2.908 4.35 4.35 0 0 0-1.894-2.36M70.737 54.324a6.345 6.345 0 0 1 1.553 2.544 6.356 6.356 0 0 1 .25 2.724 4.36 4.36 0 0 0 .09-2.909 4.35 4.35 0 0 0-1.893-2.36M68.835 55.185a6.34 6.34 0 0 1 1.554 2.544 6.352 6.352 0 0 1 .25 2.724 4.359 4.359 0 0 0 .09-2.91 4.349 4.349 0 0 0-1.894-2.358" fill="#180E21"/>
                        <g transform="translate(44.654 67.14)">
                            <use fill="#E0DCE2" xlink:href="#fgypn4zzdK"/>
                        </g>
                    </g>
                </g>
                <g>
                    <path d="M35.998 15.457a.42.42 0 0 1 .438.404l.48 12.105a.42.42 0 0 1-.403.437 4.413 4.413 0 0 1-4.586-4.234l-.164-4.128a4.413 4.413 0 0 1 4.235-4.584M76.482 26.817a.42.42 0 0 1-.437-.404l-.48-12.105a.42.42 0 0 1 .403-.437 4.413 4.413 0 0 1 4.586 4.234l.164 4.128a4.413 4.413 0 0 1-4.236 4.584" fill="#FFF"/>
                    <path d="M80.718 22.233a4.415 4.415 0 0 1-4.236 4.585.422.422 0 0 1-.437-.405l-.129-3.218c.071.144.222.24.393.234l.287-.012a4.41 4.41 0 0 0 4.045-3.12l.077 1.936z" fill="#C2BAC6"/>
                    <path d="M76.148 13.956c-.059 0-.117.002-.176.004a.33.33 0 0 0-.319.345l.48 12.105a.335.335 0 0 0 .345.319 4.33 4.33 0 0 0 4.151-4.492l-.164-4.128a4.295 4.295 0 0 0-1.387-3.005 4.296 4.296 0 0 0-2.93-1.148zm.317 12.95a.506.506 0 0 1-.508-.49l-.481-12.104a.506.506 0 0 1 .489-.529 4.475 4.475 0 0 1 3.233 1.19 4.47 4.47 0 0 1 1.444 3.129l.164 4.127a4.507 4.507 0 0 1-4.34 4.677z" stroke="#220F2D" stroke-width=".5" fill="#371A45"/>
                    <path d="m36.784 24.608.133 3.358a.422.422 0 0 1-.405.437 4.406 4.406 0 0 1-3.293-1.286 4.396 4.396 0 0 1-1.291-2.947l-.07-1.74a4.416 4.416 0 0 0 4.121 2.43l.442-.017a.426.426 0 0 0 .363-.235" fill="#C2BAC6"/>
                    <path d="M36.002 15.546a4.33 4.33 0 0 0-4.15 4.492l.164 4.127a4.295 4.295 0 0 0 1.387 3.005 4.289 4.289 0 0 0 3.106 1.144.33.33 0 0 0 .319-.345l-.481-12.105a.33.33 0 0 0-.345-.319m.331 12.95a4.471 4.471 0 0 1-3.05-1.195 4.47 4.47 0 0 1-1.444-3.127l-.164-4.128a4.507 4.507 0 0 1 4.32-4.676.505.505 0 0 1 .529.489l.48 12.104a.506.506 0 0 1-.488.53 4.563 4.563 0 0 1-.183.003" stroke="#220F2D" stroke-width=".5" fill="#371A45"/>
                    <path d="M56.26 42.335a20.996 20.996 0 0 1-15.43-6.676 21.042 21.042 0 0 1-5.721-15.154 21.038 21.038 0 0 1 6.658-14.766A20.996 20.996 0 0 1 56.905.01a20.997 20.997 0 0 1 14.75 6.666 21.042 21.042 0 0 1 5.722 15.154 21.038 21.038 0 0 1-6.658 14.766c-3.951 3.716-9.063 5.74-14.459 5.74" fill="#220F2D"/>
                    <path d="M76.884 21.783c-.357 11.396-9.888 20.345-21.288 19.988-11.4-.357-20.351-9.885-19.994-21.28C35.959 9.095 45.49.146 56.89.503c11.4.357 20.351 9.885 19.994 21.28" fill="#FFF"/>
                    <path d="M76.776 18.921c.102.937.139 1.893.109 2.863-.36 11.395-9.89 20.344-21.289 19.988-11.4-.359-20.351-9.886-19.995-21.281.01-.328.028-.656.054-.978C36.73 29.6 45.11 37.604 55.54 37.93c11.072.346 20.379-8.085 21.235-19.01" fill="#FFF"/>
                    <path d="M76.802 22.311c-.066 4.04-1.438 7.768-3.732 10.835-1.72 2.298-8.699 6.257-17.237 6.196-7.916-.057-15.05-4.393-16.694-6.746-2.193-3.14-3.444-6.91-3.378-10.95.173-10.689 9.432-14.971 20.765-14.787 11.334.183 20.449 4.763 20.276 15.452" stroke="#220F2D" stroke-width=".5" fill="#C2BAC6"/>
                    <path d="M62.774 5.534a29.982 29.982 0 0 0-2.177-.377 33.332 33.332 0 0 0-2.774-.262 36.24 36.24 0 0 0-.878-.036h-.017l-.474-.011c-8.62-.14-15.688 2.79-19.39 8.04l.012-.018-.016-.017a.493.493 0 0 1 .003-.596c3.703-5.25 10.771-8.18 19.391-8.041 8.569.139 15.541 3.201 19.132 8.402.13.179.127.429-.02.605l-.183-.26c-.065-.089-.13-.177-.197-.264a15.713 15.713 0 0 0-1.784-1.976 17.298 17.298 0 0 0-1.748-1.438 18.39 18.39 0 0 0-.41-.287l-.019-.013a19.035 19.035 0 0 0-1.263-.79 20.955 20.955 0 0 0-1.011-.543l-.018-.01a22.032 22.032 0 0 0-1.411-.648l-.017-.007a25.352 25.352 0 0 0-3.452-1.154l-.037-.01-.424-.105c-.27-.065-.542-.126-.818-.184z" fill="#220F2D"/>
                    <g transform="translate(37.221 8.242)">
                        <mask id="uc4nt8zy3M" fill="#fff">
                            <use xlink:href="#oedi7sh4lL"/>
                        </mask>
                        <use fill="#371A45" opacity=".9" xlink:href="#oedi7sh4lL"/>
                        <g opacity=".85" mask="url(#uc4nt8zy3M)">
                            <g transform="translate(-.22 -3.813)">
                                <mask id="7vbrlmmepO" fill="#fff">
                                    <use xlink:href="#n5ty7jsc9N"/>
                                </mask>
                                <path d="M38.718 51.141c.41-6.01-2.016-12.397-3.04-14.48-1.026-2.084-.377-3.484-.035-3.962.342-.478 1.298-2.732 1.981-5.67.684-2.937-.238-6.284-1.81-8.674-1.572-2.39-2.75-5.043-4.168-7.104-1.29-1.874-2.63-4.85-5.125-6.523-1.096-.735-2.628-1.208-4.309-1.427a9.093 9.093 0 0 1 1.556-.713 15 15 0 0 1 1.604-.422s-1.68-.022-2.936.173c-1.257.195-2.383.682-2.383.682s.682-.563 1.462-.985c.78-.423 2.07-.986 2.07-.986s-1.756.26-3.088.715c-1.333.455-2.47 1.31-2.47 1.31s.607-.942.953-1.57C19.327.877 19.63 0 19.63 0s-1.213 1.397-2.188 2.22a44.44 44.44 0 0 1-1.947 1.53c-3.676 1.046-4.168 3.34-5.885 6.1-1.743 2.801-4.203 5.67-6.628 9.46-2.426 3.792-.765 10.081-.308 11.169 2.426 5.772 1.128 5.72-.17 10.45-1.308 4.764-.806 10.28-.806 10.28-4.798 6.763 1.83 10.861 4.427 11.68 2.596.82 5.568.24 5.568.24 9.123 3.483 17.561.034 17.561.034 1.036.172 2.46.205 3.509.2a5.86 5.86 0 0 0 2.884-.777c7.97-4.559 3.07-11.445 3.07-11.445" fill="#FFF" mask="url(#7vbrlmmepO)"/>
                            </g>
                            <path d="M12.072 2.763s-1.187-1.043-1.631-1.38C9.997 1.045 9.135.239 8.424.319c-.71.08-2.066.536-1.93 2.058.135 1.522.791 2.381 1.809 2.77 1.019.39 1.795.33 1.795.33l1.974-2.714z" fill="#FD6A01"/>
                            <path d="M9.756 5.706s-4.205-.047-3.604-3.505C6.67-.789 8.682-.231 9.518.308c.689.443 2.56 2.103 2.56 2.103l-.38.497S9.479.922 9.074.745C8.42.46 8.007.717 7.51 1.254c-.426.46-.923 2.075.35 2.939 1.2.815 2.181.927 2.181.927l-.285.586z" fill="#6C3413"/>
                            <path d="M11.02 3.346S8.58 1.038 7.956.845c-.624-.193-.574.051-.574.051l-.137.317s2.854 1.546 3.577 2.536l.378-.24-.18-.163z" fill="#6C3413"/>
                            <path d="M27.514 2.631s1.016-1.144 1.4-1.52C29.3.736 30.035-.143 30.7-.126c.666.016 1.964.35 1.964 1.878s-.538 2.442-1.452 2.92c-.914.478-1.64.487-1.64.487L27.514 2.63z" fill="#FD6A01"/>
                            <path d="M29.909 5.357s3.902-.42 3.058-3.811c-.73-2.932-2.551-2.197-3.283-1.587C29.08.462 27.48 2.28 27.48 2.28l.393.461S29.77.567 30.133.355c.584-.343.988-.123 1.493.368.434.42 1.03 1.985-.08 2.958-1.048.919-1.95 1.117-1.95 1.117l.313.559z" fill="#6C3413"/>
                            <path d="M28.539 3.118S30.616.602 31.179.356c.563-.248.537 0 .537 0l.154.303s-2.524 1.793-3.113 2.843l-.372-.205.154-.179z" fill="#6C3413"/>
                            <path d="M37.192 45.075s-1.937 3.435-2.497 4.407c-1.362 1.05-2.605 1.495-4.852 2.64-2.247 1.144-5.471 1.749-5.471 1.749l.833-.622s.422-.412.214-.5c-.208-.087-.94.398-2.59.622-1.651.224-3.2-.166-3.2-.166-.146.16.67.566.67.566s-1.699.019-4.459-.562c-2.76-.58-7.032-2.064-9.37-3.625-2.338-1.56-4.02-3.912-4.02-3.912s.017 2.04.139 3.132c.113 1.004.948 1.459.948 1.459l-.3-1.086s.783.822 1.287 1.24c.503.42 1.51 1.228 1.51 1.228l-.198-.675s1.356.756 2.01 1.13c.739.424 2.079 1.16 3.162 1.525 1.109.373 2.665.847 2.665.847l-4.562-.504 3.361 1.605s5.597 1.914 11.627 1.705c4.88-.663 7.296-1.611 7.682-2.106.464.937 2.015-1.444 2.015-1.444s.715-1.094 1.47-1.921c.756-.827.606-2.16.606-2.16s.481-.711.452-1.357c-.005-.114.362-.917.34-1.065-.225-.532.528-2.15.528-2.15" fill="#DDEBEC"/>
                            <path d="m5.18 48.27.325 1.288-.822-1.358s.085 1.285.336 1.748c.182.334.433 1.005.895 1.355.446.543 1.575 1.35 1.575 1.35l-.381-.71s1.17 1.036 1.818 1.405c.647.369 2.152.803 3.163 1.267 1.01.464 2.197 1.525 2.197 1.525l-.046-.014.026.01s1.558.569 4.596.861c2.437.235 5.292.126 7.173-.659 2.157-.902 4.04-2.334 4.04-2.334s-1.454.785-3.595 1.496c-2.14.71-3.945.604-3.945.604s.295-.2.68-.531c.387-.332 1.156-1.191 1.156-1.191s-2.434 1.213-3.264 1.325c-.83.113-2.987.065-5.553-.584-2.566-.65-5.552-2.054-7.54-3.666-1.99-1.612-2.835-3.187-2.835-3.187" fill="#CBD9DA"/>
                            <path d="M37.703 52.007c-.4 2.775-3.623 2.248-3.809 1.495-.269-1.09.901-1.068 1.653-3.048.647-1.706 1.72-1.153 1.985-.564.268.596.23 1.706.171 2.117m-31.85 1.708c-.136.764-3.963 1.69-4.458-1.708-.06-.41-.097-1.52.17-2.117.266-.59 1.54-1.227 2.188.478.751 1.98 2.28 2.338 2.1 3.347m32.56-5.977c-.29-.46-.387-.64-.163-.948.224-.307-.288-3.739-.288-3.739S35.3 56.843 20.972 56.908c-15.084.068-19.223-12.41-19.223-12.41l.052 2.882L.9 49.036s-2.187 3.654.452 6.608c4.794 5.368 9.916 3.28 9.916 3.28s0-.189 1.47.255c1.469.444 5.652 1.385 7.806 1.308 3.622-.13 8.405-1.41 8.405-1.41 1.83.011 2.952.571 5.227-.086 2.275-.656 5.108-3.449 5.466-5.942.36-2.493-.94-4.85-1.23-5.31" fill="#FD6A01"/>
                            <path d="M1.71 55.845s-1.801.543-2.835 1.533a7.666 7.666 0 0 0-1.657 2.365c-.239.538-.299 1.767 1.563.999 0 0 .136.39 1.06.35 1.793-.076 3.068-.562 4.108-.828 1.734-.444 3.886-1.179 3.886-1.179s-4.305-.345-6.124-3.24" fill="#FFB494"/>
                            <path d="M1.77 55.56s-3.083.896-4.483 3.312c-1.192 2.055-.333 2.988 1.255 2.22 0 0-.041.419 1.666.222 1.9-.22 1.993-.381 3.72-.812 1.774-.442 5.585-1.04 5.957-1.173.581-.21-2.357-.252-2.357-.252s-2.102.512-3.297.785c-1.196.274-2.503.692-3.314.752-.682.05-1.205.077-1.597-.026-.393-.102.315-1.842 1.511-2.292 0 0-1.93.166-2.323 2.13 0 0-.93.568-1.025-.068-.11-.752 1.34-2.929 3.365-3.98 1.072-.555 1.115-.524 1.115-.524l-.192-.295z" fill="#7F3C12"/>
                            <path d="M38.608 55.674s1.937.713 2.97 1.704a7.668 7.668 0 0 1 1.658 2.365c.239.538.298 1.767-1.564.999 0 0-.135.389-1.059.35-1.793-.076-3.068-.562-4.108-.828-1.734-.444-3.648-1.019-3.648-1.019s3.932-.676 5.751-3.57" fill="#FFB494"/>
                            <path d="M38.683 55.56s3.084.896 4.484 3.312c1.192 2.055.334 2.988-1.255 2.22 0 0 .041.419-1.666.222-1.9-.22-1.993-.381-3.72-.812-1.774-.442-5.585-1.04-5.957-1.173-.581-.21 2.357-.252 2.357-.252s2.102.512 3.298.785c1.195.274 2.502.692 3.313.752.682.05 1.205.077 1.597-.026.394-.102-.316-1.842-1.511-2.292 0 0 1.93.166 2.323 2.13 0 0 .93.568 1.025-.068.11-.752-1.341-2.929-3.365-3.98-1.071-.555-1.115-.524-1.115-.524l.192-.295z" fill="#7F3C12"/>
                            <path d="M35.208 14.517s.794 5.012-6.136 4.712c-8.291-.358-13.07-13.313-6.03-19.307 0 0 2.786-.085 5.447 3.35 2.773 3.579 5.703 9.11 6.719 11.245" fill="#FD6A01"/>
                            <path d="M3.596 14.49s-.999 5.31 5.1 4.739C16.253 18.52 21.493 5.63 15.2.275c0 0-2.22-.364-4.387 3.64C8.644 7.919 4.61 12.359 3.596 14.49" fill="#FD6A01"/>
                            <path d="M22.554 6.082s-.52.007-.308-.48c.212-.488.742-.258.742-.258s1.64.382 2.243 1.63c0 0 .04.135-.11.149-.15.013-1.196-.9-2.567-1.041M14.477 6.005s.52.007.309-.48c-.213-.488-.742-.258-.742-.258s-1.64.382-2.244 1.63c0 0-.04.135.11.149.15.014 1.196-.9 2.567-1.041" fill="#742E04"/>
                            <path d="M18.716 18.775c1.046.001 2.571-1.183 2.615-2.064.012-.235-.428-.34-.626-.169-.338.292-.998 1.125-1.96 1.108-.895-.015-1.79-.636-2.155-1.04-.186-.208-.576.005-.492.278.268.875 2.24 1.85 2.618 1.887" fill="#E53C4D"/>
                            <path d="M22.59 23.327s-.073 1.722-1.026 3.469c-.485.89-1.49 2.1-2.486 2.1-.914 0-2.027-.597-2.828-2.171-.746-1.466-1.347-3.302-1.368-3.508-.021-.203.982.619 2.544-.052.944-.405 1.71-1.381 1.707-1.623-.002-.242 1.49 2.177 3.457 1.785" fill="#FFBEBE"/>
                            <g transform="translate(14.881 21.525)">
                                <mask id="vnu5vopeeQ" fill="#fff">
                                    <use xlink:href="#fcv5c5jdpP"/>
                                </mask>
                                <path d="M5.635 5.496c-1.086-.575-2.697-.631-3.78.367-.51.47-.27 1.354.399 1.501.949.209 2.32.333 3.497-.243.688-.337.564-1.265-.116-1.625" fill="#E53C4D" mask="url(#vnu5vopeeQ)"/>
                            </g>
                            <g>
                                <path d="M22.59 23.327s-.073 1.722-1.026 3.469c-.485.89-1.49 2.1-2.486 2.1-.914 0-2.027-.597-2.828-2.171-.746-1.466-1.347-3.302-1.368-3.508-.021-.203.982.619 2.544-.052.944-.405 1.71-1.381 1.707-1.623-.002-.242 1.49 2.177 3.457 1.785z" stroke="#642D0E" stroke-width=".612"/>
                                <path d="M17.35 23.21s.052 1.377.97 2.17h1.505s.773-.417.982-2.234c0 0-.339-.431-.59-.577-.25-.147-.81-1.044-1.02-1.044-.2 0-1.041 1.215-1.041 1.215l-.807.47z" fill="#FFF"/>
                                <path d="M17.35 23.21s.052 1.377.97 2.17h1.505s.773-.417.982-2.234c0 0-.339-.431-.59-.577-.25-.147-.81-1.044-1.02-1.044-.2 0-1.041 1.215-1.041 1.215l-.807.47z" stroke="#642D0E" stroke-width=".612"/>
                                <path d="m18.89 21.756.01.255s.073 1.132.093 1.761c.021.72-.02 1.572-.02 1.572s.32-.672.391-1.62c.085-1.128.02-1.752.02-1.752l-.053-.235-.442.02z" fill="#642D0E"/>
                                <path d="M22.365 23.697c-1.68.05-2.695-1.115-3.18-1.842-1.116 1.918-2.754 2.185-3.988 1.75-1.486-.523-2.726-2.217-2.23-4.145a.36.36 0 0 1 .441-.256c.194.05.107.344.077.54-.235 1.517.675 2.823 1.85 3.237 1.36.48 2.764-.295 3.574-1.855.065-.126.124-.22.27-.219.145.002.325.259.381.391.036.082 1.014 1.759 2.75 1.706.72-.022 1.411-.343 1.774-.75.524-.587.538-1.6.564-2.898.004-.199.098-.41.298-.425a.3.3 0 0 1 .307.241c.165 1.41-.107 2.826-.766 3.567-.495.555-1.206.93-2.122.958" fill="#642D0E"/>
                                <path d="M35.797 57.933c-.854.543-1.589.928-3.267 1.114-.987.11-2.178-.097-3.086-.252.292-.176 1.017-.619 1.222-.82 1.383-1.357.45-.652-.058-.343-.153.093-.681.463-1.083.665-.656.328-.685.322-1.383.545-.564.18-1.2.33-1.865.576-1.186.18-2.501.632-4.131.724-.072 0-.484.068-.558.07-6.841.24-10.635-2.074-11.379-2.587-.743-.512-.948-.674-.64-.008.172.372.814.977 1.059 1.17-.107.023-2.564.642-5.04-.282-2.725-1.017-8.075-5.025-3.68-10.997 0 0-.531-5.755.776-10.52 1.299-4.73 2.563-4.55.137-10.322-.457-1.087-2.11-7.146.3-11.134 2.326-3.852 5.017-6.817 6.76-9.618 1.742-2.8 2.228-4.881 6.077-5.818 3.297-.803 7.559-.598 10.053 1.075 2.494 1.674 3.467 4.154 4.757 6.028 1.419 2.06 2.58 4.688 4.151 7.147 1.589 2.484 2.656 5.772 1.973 8.708-.683 2.938-1.49 4.819-1.973 5.67-.29.511-1.025 1.92 0 4.004 1.025 2.084 3.716 8.3 3.075 14.754 0 0 4.482 6.208-2.197 10.45m2.7-10.604c.411-6.01-2.141-12.34-3.04-14.48-.959-2.284-.375-3.484-.034-3.962.342-.478 1.298-2.732 1.982-5.67.683-2.936-.24-6.283-1.811-8.674-1.572-2.39-2.75-5.043-4.169-7.104-1.29-1.874-2.63-4.85-5.124-6.523A6.607 6.607 0 0 0 25.568.5l.002-.003-.057-.025C24.52-.01 23.29-.36 21.983-.53a9.827 9.827 0 0 1 1.572-.695c.823-.27 1.604-.422 1.604-.422s-1.68-.022-2.936.173c-1.257.195-2.384.683-2.384.683s.683-.564 1.463-.986c.78-.422 2.07-.985 2.07-.985s-1.756.26-3.088.714C18.95-1.593 17.95-.87 17.95-.87s.47-.808.817-1.437c.347-.628.65-1.505.65-1.505s-1.214 1.397-2.189 2.22a44.433 44.433 0 0 1-1.942 1.527C11.6.979 11.108 3.275 9.39 6.038c-1.742 2.8-4.202 5.67-6.628 9.46-2.425 3.791-.764 10.08-.307 11.168 2.426 5.772 1.128 5.72-.17 10.45-1.308 4.765-.807 10.28-.807 10.28-4.797 6.763 1.831 10.861 4.428 11.681 2.596.82 5.568.239 5.568.239 9.123 3.484 17.561.034 17.561.034 1.036.173 2.46.206 3.509.2a5.86 5.86 0 0 0 2.884-.776c7.97-4.56 3.07-11.446 3.07-11.446" fill="#642D0E"/>
                                <path d="M15.483.357c-.097-.032.613.327.967.25.31-.066.589-.132.655-.191 0 0 .794-.295 1.133-.32.752-.06 1.646.07 1.646.07l.73.066s-.335-.079.443.216c.983.025.5-.182.596-.182.358.278.397.099.397.099l.18-.174-.026-.063s.326-.084.153-.206c-.907-.19-1.063-.21-1.063-.21s.498-.555 1.16-.807c.622-.238.77-.248.77-.248s.302-.068-.959.136c-1.256.196-2.932.807-2.932.807s.084-.474.776-.96c.935-.653 1.422-.799 1.422-.799s-.598.092-1.298.342C18.969-1.237 17.15-.09 17.15-.09s.645-.987.991-1.615l.441-.797s-.126.275-1.1 1.098c-.976.823-1.97 1.657-1.97 1.657l-.055.052.025.051zM3.402 15.19l-.658.59s-.811 1.221-.973 1.392c-.162.17-.889 1.434-.889 1.434s.274-.23.47-.358c.196-.129.982-1.042.982-1.042l-.982 1.477s-.606 1.46-.623 1.81c-.017.35 0 .615 0 .615s.435-.956.675-1.238c.238-.282.58-.7.58-.7s-.555 1.358-.606 1.712c-.051.354-.342 1.686-.359 1.934-.017.247.094.247.094.247s.222-.393.299-.649c.077-.256.214-.589.214-.589s-.222 1.904-.18 2.459c.043.555.282 1.4.307 1.614.026.213.163.273.163.273l.23-1.417s.077 1.16.129 1.596c.051.436.196.973.256 1.119.06.145.299.52.299.52l-.077-.7.794 1.651.769.339s.282-3.654.256-3.68c-.025-.026-1.17-10.408-1.17-10.408" fill="#FFF"/>
                                <path d="M9.39 6.038s.259-.14-1.29 2.024c-1.162 1.622-2.725 3.682-3.443 4.717-.816 1.177-1.239 1.887-2.596 3.795-1.227 1.535-1.855 3.01-1.855 3.01l-.264.884.497-.778s.454-.707.868-1.186c.021-.025.033-.036.054-.06-.12.245-.251.525-.392.867a8.661 8.661 0 0 0-.585 2.32l-.07.855.319-.796s.304-.755.676-1.4c.108-.188.22-.35.325-.493a15.747 15.747 0 0 0-.573 1.9C.8 22.876.868 23.9.868 23.9l.06.905.195-.885s.143-.637.33-1.282c-.038.315-.07.677-.093 1.082-.09 1.636.458 2.79.458 2.79l.194.41.051-.45.069-.637c.007.131.008.254.021.389a6.21 6.21 0 0 0 .693 2.257l.333.58-.064-.716c.103.228.18.528.325.913l.066.2.307-.123-.15-.51a19.33 19.33 0 0 1-.714-2.25l-.257.866a5.428 5.428 0 0 1-.281-1.241 31.617 31.617 0 0 1-.127-2.359s-.263.569-.337 1.295c-.042.402-.053.492-.08.733a6.154 6.154 0 0 1-.249-2.133c.088-1.592.218-2.536.218-2.536s-.409.601-.612 1.291c-.023.077-.036.137-.057.214.029-.293.07-.607.147-.949.253-1.14.82-2.558.82-2.558l.223-.56-.434.419s-.45.434-.838 1.107c-.094.162-.182.33-.263.491.085-.37.2-.79.386-1.242.481-1.168.88-1.738.88-1.738l.729-1.047-.925.88s-.047.047-.327.357c-.068.078-.335.401-.402.487.253-.505.51-.947 1.04-1.608a20.89 20.89 0 0 0 1.177-1.68l.032-.05c.57-.902.974-1.647 1.502-2.287.626-.984 2.246-3.117 3.51-4.765a5.4 5.4 0 0 0 1.017-1.665c.162-.324.05-.231-.052-.256" fill="#642D0E"/>
                                <path d="M33.907 29.936s.74-.218.998-.82c.257-.601.562-1.05.562-1.05l.182.602s.128-.14.282-.602c.154-.46.525-1.242.525-1.754s.09-.154.09-.154l.077.884s.205-.116.256-.256c.052-.141.295-.692.346-1.243.052-.55.128-1.325.141-1.757.013-.433.039-.702.039-.702s.307.513.333.769c.025.256.09.333.09.333s.076-.525.05-1.217c-.025-.691-.281-1.575-.294-1.819-.013-.243-.154-.722-.154-.722s.385.327.628.89c.244.563.423.716.423.716s.051-.66-.128-1.22c-.18-.56-.577-1.687-.577-1.687l.308.051s-.09-.118-.141-.403c-.051-.285-.67-.957-1.09-1.308-.422-.35-.268-1.222-1.153-.325-.883.897-.589 3.035-.589 3.035l-1.204 9.759z" fill="#FFF"/>
                                <path d="M15.64 11.079c-.028 1.522-1.323 2.732-2.891 2.702-1.568-.03-2.816-1.288-2.787-2.81.03-1.522 1.324-2.732 2.892-2.702 1.568.03 2.816 1.288 2.787 2.81" fill="#642D0E"/>
                                <path d="M14.795 9.913c0 .614-.524 1.112-1.171 1.112-.646 0-1.17-.498-1.17-1.112 0-.613.524-1.111 1.17-1.111.647 0 1.17.498 1.17 1.111" fill="#FFF"/>
                                <path d="M15.07 29.036s1.85 1.267 3.942 1.36c2.462.108 4.46-1.36 4.46-1.36s-1.346 2.026-3.848 2.257c-2.502.23-3.97-1.373-4.555-2.257" fill="#DDEBEC"/>
                                <path d="M19.22 31.452c1.133 0 2.386-.485 3.131-1.248-1.106.515-1.88.955-3.132.938-1.117-.016-2.114-.349-3.132-.938 1.084.9 1.972 1.248 3.132 1.248" fill="#44190C"/>
                                <path d="M30.85 6.704s.724 1.036 1.178 1.772c1.005 1.627 2.065 3.82 2.712 4.9.718 1.201 1.242 2.06 2.362 4.052a.83.83 0 0 0 .088.127c.963 1.139 1.582 2.439 1.792 2.916.053.12.054.146.1.38l.084.786-.348-.896s-.374-.752-.735-1.272l-.048-.065c.094.256.154.468.258.825.363 1.244.373 2.448.373 2.448l-.021.857-.232-.825s-.222-.783-.523-1.464a5.13 5.13 0 0 0-.27-.526c.131.54.286 1.241.366 1.951.135 1.2-.043 2.21-.043 2.21l-.156.893-.1-.901s-.074-.648-.19-1.31c.003.318-.003.681-.024 1.087-.085 1.635-.753 2.725-.753 2.725l-.238.387-.002-.454v-.64c-.022.13-.036.252-.063.385a6.922 6.922 0 0 1-.85 2.158l-.388.547.128-.676c-.127.216-.192.266-.302.66l-.1.377-.44-.142.083-.41a1.19 1.19 0 0 1 .051-.162c.566-1.096.989-2.088.989-2.088l.163.889A5.42 5.42 0 0 0 36.163 27c.245-1.194.379-2.331.379-2.331s.2.593.197 1.323c-.002.404 0 .495 0 .737.19-.449.427-1.157.475-2.094.083-1.593.055-2.545.055-2.545s.342.641.47 1.349c.015.08.021.14.035.218a7.851 7.851 0 0 0-.045-.958c-.13-1.162-.542-2.632-.542-2.632l-.163-.58.387.462s.402.48.716 1.191c.076.171.146.348.209.517-.046-.377-.205-.912-.342-1.381-.254-.871-.486-1.317-.64-1.548a2.095 2.095 0 0 0-.172-.218l-.751-.817.941.776c.043.04.08.061.358.324.1.126.147.2.204.291-.25-.549-.604-.651-1.059-1.366-.411-.663-.572-.56-.898-1.414-.07-.182-.285-.899-.293-.917-.47-.956-.783-1.202-1.239-1.895-.518-1.045-1.682-3.166-2.763-4.94a11.786 11.786 0 0 1-.995-1.63c-.127-.34.058-.204.162-.218M21.613 10.908c.03 1.522 1.324 2.732 2.892 2.702 1.568-.03 2.816-1.288 2.787-2.81-.03-1.522-1.324-2.732-2.892-2.702-1.568.03-2.816 1.288-2.787 2.81" fill="#642D0E"/>
                                <path d="M22.46 9.743c0 .613.523 1.111 1.17 1.111.646 0 1.17-.498 1.17-1.111 0-.614-.524-1.112-1.17-1.112-.647 0-1.17.498-1.17 1.112M38.158 24.087s.048-.738.88-1.537c.83-.799 1.89-1.448 2.094-1.72.205-.274.65-1.896.77-2.528.119-.632 1.776-3.672 3.518-3.655l.137.361s-.65 1.72-.769 1.977c-.12.258-.154.719-.154.719s2.75-1.694 4.408-.556v.296s-1.726.379-2.563.687c-.837.307-.615.803-.615.803l.581.324s.871.394 1.196.658c.324.264.923.829 1.008 1.204.085.375.034.688-.24.677-.273-.012-1.845-.114-2.545.313s-1.144.7-1.469 1.417c-.324.717-.717 3.04-1.093 4.252-.376 1.212-1.179 3.176-1.503 3.586-.325.41-1.674 2.177-1.777 2.344-.102.166-.427 1.088-.427 1.088l-.408-.491s-.583 1.465-.873 2.216c-.29.752-.99 3.586-.99 3.586l-3.759-1.81 2.029-13.772 2.564-.439z" fill="#FFF"/>
                                <path d="M36.461 25.92c-.081.15-.143.294-.175.427 0 0 .057-.16.175-.427M38.893 34.926c-.427.571-1.055 2.69-.87 2.348.655-1.21.504-1.238.62-1.328.13-.102.058-.122.102-.18.055-.072.09-.197.148-.26l.078-.107.01-.094c-.263.082.012-.174-.048-.134-.057.039.103-.07.16-.128 0 0 .043-.049.207-.248.019-.044.248-.32.282-.36.066-.08.197-.423.197-.423l.14-.137.103-.166s.176-.13.268-.226c.231-.244.414-.41.414-.41l.22-.173.675-.82c.776-1.03 1.55-2.845 2.142-4.566.423-1.228.57-2.66.747-3.64.02-.046.04-.094.062-.131.311-.57 1.045-1.333 1.866-1.568.822-.236 1.832-.13 1.832-.13s1.214.247.471-1.253c-.743-1.498-2.553-1.84-2.553-1.84 1.831-1.224 3.36-1.315 3.36-1.315-.605-2.599-4.596-.399-4.596-.399s.176-.459.852-1.993c.813-1.849-1.748-.368-1.748-.368-2.456 1.79-3.028 5.665-3.028 5.665-2.47 1.828-3.233 3.056-2.979 3.67 1.463-2.291 3.204-3.03 3.43-3.392.245-.391.223-1.48 1.166-3.51.733-1.578 2.6-2.302 2.6-2.302s-1.729 3.78-.486 3.02c2.341-1.43 3.92-.806 3.92-.806-1.845.358-3.338 1.459-3.203 1.712.136.252.504.458 1.268.734.99.357 2.265 1.852 1.448 1.87-1.347.03-1.774-.21-3.036.679-1.947 1.37-1.025 3.509-2.66 7.065-.63 1.368-.656 1.604-2.663 4.14M33.724 33.494c.81.792 1.45 1.224 1.45 1.224l.568.4" fill="#642D0E"/>
                                <path d="M37.9 40.419s-.096-2.112 1.4-5.624l.022 1.256s.703-2.266 1.602-3.151l-.476-.289-.996 1.484-.083-.736s-1.555 3.112-1.85 6.435l.381.625z" fill="#642D0E"/>
                                <path d="M.832 24.087s-.047-.738-.878-1.537c-.831-.799-1.89-1.448-2.095-1.72-.205-.274-.65-1.896-.77-2.528-.119-.632-1.776-3.672-3.518-3.655l-.137.361s.65 1.72.769 1.977c.12.258.154.719.154.719s-2.75-1.694-4.408-.556v.296s1.726.379 2.563.687c.837.307.615.803.615.803l-.581.324s-.871.394-1.196.658c-.324.264-.923.829-1.008 1.204-.085.375-.034.688.24.677.273-.012 1.844-.114 2.545.313.7.427 1.144.7 1.469 1.417.324.717.717 3.04 1.093 4.252.376 1.212 1.179 3.176 1.503 3.586.325.41 1.674 2.177 1.777 2.344.102.166.427 1.088.427 1.088l.408-.491s.583 1.465.873 2.216c.29.752 1.214 3.376 1.214 3.376l3.535-1.6-2.029-13.772-2.565-.439z" fill="#FFF"/>
                                <path d="M2.53 25.92c.081.15.143.294.175.427 0 0-.056-.16-.175-.427" fill="#642D0E"/>
                                <g transform="translate(-10.535 14.316)">
                                    <mask id="68wod2vtbS" fill="#fff">
                                        <use xlink:href="#r6hzym9kzR"/>
                                    </mask>
                                    <path d="M10.632 20.61c.428.572 1.055 2.69.87 2.348-.654-1.21-.504-1.238-.619-1.328-.13-.101-.058-.121-.103-.18-.055-.072-.09-.197-.148-.26l-.078-.106-.008-.094c.262.082-.013-.175.047-.135.057.039-.103-.07-.16-.128 0 0-.043-.048-.207-.248-.019-.044-.249-.319-.282-.36-.066-.08-.197-.423-.197-.423l-.14-.136-.103-.167s-.177-.13-.268-.226c-.232-.243-.414-.409-.414-.409l-.22-.174-.675-.819c-.776-1.031-1.55-2.846-2.142-4.567-.423-1.228-.571-2.66-.747-3.64-.02-.046-.041-.093-.062-.131-.312-.57-1.046-1.333-1.867-1.568-.82-.236-1.832-.13-1.832-.13s-1.213.247-.47-1.252C1.55 4.978 3.36 4.636 3.36 4.636 1.529 3.412 0 3.32 0 3.32c.605-2.598 4.596-.398 4.596-.398s-.176-.46-.852-1.994C2.931-.919 5.492.561 5.492.561 7.948 2.35 8.52 6.226 8.52 6.226c2.47 1.829 3.101 2.932 2.847 3.545-1.462-2.29-3.072-2.905-3.298-3.266-.245-.392-.224-1.481-1.166-3.511-.733-1.578-2.6-2.302-2.6-2.302s1.729 3.78.486 3.02c-2.341-1.43-3.92-.806-3.92-.806 1.845.359 3.338 1.46 3.202 1.712-.135.253-.503.458-1.268.734-.99.357-2.264 1.852-1.448 1.87 1.347.03 1.774-.21 3.037.679 1.947 1.37 1.025 3.509 2.66 7.065.63 1.368.655 1.604 2.662 4.14" fill="#642D0E" mask="url(#68wod2vtbS)"/>
                                </g>
                                <path d="M5.267 33.494c-.81.792-1.451 1.224-1.451 1.224l-.567.4M1.6 40.796s-.386-2.532-1.909-6.001l-.023 1.256s-.703-2.266-1.601-3.151l.476-.289.996 1.484.083-.736S1.507 37.18 1.84 39.92l-.24.875z" fill="#642D0E"/>
                                <path d="m1.642 21.022-.462 1.554-.107 1.079-.268.4-.337 2.234s.22.974.533 1.716c.313.743 1.12 3.202 1.184 3.715.064.512-.051 4.444-.129 4.7-.076.256-.261 3.18-.261 3.18l.261 1.366 2.438-.858 1.29-6.672-2.938-12.217-1.204-.197zM38.052 24.173s-.151-.24-.263-.55c-.041-.113.02-.615-.52-1.533-.045-.076-.977 3.298-1.592 4.357-.615 1.059-1.928 5.607-1.928 6.301 0 .695.69 2.75.839 3.04.15.29 2.712 4.986 2.712 4.986h.307s-.154-.53.017-1.844c.17-1.315.392-2.988.392-2.988l1.59-6.575-1.554-5.194z" fill="#FFF"/>
                                <path d="M31.99 26.036c2.19 2.132 3.478 4.247 3.478 4.247s-1.037-2.3-3.264-4.467c-2.233-2.173-4.912-3.143-4.912-3.143s2.513 1.237 4.698 3.363m-1.275-5.222c-1.948-.006-3.132.329-3.132.329s2.424-.214 5.933.114c3.098.289 6.35 1.416 6.35 1.416s-3.16-1.426-6.321-1.721a31.747 31.747 0 0 0-2.83-.138m2.048-4.057c-2.664.94-5.238 2.894-5.238 2.894s2.734-1.686 5.34-2.605c2.616-.923 5.315-1.48 5.315-1.48s-2.765.255-5.417 1.191" fill="#44190C"/>
                                <path d="M27.308 20.151c-.274-.124-.26.211-.096.268.165.057.265-.191.096-.268M26.849 21.318c-.22.095-.137.328.027.28.165-.048.179-.253-.027-.28M28.068 21.598c-.219-.04-.226.267-.034.288.192.02.15-.247.034-.288" fill="#304E4E"/>
                                <path d="M5.753 26.29c-2.223 2.164-3.258 4.46-3.258 4.46s1.286-2.112 3.472-4.24c2.18-2.123 4.689-3.358 4.689-3.358s-2.674.969-4.903 3.138m1.486-4.993c-.13 0-.263.002-.399.004-.726.012-1.541.05-2.425.133-3.156.295-6.366 1.576-6.31 1.718 0 0 3.246-1.124 6.338-1.413 3.503-.327 5.923-.114 5.923-.114s-1.182-.334-3.127-.328m-2.145-3.761c2.6.917 5.33 2.6 5.33 2.6s-2.57-1.95-5.229-2.889c-2.648-.934-5.407-1.19-5.407-1.19s2.694.557 5.306 1.479" fill="#44190C"/>
                                <path d="M9.896 21.58c-.219.13-.069.411.123.274.192-.136-.02-.314-.123-.273M10.826 20.754c-.22-.007-.226.219-.048.253s.164-.226.048-.253M11.263 21.875c-.191.164-.136.423.069.3.205-.122.082-.341-.069-.3" fill="#304E4E"/>
                            </g>
                            <path d="M35.577 17.882c-.065 4.04-1.439 7.768-3.73 10.835-1.72 2.299-8.7 6.257-17.238 6.197-3.015-.021-5.915-.664-8.443-1.582 10.496-.149 18.999-5.009 21.131-7.86 2.911-3.892 4.653-8.625 4.735-13.75a20.89 20.89 0 0 0-.284-3.876c2.47 2.434 3.898 5.743 3.83 10.036z" fill="url(#hle5ne350T)" opacity=".203" transform="matrix(-1 0 0 1 31.21 -3.813)"/>
                        </g>
                    </g>
                    <g>
                        <path d="M6.18 7.205c1.435.284 2.916-1.09 3.308-3.07C9.88 2.155 9.035.321 7.6.037c-1.435-.284-2.916 1.09-3.308 3.07C3.9 5.086 4.745 6.92 6.18 7.205z" fill="url(#5fqoiwtboU)" transform="matrix(-1 0 0 1 47.464 17.13)"/>
                        <path d="M.107 6.977c-.303.875.06 1.795.81 2.056.751.26 1.606-.238 1.91-1.112.304-.875-.059-1.796-.81-2.056-.75-.261-1.606.237-1.91 1.112" fill="url(#kzhih6prnV)" transform="matrix(-1 0 0 1 47.464 17.13)"/>
                    </g>
                </g>
                <g>
                    <path d="m105.677 27.33-2.042 1.917-8.406 7.791c-7.926 7.312-18.253 11.747-29.06 12.227-1.322 0-2.643.12-4.084.12H55c-4.083 0-7.806 0-11.168-.12A45.438 45.438 0 0 1 14.77 37.038l-4.083-3.715-6.365-5.874L0 23.493 12.009 2.996C13.329.84 15.73-.24 18.253.12c1.201.24 2.522.36 3.723.6 2.882.36 5.764.719 8.646.959 2.402.24 4.684.36 6.965.48 5.765.359 11.289.359 16.692.239H55.6c3.003.12 6.245.12 9.367 0 7.205-.12 14.65-.6 22.336-1.678 1.442-.24 2.883-.36 4.204-.6 2.521-.36 4.923.72 6.244 2.877L110 23.374l-4.323 3.955z" fill="url(#iht62kek8W)" fill-rule="nonzero" transform="translate(0 51.702)"/>
                    <g transform="translate(0 51.702)">
                        <use fill="#000" filter="url(#87nhsrc6mX)" xlink:href="#zex91ks8vY"/>
                        <use fill="#007689" xlink:href="#zex91ks8vY"/>
                        <use fill="#000" filter="url(#kch2531lsZ)" xlink:href="#zex91ks8vY"/>
                    </g>
                    <path d="M16.092 52.9c1.32.24 2.642.36 3.963.6 3.122.36 6.244.719 9.246.958 2.522.24 4.924.36 7.446.48 6.124.36 12.008.36 17.773.24h1.44c3.243.12 6.606.12 10.088 0 7.686-.12 15.611-.6 23.777-1.679 1.441-.24 3.003-.36 4.444-.599.72-.12 1.56-.12 2.281 0-1.32-.959-3.002-1.438-4.683-1.079-1.441.24-2.882.48-4.203.6-7.566 1.078-15.131 1.558-22.336 1.678-3.243.12-6.365.12-9.367 0H54.64c-5.284.12-10.928 0-16.692-.24-2.282-.12-4.684-.24-6.965-.48-2.883-.24-5.765-.599-8.647-.958-1.2-.12-2.522-.36-3.722-.6-1.682-.24-3.363.12-4.684 1.08.72-.12 1.441-.12 2.162 0z" fill="#FFF" fill-rule="nonzero" opacity=".85"/>
                    <path d="m37.828 53.86-.48 36.678-26.42-5.514-6.365-5.873 17.653-26.85c.72.12 1.441.24 2.162.24 1.921.24 3.722.479 5.644.599 2.642.36 5.284.48 7.806.72z" fill="#FFF" fill-rule="nonzero" opacity=".25"/>
                    <path d="M29.902 53.14 27.14 84.425 9.847 80.35S21.376 60.81 25.58 52.9c1.921.12 2.521.12 4.323.24z" fill="#FFF" fill-rule="nonzero" opacity=".85"/>
                    <path d="M110 23.374 95.59 36.679l-1.321 1.198c-2.282 2.158-4.804 4.076-7.566 5.634-5.284 2.997-11.168 4.915-17.172 5.514-.48 0-.961.12-1.441.12-3.843.24-8.166.36-12.97.24-4.803.12-9.127 0-12.97-.24h-.12c-5.403-.24-10.567-1.678-15.37-3.956-3.963-1.798-7.566-4.315-10.808-7.312l-5.524-5.034L.12 23.373c1.441.36 3.363.96 6.004 1.559 6.485 1.678 16.933 3.716 31.223 4.675 4.443.24 9.247.48 14.41.48H55.6c5.044 0 9.607 0 13.93-.24 15.252-.72 26.3-2.877 33.385-4.675 3.242-.72 5.524-1.319 7.085-1.798z" fill="url(#nfxay7aupaa)" fill-rule="nonzero" transform="translate(0 51.702)"/>
                    <path d="M42.03 100.847c-5.403-.24-10.567-1.678-15.37-3.956L6.123 76.634c6.485 1.678 16.933 3.716 31.223 4.675l4.684 19.538z" fill="#FFF" fill-rule="nonzero" opacity=".25"/>
                    <path d="m103.155 25.172-16.332 18.34c-5.284 2.996-11.168 4.914-17.172 5.513l.12-19.179c15.25-.839 26.299-2.996 33.384-4.674z" fill="url(#zku1e2coqab)" fill-rule="nonzero" transform="translate(0 51.702)"/>
                    <path d="m105.677 27.33-2.042 1.917-8.406 7.791c-7.926 7.312-18.253 11.747-29.06 12.227-1.322 0-2.643.12-4.084.12 4.083-4.915 7.205-10.788 8.286-17.5C72.773 15.701 48.275 6.351 30.742 1.677c2.402.24 4.684.36 6.965.48 5.765.359 11.289.359 16.693.239h1.32c3.003.12 6.245.12 9.367 0 7.206-.12 14.651-.6 22.337-1.678 1.44-.24 2.882-.36 4.203-.6 2.521-.36 4.923.72 6.244 2.877L110 23.374l-4.323 3.955z" fill="url(#psouh77f8ac)" fill-rule="nonzero" transform="translate(0 51.702)"/>
                    <path d="M6.245 77.952c6.484 1.678 16.932 3.716 31.222 4.675 4.443.24 9.247.48 14.41.48h3.843c5.044 0 9.608 0 13.93-.24 15.252-.72 26.3-2.877 33.385-4.675 1.921-.48 3.603-.959 4.924-1.318l1.92-1.798c-1.56.36-3.842 1.078-6.964 1.798-7.085 1.678-18.133 3.835-33.384 4.674-4.324.24-9.007.24-13.93.24h-3.843c-5.164 0-9.968-.12-14.41-.48-14.291-.958-24.739-2.996-31.224-4.674-2.641-.6-4.563-1.199-5.884-1.558l1.922 1.798c1.2.36 2.521.719 4.083 1.078z" fill="#004167" fill-rule="nonzero"/>
                    <g fill-rule="nonzero">
                        <g transform="translate(52.118 77.832)">
                            <ellipse fill="url(#wexd2cc5fad)" opacity=".55" cx="4.323" cy="4.315" rx="4.323" ry="4.315"/>
                            <ellipse fill="url(#s7147wo35ae)" cx="4.323" cy="4.315" rx="2.162" ry="2.158"/>
                        </g>
                        <path d="M57.041 83.346c-.24.48-.96.6-1.56.24-.601-.36-.841-1.079-.601-1.558.24-.48.96-.6 1.561-.24.72.48.96 1.079.6 1.558z" fill="#FFF" opacity=".5"/>
                    </g>
                    <g fill-rule="nonzero">
                        <g transform="translate(10.568 73.997)">
                            <ellipse fill="url(#wexd2cc5fad)" opacity=".55" cx="4.323" cy="4.315" rx="4.323" ry="4.315"/>
                            <ellipse fill="url(#56kjq1y0paf)" cx="4.323" cy="4.315" rx="2.162" ry="2.158"/>
                        </g>
                        <path d="M15.491 79.51c-.24.48-.96.6-1.56.24-.601-.36-.841-1.078-.601-1.558s.96-.6 1.56-.24c.601.48.841 1.08.601 1.559z" fill="#FFF" opacity=".5"/>
                    </g>
                    <g fill-rule="nonzero">
                        <g transform="translate(89.465 75.195)">
                            <ellipse fill="url(#wexd2cc5fad)" opacity=".55" cx="4.323" cy="4.315" rx="4.323" ry="4.315"/>
                            <ellipse fill="url(#027rto0txag)" cx="4.323" cy="4.315" rx="2.162" ry="2.158"/>
                        </g>
                        <path d="M94.389 80.83c-.24.479-.961.598-1.561.239-.6-.36-.841-1.079-.6-1.558.24-.48.96-.6 1.56-.24.72.36.96.959.6 1.558z" fill="#FFF" opacity=".5"/>
                    </g>
                    <path d="m95.71 88.38-1.321 1.2c-2.282 2.157-4.804 4.075-7.566 5.633-5.284 2.997-11.168 4.915-17.172 5.514-.48 0-.961.12-1.441.12-3.843.24-8.166.36-12.97.24-4.803.12-9.126 0-12.97-.24h-.12c-5.403-.24-10.567-1.678-15.37-3.956-3.963-1.798-7.566-4.315-10.808-7.312l-5.524-5.034c9.006 1.199 21.255 3.836 30.982 9.35 10.688 5.993 36.627-.12 54.28-5.514z" fill="#FFF" fill-rule="nonzero" opacity=".1"/>
                </g>
                <g>
                    <path d="M41.898 41.698c-.058 4.138-1.687 7.521-3.64 7.555a1.636 1.636 0 0 1-.48-.062 1.428 1.428 0 0 1-.194-.066h-.001c-1.622-.638-2.81-3.656-2.76-7.304.048-3.445 1.185-6.366 2.69-7.27.305-.18.624-.279.953-.285.088 0 .176.003.261.016l.002.001c1.826.251 3.224 3.464 3.17 7.415" fill="#BAAFBF"/>
                    <path d="M41.177 41.73c-.068 4.08-1.705 7.418-3.657 7.458-.082 0-.163-.004-.242-.014h-.001c-1.62-.625-2.801-3.597-2.742-7.194.056-3.395 1.199-6.277 2.705-7.171.305-.18.624-.277.953-.284a1.69 1.69 0 0 1 .262.015l.001.002c1.609.645 2.78 3.607 2.72 7.189" fill="#DDD"/>
                    <path d="M35.256 44.995c.53.982 1.263 1.59 2.075 1.593 1.63.006 2.96-2.42 2.97-5.418.013-3.001-1.299-5.439-2.927-5.445a1.582 1.582 0 0 0-.348.037" fill="#220F2D"/>
                    <path d="M38.657 44.496c-.372.635-.82 1.086-1.293 1.231-1.502.463-4.552-1.749-11.47-14.758.265-.137.53-.274.794-.413.948-.491 1.895-.983 2.842-1.476 3.626 3.961 6.246 5.945 8.047 7.026.212.128.714.424 1.156 1.011 1.477 1.957 1.032 5.488-.076 7.38" fill="#FFF"/>
                    <path d="M38.657 44.496c-.372.635-.82 1.086-1.293 1.231-1.502.463-4.552-1.749-11.47-14.758.265-.137.53-.274.794-.413.948-.491 1.895-.983 2.842-1.476 3.626 3.961 6.246 5.945 8.047 7.026.212.128.714.424 1.156 1.011 1.477 1.957 1.032 5.488-.076 7.38z" stroke="#180B23" stroke-width=".5"/>
                    <path d="M38.576 44.453c-.238.472-.631 1.04-1.246 1.206-.769.206-1.752-.252-3.617-2.335-2.08-2.323-3.26-4.439-3.95-5.665-.86-1.528-2.17-3.827-3.869-6.69 2.992 5.252 5.703 9.042 7.344 10.823 1.069 1.16 2.124 1.946 3.445 2.358a6.797 6.797 0 0 0 1.893.303" fill="#C2BAC6"/>
                    <path d="m26.417 34.559 4.148-2.173.146-.077c.009-.006.018-.009.028-.013.375-.198.753-.396 1.13-.593.026-.015.055-.029.081-.043a161.38 161.38 0 0 1-2.239-2.345 3.093 3.093 0 0 1-.387-.59c-.1-.2-.305-.609-.308-1.094-.007-.86.647-1.764.842-2.027.176-.238.256-.447.146-.607-.617-.691-2.31-.305-3.307.56-.054.05-.11.099-.16.151a.72.72 0 0 0-.042.042c-.042-1.184.132-2.26.568-3.211a2.113 2.113 0 0 0-.213-.057c-.396-.083-.73-.021-1.008.167-.552.407-.815 1.006-.991 1.661a8.925 8.925 0 0 0-.259 1.574c0 .002 0 .002.002.003a.012.012 0 0 0-.002.008l-1.305-1.814c-.215-.227-.41-.328-.568-.188a5.164 5.164 0 0 0-.077.367 6.195 6.195 0 0 0 .134 2.866c.572 1.971 1.957 3.043 2.412 3.365a57.849 57.849 0 0 1 .652 2.037c.066.221.134.447.198.674.134.457.26.909.38 1.357" fill="#DDD"/>
                    <g fill="#BAAFBF">
                        <path d="M26.074 26.053a5.168 5.168 0 0 0 .353-.117 8.704 8.704 0 0 1 .092-1.833 6.444 6.444 0 0 1 .43-1.515c-.265.367-.423.7-.518.938-.316.793-.338 1.546-.355 2.136-.004.164-.004.3-.002.391M31.736 31.681l.079-.042c-.329-.339-.577-.588-.91-.935-.423-.441-.836-.884-1.244-1.32a5.044 5.044 0 0 1-.449-.74c-.1-.2-.26-.577-.264-1.062-.007-.86.715-1.715.91-1.978.176-.238.256-.447.146-.607-.617-.691-2.31-.305-3.307.56-.055.05-.11.099-.16.151-.01.024-.017.047-.026.071-.002.007-.006.014-.007.022-.015.04-.03.079-.043.12.063-.045.124-.087.185-.126l.004-.003a4.07 4.07 0 0 1 1.286-.558c.657-.153.915-.031 1.007.03a.689.689 0 0 1 .218.246c.082.168-.046.407-.183.663a2.7 2.7 0 0 1-.185.303s-.317.44-.39 1.356a1.13 1.13 0 0 0 .05.386c.014.049.031.102.05.156.33.886 1.307 2.257 3.233 3.307"/>
                        <path d="M25.41 26.746a2.394 2.394 0 0 1 1.16-.225 2.402 2.402 0 0 1 1.197.406 1.785 1.785 0 0 0-1.01-.532c-.721-.11-1.25.277-1.346.351M29.032 27.253a2.4 2.4 0 0 1-.62 1.007 2.402 2.402 0 0 1-1.108.607 1.784 1.784 0 0 0 1.075-.384c.57-.456.642-1.108.653-1.23"/>
                    </g>
                    <path d="m26.417 34.559 4.148-2.173.146-.077c.009-.006.018-.009.028-.013.375-.198.753-.396 1.13-.593.026-.015.055-.029.081-.043a161.38 161.38 0 0 1-2.239-2.345 3.093 3.093 0 0 1-.387-.59c-.1-.2-.305-.609-.308-1.094-.007-.86.647-1.764.842-2.027.176-.238.256-.447.146-.607-.617-.691-2.31-.305-3.307.56-.054.05-.11.099-.16.151a.72.72 0 0 0-.042.042c-.042-1.184.132-2.26.568-3.211a2.113 2.113 0 0 0-.213-.057c-.396-.083-.73-.021-1.008.167-.552.407-.815 1.006-.991 1.661a8.925 8.925 0 0 0-.259 1.574c0 .002 0 .002.002.003a.012.012 0 0 0-.002.008l-1.305-1.814c-.215-.227-.41-.328-.568-.188a5.164 5.164 0 0 0-.077.367 6.195 6.195 0 0 0 .134 2.866c.572 1.971 1.957 3.043 2.412 3.365a57.849 57.849 0 0 1 .652 2.037c.066.221.134.447.198.674.134.457.26.909.38 1.357z" stroke="#180B23" stroke-width=".5"/>
                    <path d="m24.64 26.331-.009-.26-1.344-1.846a.7.7 0 0 0-.311-.29c-.062-.028-.12-.055-.168-.029-.022.013-.057.045-.092.349a4.59 4.59 0 0 0-.014.139c.04-.14.11-.312.228-.332.125-.02.237.138.652.787.39.611.595.948.953 1.362l.106.12" fill="#BAAFBF"/>
                    <path d="M25.395 26.627a2.395 2.395 0 0 1 1.16-.225 2.401 2.401 0 0 1 1.196.406 1.785 1.785 0 0 0-1.01-.533c-.72-.11-1.25.278-1.346.352" fill="#180B23"/>
                    <g>
                        <path d="M71.924 41.824c.415 4.167 2.331 7.433 4.28 7.293a1.627 1.627 0 0 0 .66-.19l.001.001c1.561-.788 2.485-3.936 2.12-7.61-.346-3.47-1.73-6.314-3.309-7.091a1.894 1.894 0 0 0-.973-.203 1.655 1.655 0 0 0-.26.04h-.001c-1.798.417-2.913 3.78-2.518 7.76" fill="#BAAFBF"/>
                        <path d="M76.946 48.806c.081-.007.162-.018.24-.035 1.56-.764 2.477-3.827 2.105-7.405-.351-3.378-1.741-6.15-3.32-6.909a1.943 1.943 0 0 0-.974-.199 1.69 1.69 0 0 0-.26.038v.001c-1.547.783-2.455 3.836-2.084 7.4.423 4.057 2.344 7.24 4.293 7.109z" fill="#FFF"/>
                        <path d="M76.268 35.388a1.584 1.584 0 0 0-.35-.007c-1.622.149-2.716 2.692-2.443 5.68.272 2.986 1.809 5.287 3.432 5.139.81-.074 1.486-.743 1.928-1.768l-2.567-9.044z" fill="#220F2D"/>
                        <path d="M75.404 44.231c.426.6.91 1.01 1.395 1.114 1.537.33 4.383-2.139 10.14-15.701-.276-.114-.55-.227-.827-.343-.986-.407-1.973-.814-2.96-1.223-3.267 4.262-5.703 6.468-7.404 7.701-.2.146-.673.485-1.063 1.108-1.3 2.078-.55 5.557.72 7.344" fill="#FFF"/>
                        <path d="M75.404 44.231c.426.6.91 1.01 1.395 1.114 1.537.33 4.383-2.139 10.14-15.701-.276-.114-.55-.227-.827-.343-.986-.407-1.973-.814-2.96-1.223-3.267 4.262-5.703 6.468-7.404 7.701-.2.146-.673.485-1.063 1.108-1.3 2.078-.55 5.557.72 7.344z" stroke="#180B23" stroke-width=".5"/>
                        <path d="M75.452 44.167c.29.47.73.993 1.352 1.109 1.325.246 2.781-1.489 4.552-4.305 1.578-2.509 3.63-6.23 5.473-11.284-2.45 5.447-4.776 9.44-6.263 11.379-.96 1.252-1.94 2.13-3.225 2.649a6.66 6.66 0 0 1-1.889.452" fill="#C2BAC6"/>
                        <path d="m86.632 33.237-4.376-1.664-.155-.06-.028-.01-1.194-.454-.085-.033a164.893 164.893 0 0 0 1.944-2.595c.096-.147.217-.36.315-.63.075-.211.23-.642.175-1.124-.095-.855-.851-1.674-1.076-1.913-.203-.214-.307-.412-.217-.585.53-.76 2.257-.577 3.35.163a3.449 3.449 0 0 1 .223.167c-.099-1.18-.4-2.228-.945-3.12.069-.032.137-.059.204-.082.383-.13.723-.108 1.021.046.597.339.929.902 1.182 1.531.193.504.345 1.015.444 1.533l-.001.003a.013.013 0 0 1 .002.007l1.08-1.956c.186-.25.369-.374.542-.254.037.099.079.216.12.356.199.63.407 1.647.207 2.86-.333 2.026-1.58 3.255-1.994 3.629a58.89 58.89 0 0 0-.523 2.792c-.078.47-.15.934-.215 1.393" fill="#DDD"/>
                        <path d="M85.963 24.75a5.283 5.283 0 0 1-.365-.074 8.718 8.718 0 0 0-.31-1.809 6.472 6.472 0 0 0-.607-1.453c.308.333.504.644.627.87.408.75.519 1.495.606 2.079.024.162.04.296.049.388M81.376 30.984l-.111-.033-.104-.033.263-.315.445-.601c.468-.632.498-.663.629-.849.379-.537.568-.806.718-1.179.082-.203.288-.651.247-1.227 0 0-.058-.81-.671-1.554-.397-.481-.42-.505-.42-.505-.188-.188-.294-.251-.288-.35.011-.202.467-.328.55-.35 1.08-.3 2.172.33 2.43.489.311.19.554.396.735.573a5.157 5.157 0 0 0-.625-.405 2.68 2.68 0 0 0-1.158-.486c-.676-.103-.988.143-.996.15l-.023.021a.69.69 0 0 0-.164.25c-.061.174.093.397.26.635.116.167.217.276.22.279 0 0 .367.399.549 1.3.02.106.02.236-.004.389 0 0-.012.08-.032.16-.051.202-1.042 1.674-2.45 3.641" fill="#BAAFBF"/>
                        <path d="M86.688 25.36a2.396 2.396 0 0 0-1.179-.086 2.402 2.402 0 0 0-1.14.545c.095-.127.398-.498.94-.649.703-.195 1.274.127 1.379.19M83.168 26.294a2.4 2.4 0 0 0 .735.926c.475.36.957.446 1.173.47a1.785 1.785 0 0 1-1.114-.253c-.619-.385-.768-1.023-.794-1.143M87.407 25.018l-.021-.26 1.115-1.992a.701.701 0 0 1 .275-.326c.057-.034.113-.067.163-.047.024.01.061.037.133.334l.03.137c-.057-.135-.147-.296-.266-.302-.126-.006-.22.165-.554.859-.314.653-.478 1.012-.784 1.466l-.09.131" fill="#BAAFBF"/>
                        <path d="M86.69 25.239a2.396 2.396 0 0 0-1.18-.086 2.402 2.402 0 0 0-1.14.546c.095-.127.398-.498.941-.65.703-.195 1.273.127 1.379.19" fill="#180B23"/>
                        <path d="m86.632 33.237-4.376-1.664-.155-.06-.028-.01-1.194-.454-.085-.033a164.893 164.893 0 0 0 1.944-2.595c.096-.147.217-.36.315-.63.075-.211.23-.642.175-1.124-.095-.855-.851-1.674-1.076-1.913-.203-.214-.307-.412-.217-.585.53-.76 2.257-.577 3.35.163a3.449 3.449 0 0 1 .223.167c-.099-1.18-.4-2.228-.945-3.12.069-.032.137-.059.204-.082.383-.13.723-.108 1.021.046.597.339.929.902 1.182 1.531.193.504.345 1.015.444 1.533l-.001.003a.013.013 0 0 1 .002.007l1.08-1.956c.186-.25.369-.374.542-.254.037.099.079.216.12.356.199.63.407 1.647.207 2.86-.333 2.026-1.58 3.255-1.994 3.629a58.89 58.89 0 0 0-.523 2.792c-.078.47-.15.934-.215 1.393z" stroke="#220F2D" stroke-width=".5"/>
                    </g>
                </g>
            </g>
        </g>
    </g>
</svg>
