<svg width="69" height="68" viewBox="0 0 69 68" xmlns="http://www.w3.org/2000/svg" xmlns:xlink="http://www.w3.org/1999/xlink">
    <defs>
        <linearGradient x1="61.008%" y1="4.822%" x2="26.097%" y2="71.944%" id="quuei3h4oc">
            <stop stop-color="#00A0FF" offset="0%"/>
            <stop stop-color="#00A1FF" offset=".7%"/>
            <stop stop-color="#00BEFF" offset="26%"/>
            <stop stop-color="#00D2FF" offset="51.2%"/>
            <stop stop-color="#00DFFF" offset="76%"/>
            <stop stop-color="#00E3FF" offset="100%"/>
        </linearGradient>
        <linearGradient x1="107.723%" y1="50.007%" x2="-130.719%" y2="50.007%" id="j4ma9abu3d">
            <stop stop-color="#FFE000" offset="0%"/>
            <stop stop-color="#FFBD00" offset="40.9%"/>
            <stop stop-color="orange" offset="77.5%"/>
            <stop stop-color="#FF9C00" offset="100%"/>
        </linearGradient>
        <linearGradient x1="86.301%" y1="30.766%" x2="-49.956%" y2="135.936%" id="rfh50i4sze">
            <stop stop-color="#FF3A44" offset="0%"/>
            <stop stop-color="#C31162" offset="100%"/>
        </linearGradient>
        <linearGradient x1="-18.799%" y1="-11.511%" x2="42.05%" y2="35.232%" id="a1r6easpif">
            <stop stop-color="#32A071" offset="0%"/>
            <stop stop-color="#2DA771" offset="6.9%"/>
            <stop stop-color="#15CF74" offset="47.6%"/>
            <stop stop-color="#06E775" offset="80.1%"/>
            <stop stop-color="#00F076" offset="100%"/>
        </linearGradient>
        <filter x="-22%" y="-20%" width="168%" height="168%" filterUnits="objectBoundingBox" id="tnlyki8n9a">
            <feOffset dx="6" dy="7" in="SourceAlpha" result="shadowOffsetOuter1"/>
            <feGaussianBlur stdDeviation="4.5" in="shadowOffsetOuter1" result="shadowBlurOuter1"/>
            <feComposite in="shadowBlurOuter1" in2="SourceAlpha" operator="out" result="shadowBlurOuter1"/>
            <feColorMatrix values="0 0 0 0 0 0 0 0 0 0.254901961 0 0 0 0 0.403921569 0 0 0 0.459380463 0" in="shadowBlurOuter1"/>
        </filter>
        <rect id="d5ag4yzd0b" x="0" y="0" width="50" height="50" rx="25"/>
    </defs>
    <g fill="none" fill-rule="evenodd">
        <g transform="translate(3.5 2)">
            <use fill="#000" filter="url(#tnlyki8n9a)" xlink:href="#d5ag4yzd0b"/>
            <rect stroke="#FFF" stroke-width="2.083" stroke-linejoin="square" fill-opacity=".95" fill="#FFF" x="1.042" y="1.042" width="47.917" height="47.917" rx="23.958"/>
        </g>
        <g fill-rule="nonzero">
            <path d="M.347.32C.091.576.01.996.01 1.503v18.703c0 .507.17.932.425 1.183l.087.087 10.491-10.491v-.17L.347.32z" fill="url(#quuei3h4oc)" transform="translate(20.5 16)"/>
            <path d="m14.394 14.535-3.469-3.468v-.256l3.469-3.468.087.087L18.625 9.8c1.183.677 1.183 1.778 0 2.454l-4.231 2.28z" fill="url(#j4ma9abu3d)" transform="translate(20.5 16)"/>
            <path d="m14.48 14.453-3.555-3.555L.347 21.476c.425.425 1.015.425 1.778.087l12.356-7.11" fill="url(#rfh50i4sze)" transform="translate(20.5 16)"/>
            <path d="M14.48 7.343 2.126.32C1.362-.105.772-.018.347.407l10.578 10.491 3.556-3.555z" fill="url(#a1r6easpif)" transform="translate(20.5 16)"/>
            <path d="m34.894 30.366-12.27 6.941c-.675.425-1.27.338-1.69 0l-.087.087.087.087c.425.338 1.015.425 1.69 0l12.27-7.115z" fill="#000" opacity=".2"/>
            <path d="M20.847 37.307c-.256-.256-.338-.676-.338-1.183v.087c0 .507.17.932.425 1.183v-.087h-.087zM39.125 28l-4.231 2.367.087.087 4.144-2.371c.594-.339.845-.763.845-1.184 0 .425-.338.763-.845 1.101z" fill="#000" opacity=".12"/>
            <path d="m22.625 16.407 16.5 9.394c.507.339.845.677.845 1.102 0-.425-.256-.846-.845-1.184l-16.5-9.4c-1.184-.675-2.116-.168-2.116 1.184v.087c0-1.27.932-1.86 2.116-1.183z" fill="#FFF" opacity=".25"/>
        </g>
    </g>
</svg>
