<svg width="26" height="29" viewBox="0 0 26 29" xmlns="http://www.w3.org/2000/svg" xmlns:xlink="http://www.w3.org/1999/xlink">
    <defs>
        <path id="5fxviu5snb" d="M0 .004h21.272v27.992H0z"/>
        <path id="5kyey7arod" d="M.03.01h.192v.083H.03z"/>
        <filter id="lfl44ejj3a">
            <feColorMatrix in="SourceGraphic" values="0 0 0 0 1.000000 0 0 0 0 0.384314 0 0 0 0 0.262745 0 0 0 1.000000 0"/>
        </filter>
    </defs>
    <g fill="none" fill-rule="evenodd">
        <path d="M13.074 2.04c1.201 1.247 2.055 3.195 2.274 5.45a7.902 7.902 0 0 1 0-.241V7.17l.004-.17.005-.136.003-.069.003-.067v-.003c.004-.063.007-.125.012-.187l.002-.03a2.969 2.969 0 0 1 .015-.181 8.29 8.29 0 0 1 .02-.198l.007-.057a8.25 8.25 0 0 1 .025-.196l.003-.022.019-.135c0-.005 0-.01.002-.015l.018-.115.008-.046.034-.19.011-.059.023-.112.024-.112a8.43 8.43 0 0 1 .053-.227l.014-.055a11.138 11.138 0 0 1 .09-.33c.01-.036.022-.071.033-.106l.015-.051a9.4 9.4 0 0 1 .064-.196l.005-.014V4.09a8.832 8.832 0 0 1 .19-.5v-.001a7.517 7.517 0 0 1 .104-.237c0-.003.002-.005.003-.008.027-.06.055-.118.083-.176l.03-.058a2.83 2.83 0 0 1 .036-.074l.029-.056.037-.07c.03-.055.06-.11.092-.165l.03-.051a7.4 7.4 0 0 1 .067-.113l.019-.031.014-.024.046-.072.048-.075.047-.07.049-.072.002-.003.03-.041.058-.083.006-.007a4.784 4.784 0 0 1 .085-.113l.023-.03.024-.03.05-.062.005-.007.04-.05a10.925 10.925 0 0 1 .144-.166l.004-.005.048-.052.05-.055.026-.027a5.64 5.64 0 0 1 .478-.444 3.597 3.597 0 0 1 .19-.148l.028-.021.06-.043.02-.015.061-.042.037-.024.032-.021a3.644 3.644 0 0 1 .214-.133l.033-.018a1.725 1.725 0 0 1 .095-.052A4.17 4.17 0 0 1 19.19.29l.04-.015A3.146 3.146 0 0 1 19.5.19l.042-.011.093-.024.047-.011a2.986 2.986 0 0 1 .148-.032l.05-.01a3.876 3.876 0 0 1 .26-.039l.077-.008h.005L20.3.046a4.258 4.258 0 0 1 .238-.011l-3.894.062a4.005 4.005 0 0 0-.23.01L16.4.11a4.15 4.15 0 0 0-.162.015l-.023.004a3.556 3.556 0 0 0-.159.022l-.031.006c-.03.005-.062.01-.093.017l-.053.01-.098.022-.035.008-.012.003a4.205 4.205 0 0 0-.093.025l-.042.01a4.432 4.432 0 0 0-.135.041l-.02.007a3.785 3.785 0 0 0-.109.037l-.046.017-.082.03a.17.17 0 0 0-.008.003l-.053.022-.062.026-.06.026-.062.028a.227.227 0 0 1-.008.004c-.02.008-.038.018-.057.027l-.054.026c-.022.01-.044.023-.066.034l-.051.027a2.656 2.656 0 0 0-.074.041l-.041.023-.092.054-.022.014a4.182 4.182 0 0 0-.111.07l-.034.023a5.222 5.222 0 0 0-.076.05l-.042.031a3.71 3.71 0 0 0-.066.047l-.045.034-.05.037-.012.01-.046.036-.059.048-.046.038-.04.033a2.889 2.889 0 0 0-.12.107l-.048.044-.032.03-.021.02-.048.047-.052.051-.046.048-.028.028-.022.024-.051.055a3.519 3.519 0 0 0-.048.052c-.016.02-.033.038-.05.057l-.026.03-.02.023-.052.062-.044.054a9.522 9.522 0 0 0-.08.1l-.008.011" fill="#C72900"/>
        <path d="m.868 9.32-.015-.19-.002-.024-.005-.1-.004-.061A11.266 11.266 0 0 1 .83 8.62v-.01a11.032 11.032 0 0 1-.002-.389l.001-.07L.833 8v-.037l.003-.044a11.885 11.885 0 0 1 .018-.344L.859 7.5l.013-.158.004-.047.02-.203.001-.008.003-.02c.009-.08.019-.159.03-.237l.007-.056.038-.25.008-.046c.012-.074.026-.148.04-.22l.008-.046.05-.243.013-.053c.016-.075.034-.149.052-.223l.006-.026A10.123 10.123 0 0 1 1.3 5.14c0-.004.002-.007.003-.01.023-.075.047-.15.072-.222l.01-.03.01-.027.047-.135.019-.05c.022-.061.045-.122.069-.182l.013-.033.06-.146.024-.059.052-.119.015-.033.017-.038a10.09 10.09 0 0 1 .138-.288l.026-.052.05-.097c.008-.013.014-.027.021-.04l.004-.006.01-.018a7.856 7.856 0 0 1 .219-.38l.002-.005v-.001a7.37 7.37 0 0 1 .099-.154l.03-.046.072-.107.018-.027.018-.025.062-.087.037-.05a7.08 7.08 0 0 1 .071-.095l.024-.032.006-.007.073-.091.025-.032.101-.12.002-.002.04-.046.057-.064.045-.048.055-.06.003-.003.056-.057.042-.044.064-.062.04-.038V1.87l.102-.094.028-.024.07-.062.006-.005.037-.031.068-.056.043-.034.049-.039.014-.01.044-.034.064-.047.046-.033.036-.025.027-.018a4.533 4.533 0 0 1 .157-.103l.024-.015.042-.025.046-.027.07-.04.043-.024.01-.006.065-.034.04-.02a4.25 4.25 0 0 1 .106-.052l.01-.005.118-.053.038-.015.073-.03.009-.003.053-.02.07-.026.055-.018.055-.019.013-.004.066-.02.062-.018.067-.017.051-.014.01-.002L5.29.73l.053-.012a3.72 3.72 0 0 1 .092-.017l.04-.007h.002c.049-.008.098-.015.147-.02a3.8 3.8 0 0 1 .148-.015l.02-.003a3.78 3.78 0 0 1 .218-.01L9.911.584a3.57 3.57 0 0 0-.344.022l-.042.005a3.776 3.776 0 0 0-.147.02L9.336.64c-.03.005-.062.01-.092.017L9.19.667 9.11.685l-.062.016-.067.018-.062.018-.066.02-.068.022-.056.019-.069.025-.054.02-.081.034-.038.015c-.04.017-.079.034-.118.053L8.36.95c-.036.016-.071.033-.106.051l-.04.02-.075.04-.044.025a4.158 4.158 0 0 0-.07.04l-.045.027a4.912 4.912 0 0 0-.286.186c-.016.01-.031.022-.047.033l-.063.046-.044.034a5.277 5.277 0 0 0-.063.05c-.015.01-.03.022-.043.033l-.068.056-.037.032c-.026.021-.05.043-.076.066l-.028.025a5.28 5.28 0 0 0-.103.095l-.039.038c-.021.02-.043.04-.064.062l-.042.043-.059.06-.056.06-.044.049-.057.064-.042.048c-.034.039-.067.079-.1.12a6.565 6.565 0 0 0-.098.123l-.03.039a6.59 6.59 0 0 0-.072.094l-.037.05a6.815 6.815 0 0 0-.17.247l-.03.045a7.23 7.23 0 0 0-.098.154l-.004.006a7.659 7.659 0 0 0-.219.38l-.013.025-.02.04a7.946 7.946 0 0 0-.051.096l-.026.053a8.065 8.065 0 0 0-.043.087l-.028.057a10.05 10.05 0 0 0-.15.334l-.026.059-.059.145-.013.034a9.15 9.15 0 0 0-.07.181c-.006.017-.011.034-.018.05l-.048.136-.019.056c-.025.073-.049.147-.072.222l-.003.01a9.644 9.644 0 0 0-.148.526l-.006.026a10.04 10.04 0 0 0-.053.222l-.011.053c-.018.08-.035.162-.05.243l-.01.046-.04.22-.007.046a10.79 10.79 0 0 0-.038.25l-.008.056-.03.238-.003.027-.02.203-.004.048c-.005.052-.01.105-.013.158l-.005.074a10.45 10.45 0 0 0-.009.134l-.004.081a11.063 11.063 0 0 0-.012.363l-.001.07a12.053 12.053 0 0 0 .014.722l.004.062a10.546 10.546 0 0 0 .022.313l.003.039.022.228.008.066c.006.055.012.11.02.165l.01.083a14.283 14.283 0 0 0 .06.401l.01.068.041.233.007.036.04.198.016.079a14.678 14.678 0 0 0 .096.429l.014.06.061.244c.004.017.01.033.013.05a16.837 16.837 0 0 0 .145.517l.009.03a17.787 17.787 0 0 0 .176.557l.017.05a20.454 20.454 0 0 0 .237.665l.014.038c.04.108.082.216.125.323l.008.022c.044.11.088.218.134.327l.026.063.045.108.043.1.047.107.043.1.049.109.044.099.05.108.043.096.09.191.016.035.108.225.032.066.078.159.042.082a26.23 26.23 0 0 0 .224.44l.019.036.13.248.037.066.104.193.037.067.136.245.013.023.166.292.025.044.17.292.035.057.173.29.026.042.173.282.015.025a39.386 39.386 0 0 0 .514.806l.021.033c.08.123.161.244.242.365l.028.042.24.354.035.05.166.24.012.016a47.394 47.394 0 0 0 .747 1.041c0 .002.002.003.003.004a51.92 51.92 0 0 0 .375.501c0 .002.002.003.003.005l.168.22.051.067.079.102.056.073.08.102.055.071.083.106.051.065.093.118.04.05.133.167.029.036.103.128.05.061a57.51 57.51 0 0 0 .213.263l.055.067a37.052 37.052 0 0 0 .26.315l.076.09.053.063.078.093.049.058.092.108.033.04.124.146.03.034.093.109.047.054a44.765 44.765 0 0 0 .133.154l.055.063.059.067.053.061.058.066.054.06a40 40 0 0 0 .11.125l.055.063.053.059.055.062.05.056.056.062.05.056a34.056 34.056 0 0 0 .104.115l.051.056.05.056.051.055a29.691 29.691 0 0 0 .1.109l.048.053.05.054.046.05.051.055c.014.016.03.031.043.047l.05.053.043.047.049.051.042.045.046.05.043.045.045.048.04.043.047.05.037.039.045.046.038.04.043.045.036.038.042.044.036.037.039.04.036.038.037.039.035.036.036.036.034.036.036.037.03.03.038.04c.01.008.018.018.027.027l.037.037.025.026.034.034.026.026.03.03c.008.01.017.018.026.027l.028.029.026.025.028.028.022.022.029.03.018.017.015.016.036.035.018.018.03.03.015.015.03.029.01.01.037.036a.692.692 0 0 1 .033.033l.008.007.02.02.01.009.013.014.007.006.017.016-3.901.063-.017-.016-.007-.007-.014-.014a2.064 2.064 0 0 1-.01-.01l-.02-.018-.007-.008-.028-.027-.005-.005-.036-.036-.011-.01-.03-.03-.016-.015-.03-.03-.017-.017-.035-.036-.013-.012-.003-.003-.018-.018-.03-.03-.021-.021-.028-.029-.026-.025-.028-.028-.027-.027-.03-.03-.025-.027a27.787 27.787 0 0 0-.034-.034l-.025-.025-.037-.038-.027-.027-.037-.039-.03-.03-.037-.038a17.977 17.977 0 0 1-.034-.035l-.036-.037-.035-.036-.037-.039-.036-.037a56.914 56.914 0 0 1-.04-.04l-.035-.037-.042-.044-.036-.038-.043-.045-.038-.04-.044-.047-.038-.04-.046-.048-.04-.043-.046-.048-.043-.046-.046-.05-.042-.044-.049-.052-.043-.046a20.325 20.325 0 0 1-.05-.054l-.043-.047a49.552 49.552 0 0 1-.051-.055l-.046-.05a49.887 49.887 0 0 1-.05-.054l-.048-.053-.05-.054a30.223 30.223 0 0 0-.05-.054l-.05-.056-.05-.055a51.793 51.793 0 0 1-.052-.057l-.051-.056-.053-.058-.05-.056a36.78 36.78 0 0 1-.055-.062l-.05-.057a35.924 35.924 0 0 1-.218-.244l-.056-.064-.054-.06-.058-.066-.053-.062-.059-.067-.054-.062-.044-.05-.014-.017a45.93 45.93 0 0 1-.077-.088l-.045-.053a53.004 53.004 0 0 1-.248-.29l-.033-.039a61.42 61.42 0 0 1-.092-.109l-.048-.056-.08-.094-.051-.063-.077-.091-.053-.065-.076-.09-.055-.067-.076-.093-.054-.066a42.442 42.442 0 0 1-.08-.097l-.052-.064a42.739 42.739 0 0 1-.084-.104l-.048-.06-.104-.129-.028-.035-.132-.166-.039-.048-.095-.12-.05-.064-.084-.107a84.862 84.862 0 0 1-.055-.07l-.08-.104-.056-.072a70.583 70.583 0 0 1-.079-.103l-.03-.038-.02-.027a55.92 55.92 0 0 1-.169-.222l-.003-.004a51.55 51.55 0 0 1-.166-.22l-.042-.057a46.792 46.792 0 0 1-.543-.74l-.008-.011a45.483 45.483 0 0 1-.366-.518l-.012-.017-.166-.24-.02-.028-.015-.022-.24-.354-.028-.041-.242-.365-.021-.033a42.237 42.237 0 0 1-.251-.389l-.008-.013a39.618 39.618 0 0 1-.259-.41l-.011-.02a39.239 39.239 0 0 1-.173-.282l-.026-.041a35.92 35.92 0 0 1-.378-.64l-.025-.044a35.11 35.11 0 0 1-.166-.291l-.01-.017-.003-.006a32.268 32.268 0 0 1-.136-.246l-.037-.067-.104-.192-.036-.067a30.041 30.041 0 0 1-.131-.248l-.02-.036a27.42 27.42 0 0 1-.11-.216l-.019-.036-.022-.044a26.22 26.22 0 0 1-.192-.384l-.032-.067-.108-.225-.016-.034-.09-.191-.01-.021-.034-.076-.049-.108-.044-.099-.049-.108-.043-.1-.047-.107-.043-.1-.045-.108c-.005-.01-.01-.021-.013-.032l-.013-.031c-.045-.11-.09-.218-.133-.328l-.009-.021a22.183 22.183 0 0 1-.125-.323l-.01-.026-.004-.012a20.099 20.099 0 0 1-.237-.666l-.005-.013-.012-.037a18.012 18.012 0 0 1-.072-.222l-.022-.07a18.203 18.203 0 0 1-.084-.27l-.007-.025a17.931 17.931 0 0 1-.144-.516l-.01-.038-.004-.013a15.718 15.718 0 0 1-.061-.244l-.014-.06-.044-.188-.01-.039-.008-.043a15.578 15.578 0 0 1-.034-.159l-.017-.078a13.93 13.93 0 0 1-.039-.199l-.006-.03v-.005A14.242 14.242 0 0 1 1 10.369l-.01-.067c-.01-.056-.019-.111-.027-.167l-.006-.036-.006-.048-.021-.15-.01-.084c-.008-.055-.014-.11-.02-.164L.895 9.6l-.002-.014a11.853 11.853 0 0 1-.022-.229L.868 9.32" fill="#C72900" fill-rule="nonzero"/>
        <g filter="url(#lfl44ejj3a)" transform="matrix(-1 0 0 1 26 0)">
            <g transform="translate(0 .031)">
                <mask id="1emeqm998c" fill="#fff">
                    <use xlink:href="#5fxviu5snb"/>
                </mask>
                <path d="M9.953 27.996C9.45 27.416-.125 16.395.001 7.767A10.334 10.334 0 0 1 .02 7.26C.269 3.141 2.65-.045 5.462.005A2.976 2.976 0 0 1 5.7.017l.078.006h.005l.078.01a4.329 4.329 0 0 1 .16.022l.053.008.046.008.047.01a2.618 2.618 0 0 1 .151.032l.047.01.093.025.042.011a2.07 2.07 0 0 1 .123.037c.05.015.098.032.146.05l.04.014a1.915 1.915 0 0 0 .083.03l.06.025.059.024.064.029.031.014a5.034 5.034 0 0 1 .096.045l.054.025.066.034.051.028.037.02.037.02.02.012a1.51 1.51 0 0 1 .113.066c.046.027.09.056.135.085l.032.02c.012.01.024.017.037.025l.06.042.021.015.06.043A1.434 1.434 0 0 1 7.976.9l.062.046.046.037.06.047a4.151 4.151 0 0 1 .106.09l.044.04.055.048a2.822 2.822 0 0 1 .101.095 4.89 4.89 0 0 1 .1.098l.046.048.05.052.051.055.048.052.05.056.045.054.053.062.044.053.051.065.042.053a3.887 3.887 0 0 1 .095.126l.062.087.027.038.002.003.049.071.047.071.024.037.07.11.029.048a7.258 7.258 0 0 1 .193.337l.037.07.029.055.008.016.029.058.029.058.02.044a7.114 7.114 0 0 1 .142.312l.028.065.041.102.025.062.045.119.019.049.06.169.005.015.064.196.017.055.03.101.03.102.007.026c.019.067.037.135.054.203l.014.057a9.104 9.104 0 0 1 .053.225l.024.112.023.112.01.058c.013.064.024.129.035.193l.008.044.018.115.002.015.015.101.007.056c.01.065.018.13.025.196l.007.057c.005.044.01.088.013.132l.007.066.009.1.006.08.002.03a10.427 10.427 0 0 1 .012.19l.003.068a3.894 3.894 0 0 1 .006.137l.002.063.004.185v.069a10.37 10.37 0 0 1 0 .24c.219-2.254 1.073-4.202 2.274-5.45.933-.968 2.076-1.513 3.294-1.45 2.864.147 5.084 3.607 5.051 7.793 0 .103-.002.206-.006.31-.304 8.646-10.761 18.801-11.312 19.335" fill="#EE4B74" mask="url(#1emeqm998c)"/>
            </g>
        </g>
        <g transform="matrix(-1 0 0 1 20.444 .031)">
            <mask id="unzyxrgq0e" fill="#fff">
                <use xlink:href="#5kyey7arod"/>
            </mask>
            <path d="M.222.07.144.05a1.565 1.565 0 0 0 .078.02" fill="#EE4B74" mask="url(#unzyxrgq0e)"/>
        </g>
        <path d="m19.926.127-.046.024c.033-.018.066-.034.1-.049h-.001c-.018.009-.035.018-.053.025M19.787.151l-.007.003c.033-.01.066-.02.1-.028l-.093.025M19.83.112c-.111.027-.222.06-.33.1l.042-.014.093-.031.047-.014a2.518 2.518 0 0 1 .148-.04M19.23.28a2.18 2.18 0 0 0-.048.043c.016-.014.032-.029.049-.042M19.048.372l-.06.05c.04-.035.08-.068.12-.1l-.06.05M18.798.481l-.054.045a3.356 3.356 0 0 1 .054-.045M18.678.539l-.051.044.117-.1-.066.056M18.526.625c-.011.012-.024.023-.036.034a2.97 2.97 0 0 1 .1-.092l-.064.058M18.285.748c-.034.032-.067.066-.1.1l.054-.054.046-.046M18.156.835a7.91 7.91 0 0 0-.1.1l.074-.074a6.23 6.23 0 0 0 .026-.026M17.916 1.022l-.06.056.106-.1-.046.044M17.705 1.197l-.055.055.1-.1-.045.045M16.837 2.15l.015-.021-.012.017a.106.106 0 0 1-.003.004M17.03 1.899l-.006.007a2.586 2.586 0 0 1 .006-.007M17.226 1.669l-.012.013.013-.014h-.001M16.925 2.031l-.013.018c.02-.028.043-.055.064-.083l-.051.065M17.067 1.86l.04-.048a8.939 8.939 0 0 1 .099-.116l.045-.051c-.063.07-.124.142-.184.216M17.384 1.498l-.034.035.1-.1-.066.065M17.061 1.868a7.093 7.093 0 0 0-.1.1l.033-.034.067-.066M17.38 1.506a5.73 5.73 0 0 0-.125.134l.048-.052.05-.055.026-.027M16.965 1.99" fill="#EE4B74"/>
        <path d="m16.774 2.21.1-.1a8.386 8.386 0 0 0-.1.1M16.726 2.293l.084-.1-.006.007-.078.093M16.404 2.794l.085-.1-.014.015a2.988 2.988 0 0 1-.068.08l-.003.005M16.64 2.454a7.602 7.602 0 0 0-.1.1l.024-.025.076-.075M16.51 2.642l.055-.088-.042.068-.012.02M16.591 2.476l.097-.097-.049.048-.048.049zM16.026 3.589l.1-.176-.008.013a7.367 7.367 0 0 0-.055.098l-.037.065M16.153 3.344a9.11 9.11 0 0 0-.01.011l.01-.011M16.163 3.302a3.152 3.152 0 0 0 .077-.134l-.025.044-.052.09M15.987 3.691l-.037.062c.032-.055.065-.11.1-.163l-.063.101M15.912 3.872l-.028.049c.032-.057.065-.112.1-.168l-.072.119M15.681 4.457l.092-.105-.004.004c-.03.034-.06.067-.088.101M15.86 4.09a6.782 6.782 0 0 0-.1.262l.018-.051a8.4 8.4 0 0 1 .076-.196l.006-.014M15.54 5.04c.03-.066.065-.132.1-.197l-.002.002c-.034.064-.067.13-.099.195M15.707 4.585a7.081 7.081 0 0 0-.1.258l.02-.055c.026-.068.052-.136.08-.203M15.54 5.294a4.33 4.33 0 0 0-.025.058l.024-.058M15.446 5.643l.023-.1a.114.114 0 0 0-.001.005l-.022.095M15.446 5.854c-.036.09-.07.182-.098.275.005-.02.012-.038.019-.057a3.38 3.38 0 0 1 .07-.196l.009-.022M15.41 5.82c-.006.011-.01.023-.014.034.018-.045.035-.09.055-.135l-.042.101M15.36 6.26l-.019.067a3.21 3.21 0 0 1 .018-.066M15.337 6.728a1.954 1.954 0 0 0-.01.067l.01-.067M15.314 7.27l.003-.1v.013l-.003.087M15.316 6.995V7l.012-.135a1.52 1.52 0 0 0-.006.068c-.003.02-.004.042-.006.063M15.313 7.17" fill="#EE4B74"/>
    </g>
</svg>
