<svg width="144" height="142" viewBox="0 0 144 142" xmlns="http://www.w3.org/2000/svg" xmlns:xlink="http://www.w3.org/1999/xlink">
    <defs>
        <filter x="-35.9%" y="-52.9%" width="171.8%" height="205.7%" filterUnits="objectBoundingBox" id="nnfc9zdlrd">
            <feGaussianBlur stdDeviation="2.058" in="SourceGraphic"/>
        </filter>
        <filter x="-2.1%" y="-2.1%" width="108.6%" height="104.3%" filterUnits="objectBoundingBox" id="nhuzeu1eye">
            <feOffset dx="1" in="SourceAlpha" result="shadowOffsetOuter1"/>
            <feColorMatrix values="0 0 0 0 0 0 0 0 0 0.924170616 0 0 0 0 1 0 0 0 1 0" in="shadowOffsetOuter1"/>
        </filter>
        <filter x="-2.1%" y="-2.1%" width="108.6%" height="104.3%" filterUnits="objectBoundingBox" id="t1j4gdt90h">
            <feOffset dx="-1" dy="-1" in="SourceAlpha" result="shadowOffsetInner1"/>
            <feComposite in="shadowOffsetInner1" in2="SourceAlpha" operator="arithmetic" k2="-1" k3="1" result="shadowInnerInner1"/>
            <feColorMatrix values="0 0 0 0 0.60362885 0 0 0 0 0.461598532 0 0 0 0 0 0 0 0 0.7 0" in="shadowInnerInner1"/>
        </filter>
        <filter x="-9.1%" y="-11.4%" width="118.3%" height="131.8%" filterUnits="objectBoundingBox" id="tachevro2i">
            <feOffset dy="1" in="SourceAlpha" result="shadowOffsetOuter1"/>
            <feGaussianBlur stdDeviation="1" in="shadowOffsetOuter1" result="shadowBlurOuter1"/>
            <feColorMatrix values="0 0 0 0 0 0 0 0 0 0 0 0 0 0 0 0 0 0 0.45 0" in="shadowBlurOuter1"/>
        </filter>
        <filter x="-8.3%" y="-8.2%" width="116.5%" height="116.4%" filterUnits="objectBoundingBox" id="xpez1a5dhk">
            <feGaussianBlur stdDeviation=".803" in="SourceGraphic"/>
        </filter>
        <filter x="-11.3%" y="-11.2%" width="122.7%" height="122.5%" filterUnits="objectBoundingBox" id="ubq6kaskul">
            <feOffset in="SourceAlpha" result="shadowOffsetOuter1"/>
            <feGaussianBlur stdDeviation="3.5" in="shadowOffsetOuter1" result="shadowBlurOuter1"/>
            <feColorMatrix values="0 0 0 0 0 0 0 0 0 1 0 0 0 0 0.96728972 0 0 0 0.525786713 0" in="shadowBlurOuter1"/>
        </filter>
        <filter x="-151.4%" y="-293.9%" width="402.8%" height="687.9%" filterUnits="objectBoundingBox" id="d7p8pfhukn">
            <feOffset in="SourceAlpha" result="shadowOffsetOuter1"/>
            <feGaussianBlur stdDeviation="3.5" in="shadowOffsetOuter1" result="shadowBlurOuter1"/>
            <feColorMatrix values="0 0 0 0 1 0 0 0 0 1 0 0 0 0 1 0 0 0 1 0" in="shadowBlurOuter1" result="shadowMatrixOuter1"/>
            <feOffset in="SourceAlpha" result="shadowOffsetOuter2"/>
            <feGaussianBlur stdDeviation="3" in="shadowOffsetOuter2" result="shadowBlurOuter2"/>
            <feColorMatrix values="0 0 0 0 1 0 0 0 0 0.949019608 0 0 0 0 0 0 0 0 1 0" in="shadowBlurOuter2" result="shadowMatrixOuter2"/>
            <feMerge>
                <feMergeNode in="shadowMatrixOuter1"/>
                <feMergeNode in="shadowMatrixOuter2"/>
            </feMerge>
        </filter>
        <filter x="-64.5%" y="-182.2%" width="228.9%" height="444.2%" filterUnits="objectBoundingBox" id="8gjrkf2izs">
            <feOffset dy="-1" in="SourceAlpha" result="shadowOffsetOuter1"/>
            <feGaussianBlur stdDeviation="5.5" in="shadowOffsetOuter1" result="shadowBlurOuter1"/>
            <feColorMatrix values="0 0 0 0 0 0 0 0 0 0.835294118 0 0 0 0 0.88627451 0 0 0 0.8 0" in="shadowBlurOuter1"/>
        </filter>
        <filter x="-78%" y="-317.6%" width="255.9%" height="735.2%" filterUnits="objectBoundingBox" id="x947izj1tv">
            <feOffset in="SourceAlpha" result="shadowOffsetOuter1"/>
            <feGaussianBlur stdDeviation="1.5" in="shadowOffsetOuter1" result="shadowBlurOuter1"/>
            <feColorMatrix values="0 0 0 0 1 0 0 0 0 1 0 0 0 0 1 0 0 0 1 0" in="shadowBlurOuter1"/>
        </filter>
        <filter x="-78%" y="-317.6%" width="255.9%" height="735.2%" filterUnits="objectBoundingBox" id="m3fas1mz6y">
            <feOffset in="SourceAlpha" result="shadowOffsetOuter1"/>
            <feGaussianBlur stdDeviation="1.5" in="shadowOffsetOuter1" result="shadowBlurOuter1"/>
            <feColorMatrix values="0 0 0 0 1 0 0 0 0 1 0 0 0 0 1 0 0 0 1 0" in="shadowBlurOuter1"/>
        </filter>
        <filter x="-78%" y="-317.6%" width="255.9%" height="735.2%" filterUnits="objectBoundingBox" id="xik9p98yvA">
            <feOffset in="SourceAlpha" result="shadowOffsetOuter1"/>
            <feGaussianBlur stdDeviation="1.5" in="shadowOffsetOuter1" result="shadowBlurOuter1"/>
            <feColorMatrix values="0 0 0 0 1 0 0 0 0 1 0 0 0 0 1 0 0 0 1 0" in="shadowBlurOuter1"/>
        </filter>
        <filter x="-78%" y="-317.6%" width="255.9%" height="735.2%" filterUnits="objectBoundingBox" id="obdipqfeeC">
            <feOffset in="SourceAlpha" result="shadowOffsetOuter1"/>
            <feGaussianBlur stdDeviation="1.5" in="shadowOffsetOuter1" result="shadowBlurOuter1"/>
            <feColorMatrix values="0 0 0 0 1 0 0 0 0 1 0 0 0 0 1 0 0 0 1 0" in="shadowBlurOuter1"/>
        </filter>
        <filter x="-78%" y="-317.6%" width="255.9%" height="735.2%" filterUnits="objectBoundingBox" id="f9jc4jq6pE">
            <feOffset in="SourceAlpha" result="shadowOffsetOuter1"/>
            <feGaussianBlur stdDeviation="1.5" in="shadowOffsetOuter1" result="shadowBlurOuter1"/>
            <feColorMatrix values="0 0 0 0 1 0 0 0 0 1 0 0 0 0 1 0 0 0 1 0" in="shadowBlurOuter1"/>
        </filter>
        <path d="M34.32 0c18.955 0 34.32 15.366 34.32 34.32v.172c0 18.955-15.365 34.32-34.32 34.32C15.366 68.812 0 53.447 0 34.492v-.172C0 15.366 15.366 0 34.32 0z" id="mv3ct8qnia"/>
        <path d="m97.283 97.384 3.051 2.58c-8.62 10.156-20.416 16.972-33.278 19.217-3.14.548-6.312.819-9.484.819-9.828 0-19.651-2.6-28.426-7.606l1.96-3.434a52.609 52.609 0 0 0 26.185 6.962c16.002-.001 30.335-7.192 39.992-18.538zM6.607 54.01l4.677.845a47.05 47.05 0 0 0-.585 7.508c.08 25.713 20.908 46.695 46.43 46.776h.145a45.6 45.6 0 0 0 15.093-2.564l1.638 4.5a50.291 50.291 0 0 1-16.701 2.847h-.16C29.003 113.833 6.04 90.698 5.95 62.348c-.009-2.84.223-5.623.656-8.338zm.38.96a50.455 50.455 0 0 0-.528 7.374c.088 27.863 22.824 50.602 50.685 50.69l.16.001c5.413 0 10.75-.868 15.873-2.58l-1.052-2.892a45.89 45.89 0 0 1-14.85 2.464l-.147-.001c-25.8-.08-46.856-21.46-46.938-47.658-.007-2.228.146-4.489.454-6.737l-3.657-.66zm.425 26.19a54.07 54.07 0 0 0 22.696 27.214l-1.962 3.436C16.484 104.866 8.483 95.271 3.713 82.506l3.699-1.346zm89.411 5.302 4.117 2.404C95.089 98.8 85.993 106.56 75.12 110.67l-1.638-4.5c9.823-3.726 18.042-10.736 23.341-19.71zm.13 1.011c-5.269 8.735-13.278 15.551-22.653 19.29l1.058 2.909c10.16-3.928 18.85-11.148 24.617-20.434l-3.022-1.765zm-56.885 13.16a41.48 41.48 0 0 0 17.179 3.724c3.372 0 6.743-.412 10.031-1.235l.704 2.616a44.257 44.257 0 0 1-29.044-2.652l1.13-2.453zm60.998-41.293c.954 12.494-3.266 25.288-12.697 34.788a43.527 43.527 0 0 1-19.233 11.3l-.704-2.616a40.95 40.95 0 0 0 18.012-10.613c8.86-8.927 12.83-20.917 11.941-32.63l2.681-.229zM31.012 26.265l1.559 2.237a41.527 41.527 0 0 0-5.056 4.33c-16.17 16.292-16.088 42.788.184 59.182a41.822 41.822 0 0 0 11.284 8.104l-1.13 2.454a44.422 44.422 0 0 1-12.056-8.64C8.49 76.497 8.403 48.218 25.6 30.892a43.944 43.944 0 0 1 5.412-4.627zm78.932 36.99 3.97.012c-.075 13.61-4.28 25.337-12.842 35.812l-3.05-2.581c7.379-9.06 11.832-20.629 11.922-33.243zm-19.87-39.627c10.927 9.47 17.894 23.464 17.942 39.043a51.145 51.145 0 0 1-6.487 25.16l-4.117-2.403a46.39 46.39 0 0 0 5.856-22.772c-.043-14.11-6.344-26.787-16.233-35.376l3.039-3.652zm.041 1.028-2.087 2.509c9.98 9.05 15.707 21.924 15.75 35.486.023 7.814-1.857 15.525-5.45 22.376l3.058 1.784a50.133 50.133 0 0 0 6.121-24.135c-.045-14.507-6.38-28.343-17.392-38.02zM67.245 6.143a58.62 58.62 0 0 1 3.495.779l.045.012.004.001c.23.059.454.118.678.179l.268.073-.043-.012c.373.102.746.208 1.116.318l.082.024.429.128.625.195.193.063.429.139.231.078.389.13c9.891 3.391 18.711 9.405 25.399 17.424 8.432 10.113 13.151 23.03 13.324 36.433l-3.97-.013c-.198-13.876-5.672-26.514-14.483-35.96 0 .003-.002.005-.003.008-5.47-5.866-12.225-10.503-19.803-13.44l-.585-.224-.537-.197.094.033a52.637 52.637 0 0 0-.11-.04l.016.007-.17-.061-.472-.167-.541-.185a52.555 52.555 0 0 0-.189-.063l-.46-.149-.56-.176a52.499 52.499 0 0 0-.5-.151l-.084-.025-.358-.105-.308-.087-.54-.149-.532-.14-.104-.027.013.003a52.556 52.556 0 0 0-.027-.007l.014.004-.613-.153-.607-.144-.044-.01-.348-.079-.285-.063-.61-.128a52.459 52.459 0 0 0-.637-.126l.68-3.95zm21.322 25.364c7.261 7.503 11.4 16.94 12.399 26.632l-2.683.229a42.083 42.083 0 0 0-11.629-24.933l1.913-1.928zm-31.86-13.54a44.202 44.202 0 0 1 31.01 12.686l-1.912 1.929c-8.11-7.934-18.61-11.905-29.086-11.905-8.109 0-16.205 2.38-23.17 7.139l-1.558-2.236c7.423-5.078 16.062-7.614 24.717-7.614zm.683-6.853c12.03.17 23.087 4.544 31.78 11.735l-3.04 3.653c-7.864-6.489-17.855-10.439-28.725-10.605l-.015-4.783zm.51.897.01 3.009c10.353.266 20.076 3.877 28.171 10.462l2.067-2.483C79.53 16.164 68.85 12.28 57.9 12.011zm-9.658-.2.329-.054-.6.101.619-.104.018-.003.343-.054c.237-.037.474-.071.712-.105l.149-.02-.6.086.624-.089.611-.08h.015l.07-.01.293-.034.27-.03.188-.02c.172-.019.343-.036.515-.053l.019-.002.119-.011-.08.008.183-.017-.103.009.42-.037.078-.007.048-.004.059-.005.269-.02.182-.014.058-.004h-.012l.544-.035-.051.003.099-.006.028-.002.112-.006.227-.013.173-.008.056-.003.044-.002.16-.007-.075.003c.173-.008.346-.015.52-.02h-.016l.053-.002.272-.008-.14.004c.162-.006.324-.01.487-.013h-.018l.043-.001.646-.01h.001l.014 4.782a46.25 46.25 0 0 0-3.03.13l-.6.05c-.2.018-.399.037-.598.057l-.595.065-.594.073c-.197.025-.394.052-.59.08l-.513.076.513-.077-.567.085.054-.008-.075.011c-.196.03-.391.062-.586.095l-.104.018-.48.085c-9.315 1.698-17.65 6.222-24.103 12.658l-.001-.007a46.342 46.342 0 0 0-12.859 24.394l-4.676-.846c3.77-20.534 19.72-36.75 40.022-40.765l.476-.091-.571.111.614-.119.01-.002.173-.033c.235-.042.47-.084.705-.123zm4.391.347-.046.003-.01.001c-.422.035-.842.074-1.261.119l-.628.071-.625.079-.076.01.06-.008-.607.084.547-.075-.547.076c-9.746 1.418-18.67 5.664-25.832 11.935l-.002-.012C15.574 31.47 9.762 41.05 7.5 52.065l3.638.657c3.287-16.432 14.92-29.5 29.896-34.956l.24-.085.323-.116a45.838 45.838 0 0 1 1.708-.56l.197-.058.563-.166.567-.16-.518.145.344-.097c.386-.107.774-.21 1.164-.307l.071-.017a45.63 45.63 0 0 1 1.23-.287l-.503.113.377-.086c.197-.043.394-.086.591-.127l.084-.017a45.6 45.6 0 0 1 .187-.038l.323-.064.102-.02.494-.091a45.605 45.605 0 0 1 1.11-.186l.09-.014.011-.002.053-.008.319-.046.22-.032.022-.003c.16-.022.322-.044.484-.064l.1-.013.198-.025.409-.047c.406-.046.813-.086 1.221-.12h.004l.06-.005.015-.001a.742.742 0 0 1 .047-.004l.037-.003.024-.002a44.979 44.979 0 0 1 2.705-.138l-.009-3.01-.77.022-.767.032-.765.044-.762.055zm.308-2.882-.408.029a52.66 52.66 0 0 0-.042.003h.008l-.313.025.02-.002c-.205.017-.41.036-.616.055l.088-.007-.25.023-.257.027.064-.008-.447.048.383-.04-.469.05-.367.042-.347.044.162-.021-.174.022.012-.001-.386.05.018-.003-.105.014.087-.011-.43.059-.29.042-.779.122.149-.024-.163.026.014-.002-.036.006-.103.017-.601.104-.285.052-.37.07.29-.056-.328.062.038-.006-.29.056c-.184.036-.367.073-.55.112l-.138.029.026-.006-.065.014.039-.008-.375.08.016-.003-.15.033.134-.03-.441.1-.39.09.109-.025.02-.005.017-.004-.037.009-.402.096-.32.078-.398.102-.248.064-.35.094-.418.115.199-.056-.22.061.021-.005-.295.083-.425.124.315-.093-.336.099.021-.006-.2.06c-.078.022-.156.046-.234.07l-.146.045-.303.094c-.183.058-.366.116-.548.176l-.118.039-.456.152a52.06 52.06 0 0 0-.064.022l.034-.011-.579.2-.711.258.083-.03-.088.032.005-.002-.064.024a52.04 52.04 0 0 0-.172.064l-.489.187.226-.087-.26.1.034-.013-.208.08.03-.011-.175.069.145-.057-.592.236-.098.04.015-.006-.045.018.03-.012-.622.259a52.14 52.14 0 0 0-.549.236l.193-.083-.343.15-.167.073-.142.064-.614.28-.643.304-.437.214-.132.065-.505.254-.154.08-.393.203c-.196.103-.39.207-.585.312l-.197.107-.402.222-.348.196-.23.132-.121.07-.267.155-.59.35-.12.074-.05.03-.45.278-.207.129-.469.299-.172.11-.583.385-.236.16-.348.237-.27.187-.281.198-.321.228-.014.01c-.476.342-.946.692-1.41 1.05l-.332.258-.139.11-.036.027-.514.412-.286.234-.002.002-.424.352A53.097 53.097 0 0 0 3.964 62.367a53.67 53.67 0 0 0 3.05 17.701l-3.698 1.347A57.728 57.728 0 0 1 0 62.332c-.07-22.826 13.461-43.48 34.017-52.477l.207-.09.078-.032.037-.017.07-.03-.039.017a55.6 55.6 0 0 1 .677-.286l.042-.017.236-.098.347-.14-.278.113c.134-.055.27-.11.405-.163l.066-.026.12-.048.45-.174-.312.12c.259-.1.519-.2.78-.298l-.324.122.071-.027.358-.134.312-.114c4.894-1.78 9.675-2.869 14.518-3.278a52.226 52.226 0 0 1 4.425-.186c.929 0 1.862.024 2.801.073l.941.056.944.073.948.088a59.783 59.783 0 0 1 4.214.579l-.68 3.95a53.23 53.23 0 0 0-5.93-.662 53.095 53.095 0 0 0-2.71-.078l-.085-.001h-.102l-.738.006a53.16 53.16 0 0 0-.963.022l-.136.005.023-.001-.13.004.107-.003-.752.031-.748.042-.08.005-.246.018.065-.006-.277.02.212-.014z" id="a04tptvtfm"/>
        <path d="M9.85 10.157c-.001.031-.005.062-.005.094a3.473 3.473 0 0 0 3.467 3.479 3.473 3.473 0 0 0 3.468-3.48c0-.031-.004-.062-.005-.093H9.85z" id="mzx3wcw16o"/>
        <path d="M13.14 0C7.25.028 2.204 3.625.029 8.745a.34.34 0 0 0 .273.474 126.798 126.798 0 0 0 25.769.005.34.34 0 0 0 .26-.502C23.498 3.494 18.53.027 13.274 0h-.133z" id="4ysvxtu9dt"/>
        <path d="M2.886 1.417c1.594 0 2.887-.317 2.887-.709C5.773.318 4.48 0 2.886 0S0 .317 0 .708c0 .392 1.292.709 2.886.709z" id="ka7gcdt0nw"/>
        <path d="M0 .708c0 .392 1.292.709 2.886.709S5.773 1.1 5.773.708C5.773.318 4.48 0 2.886 0S0 .317 0 .708" id="ci29sqcjkz"/>
        <path d="M2.886 1.417c1.594 0 2.887-.317 2.887-.709C5.773.318 4.48 0 2.886 0S0 .317 0 .708c0 .392 1.292.709 2.886.709z" id="ivixpxmtrB"/>
        <path d="M0 .708c0 .392 1.292.709 2.886.709S5.773 1.1 5.773.708C5.773.318 4.48 0 2.886 0S0 .317 0 .708" id="id25f5ya0D"/>
        <path d="M0 .708c0 .392 1.292.709 2.886.709S5.773 1.1 5.773.708C5.773.318 4.48 0 2.886 0S0 .317 0 .708" id="m0xabvscjF"/>
        <radialGradient cx="81.987%" cy="26.992%" fx="81.987%" fy="26.992%" r="106.724%" gradientTransform="scale(-1 -.9975) rotate(-64.332 -.43 1.303)" id="t2lwxs7xqb">
            <stop stop-color="#23E4DE" offset="0%"/>
            <stop stop-color="#00C3D5" offset="53.358%"/>
            <stop stop-color="#004167" offset="100%"/>
        </radialGradient>
        <radialGradient cx="50%" cy="31.847%" fx="50%" fy="31.847%" r="98.082%" gradientTransform="scale(-1 -.9975) rotate(50.789 .672 -1.054)" id="5kf5avpulg">
            <stop stop-color="#FFF300" offset="0%"/>
            <stop stop-color="#FFC300" offset="100%"/>
        </radialGradient>
        <radialGradient cx="26.29%" cy="34.921%" fx="26.29%" fy="34.921%" r="488.51%" gradientTransform="matrix(.16216 0 0 .14979 .22 .297)" id="z6rz44eyur">
            <stop stop-color="#E8E8E8" offset="0%"/>
            <stop stop-color="#FFF" offset="100%"/>
            <stop stop-color="#FFF" offset="100%"/>
        </radialGradient>
        <radialGradient cx="50%" cy="0%" fx="50%" fy="0%" r="100%" gradientTransform="matrix(0 1 -.37455 0 .5 -.5)" id="llw5knrgqu">
            <stop stop-color="#FFF" offset="0%"/>
            <stop stop-color="#00D5E2" offset="100%"/>
        </radialGradient>
        <radialGradient cx="50%" cy="24.659%" fx="50%" fy="24.659%" r="52.202%" gradientTransform="matrix(0 -1 1.1125 0 .226 .747)" id="ectuon6rcx">
            <stop stop-color="#FFFB00" offset="0%"/>
            <stop stop-color="#FFE000" offset="100%"/>
        </radialGradient>
        <linearGradient x1="49.999%" y1="65.216%" x2="49.999%" y2="13.014%" id="wbqajdxc9p">
            <stop stop-color="#FFF" offset="0%"/>
            <stop stop-color="#FFF" offset="100%"/>
        </linearGradient>
        <linearGradient x1="96.474%" y1="49.928%" x2="83.814%" y2="50.231%" id="8019bsxg4q">
            <stop stop-color="#797C7B" offset="0%"/>
            <stop stop-color="#B7B7B7" offset="42.679%"/>
            <stop stop-color="#797C7B" offset="100%"/>
        </linearGradient>
        <ellipse id="7jna4at5vf" cx="11.669" cy="11.698" rx="11.669" ry="11.698"/>
        <text id="zsh76gxl7j" font-family="Exo2-ExtraBoldItalic, Exo 2" font-size="9.239" font-style="italic" font-weight="600" fill="#FFF300">
            <tspan x="14.23" y="43.922">USA TUS </tspan>
            <tspan x="16.442" y="54.922">LLAVES</tspan>
        </text>
    </defs>
    <g fill="none" fill-rule="evenodd">
        <g transform="rotate(15 -103.154 178.603)">
            <mask id="yyajecahfc" fill="#fff">
                <use xlink:href="#mv3ct8qnia"/>
            </mask>
            <use fill="url(#t2lwxs7xqb)" fill-rule="nonzero" xlink:href="#mv3ct8qnia"/>
            <path d="M-18.266-.564a36.363 36.363 0 0 0-6.075 7.47l-.625 1.04c-.201.348-.403.697-.585 1.057-.178.365-.34.738-.507 1.103l-.462 1.122a35.863 35.863 0 0 0-1.36 4.16c-1.433-.457-2.868-.913-4.296-1.38-.055.214-.11.428-.158.642 1.546.562 3.08 1.141 4.615 1.72l.432.159.142-.46a40.362 40.362 0 0 1 1.637-4.417l.495-1.067c.17-.348.356-.693.522-1.05.182-.345.348-.702.51-1.058.178-.35.36-.695.546-1.044a35.507 35.507 0 0 1 5.62-7.537l-.45-.46zM21.13 75.283a51.368 51.368 0 0 1-1.875-5.575l-.11-.404-.427.071a42.13 42.13 0 0 1-6.843.571c-2.286.056-4.58-.008-6.857-.265a47.861 47.861 0 0 1-6.765-1.241 43.717 43.717 0 0 1-6.513-2.248l-.265.59a49.04 49.04 0 0 0 6.557 2.462 46.418 46.418 0 0 0 6.858 1.468c2.322.309 4.667.48 7.017.415a51.309 51.309 0 0 0 6.565-.745 51.298 51.298 0 0 0 1.926 5.214 35.272 35.272 0 0 0 1.68 3.379c.179-.008.357-.02.535-.036h.004c.08-.004.154-.012.233-.017a34.442 34.442 0 0 1-1.72-3.639zM-30.07 40.89c-.356.048-.715.083-1.072.112l-.533.035c-.09 0-.178.012-.269 0a.728.728 0 0 0-.269.008c-.273.068-.55.134-.827.21.092.334.182.662.28.987.242.004.483-.003.724-.023.186-.016.357-.134.54-.167l.533-.166c.351-.115.704-.238 1.052-.365l-.159-.631zm17.783-38.777c.178.27.437.478.635.729a16.655 16.655 0 0 0 2.095 1.964l.43-.48a15.787 15.787 0 0 1-1.715-2.122 5.905 5.905 0 0 1-.24-.385 2.161 2.161 0 0 0-.232-.387 24.344 24.344 0 0 1-1.057-1.468 12.365 12.365 0 0 1-.897-1.59l-.599.241c.205.601.424 1.202.682 1.79.255.59.554 1.162.898 1.708zm8.406-14.042a41.567 41.567 0 0 1 3.375-2.181c.29-.168.57-.348.845-.541.282-.181.57-.353.857-.524l.879-.489.893-.465a34.302 34.302 0 0 1 3.703-1.595l-.2-.614c-1.317.386-2.614.85-3.88 1.389l-.946.418-.933.446c-.608.325-1.248.594-1.836.96a30.938 30.938 0 0 0-3.325 2.465 40.068 40.068 0 0 0-3.002 2.83l.452.46a30.85 30.85 0 0 1 3.118-2.56zm54.302-3.228a17.286 17.286 0 0 0-3.32 2.331 43.498 43.498 0 0 0-6.623-3.16l-1.805-.645c-.608-.19-1.213-.39-1.83-.564-.617-.154-1.242-.289-1.864-.432l-1.882-.345a42.756 42.756 0 0 0-7.614-.56c-2.547.04-5.086.298-7.582.766l.115.64a40.592 40.592 0 0 1 7.464-.537c2.495.053 4.983.31 7.427.77l1.828.388c.6.154 1.202.318 1.807.46.593.175 1.199.326 1.8.484l1.783.56a42.554 42.554 0 0 1 6.823 3.044l.273.155.217-.21a16.422 16.422 0 0 1 3.599-2.67c-.206-.161-.407-.32-.616-.475zm2.966 20.174-5.205 2.401-2.603 1.202c-.7.32-1.399.644-2.103.958-.473-.915-1.017-1.791-1.547-2.674a106.498 106.498 0 0 0-1.932-3.053 135.355 135.355 0 0 0-4.146-5.904l-.523.376a102.258 102.258 0 0 1 3.856 6.04c.61 1.027 1.211 2.058 1.792 3.1.59 1.037 1.122 2.105 1.746 3.123l.294.481.452-.244c.84-.454 1.696-.88 2.545-1.316l2.554-1.303 5.105-2.607-.285-.58zm19.71 29.43c3.322-.233 6.585-1.05 9.638-2.33l.519-.218-.352-.43a37.453 37.453 0 0 1-4.854-7.505l-.58.282a40.143 40.143 0 0 0 4.44 7.292 30.227 30.227 0 0 1-8.875 1.867c-1.6.083-3.21.028-4.793-.178-1.586-.207-3.14-.583-4.66-1.058-3.052-.964-5.9-2.562-8.411-4.569a27.104 27.104 0 0 1-6.317-7.26l-.198-.333-.316.215c-.562.376-1.183.658-1.839.887-.226.076-.455.151-.685.219.025.032.052.063.076.095.122.159.249.317.376.476.15-.044.3-.092.45-.139a9.082 9.082 0 0 0 1.697-.737 27.979 27.979 0 0 0 6.174 7.291c2.547 2.141 5.486 3.807 8.626 4.948 1.578.576 3.232.909 4.89 1.095 1.66.186 3.333.21 4.994.09zM27.323 15.775l.185.619c-4.076 1.25-7.889 3.317-11.194 5.991-3.307 2.674-6.125 5.952-8.22 9.639A33.258 33.258 0 0 0 5.51 37.82c-.678 2.005-1.241 4.058-1.571 6.158-.658 4.196-.604 8.596.33 12.75l.083.372-.35.124c-2.091.75-4.323.988-6.508.833-2.184-.164-4.351-.723-6.298-1.753l.297-.574c1.869.952 3.957 1.457 6.05 1.58 1.97.108 3.966-.127 5.817-.764-.948-4.134-1.056-8.518-.464-12.723.303-2.167.765-4.322 1.493-6.392a34.262 34.262 0 0 1 2.766-5.955c.266-.452.143-.394.428-.832a57.952 57.952 0 0 1-5.43-2.441l-1.46-.775-1.434-.815c-.47-.287-.943-.57-1.42-.846-.47-.288-.937-.582-1.391-.894a56.827 56.827 0 0 1-5.133-4.162 63.215 63.215 0 0 1-4.617-4.71l.476-.436a53.262 53.262 0 0 0 4.749 4.447 60.524 60.524 0 0 0 5.198 3.883c.452.298.891.612 1.327.933.445.307.895.607 1.348.905l1.38.856 1.402.817a57.186 57.186 0 0 0 5.39 2.674c2.043-2.996 4.957-6.163 7.811-8.375 3.444-2.67 7.374-4.707 11.545-5.931z" fill="#FFF" opacity=".2" mask="url(#yyajecahfc)"/>
            <g mask="url(#yyajecahfc)">
                <path d="M15.315 21.772a34.747 34.747 0 0 0-7.411 7.875 57.571 57.571 0 0 1-5.39-2.674l-1.403-.819-1.379-.856a64.942 64.942 0 0 1-1.347-.905c-.437-.32-.875-.634-1.327-.933a60.352 60.352 0 0 1-5.199-3.883 53.262 53.262 0 0 1-4.748-4.446l-.476.437a63.2 63.2 0 0 0 4.617 4.709 56.967 56.967 0 0 0 5.131 4.161c.456.312.923.606 1.392.896.478.275.95.557 1.42.845l1.436.815 1.457.774A58.1 58.1 0 0 0 7.52 30.21c-.287.438-.563.882-.829 1.335a34.214 34.214 0 0 0-2.766 5.953c-.728 2.071-1.19 4.226-1.494 6.392a34.975 34.975 0 0 0 .524 12.651c-1.85.64-3.847.873-5.817.764-2.093-.122-4.181-.626-6.049-1.578l-.298.573c1.948 1.031 4.114 1.589 6.3 1.753 2.184.154 4.415-.083 6.507-.832l.35-.125-.085-.372c-.933-4.153-1.046-8.482-.388-12.678.329-2.1.892-4.153 1.571-6.158a33.295 33.295 0 0 1 2.586-5.798c2.094-3.686 4.912-6.964 8.218-9.638 3.307-2.674 7.12-4.74 11.195-5.99l-.185-.62c-4.17 1.225-8.1 3.26-11.545 5.931M68.25 33.137c-1.657-.187-3.31-.52-4.888-1.095-3.14-1.141-6.08-2.807-8.626-4.948a27.965 27.965 0 0 1-6.175-7.291 8.97 8.97 0 0 1-1.696.737c-.38.122-.755.23-1.131.328a36.135 36.135 0 0 1-.435-.562c.454-.135.91-.266 1.348-.416.658-.23 1.278-.512 1.84-.888l.317-.214.197.332a27.145 27.145 0 0 0 6.316 7.26c2.511 2.006 5.36 3.605 8.413 4.568 1.519.476 3.073.852 4.659 1.058 1.582.207 3.191.262 4.793.179a30.242 30.242 0 0 0 8.876-1.868 40.148 40.148 0 0 1-4.442-7.291l.582-.282a37.487 37.487 0 0 0 4.852 7.507l.352.428-.518.217c-3.053 1.281-6.316 2.098-9.639 2.332a27.34 27.34 0 0 1-4.995-.091M53.41 4.24l-5.206 2.402-2.603 1.2c-.7.322-1.398.646-2.102.96-.474-.916-1.019-1.792-1.549-2.675a108.957 108.957 0 0 0-1.93-3.052 136.318 136.318 0 0 0-4.146-5.904l-.523.376a102.83 102.83 0 0 1 3.856 6.04c.61 1.026 1.21 2.058 1.79 3.1.59 1.036 1.124 2.105 1.748 3.123l.294.48.452-.243c.84-.455 1.696-.88 2.545-1.316l2.553-1.304 5.106-2.606-.285-.58z" fill="#015678" opacity=".806"/>
                <path d="M50.98-14.682a16.325 16.325 0 0 0-3.6 2.669l-.217.21-.273-.155a42.505 42.505 0 0 0-6.823-3.046l-1.783-.559c-.602-.158-1.207-.308-1.8-.483-.605-.142-1.206-.305-1.808-.46l-1.826-.389a45.268 45.268 0 0 0-7.429-.768 40.669 40.669 0 0 0-7.462.534l-.115-.637a44.985 44.985 0 0 1 7.582-.766 42.66 42.66 0 0 1 7.614.56l1.882.344c.62.143 1.245.278 1.863.433.617.174 1.222.372 1.83.562l1.804.647a43.355 43.355 0 0 1 6.625 3.16 17.138 17.138 0 0 1 3.318-2.332c.21.154.412.313.618.476M-4.343-11.863a41.568 41.568 0 0 1 3.374-2.18c.289-.168.57-.349.844-.542.283-.18.57-.352.859-.523l.878-.49.893-.464a34.61 34.61 0 0 1 3.702-1.596l-.2-.613c-1.317.385-2.612.85-3.88 1.388l-.945.418-.933.446c-.607.325-1.249.595-1.835.96a31.364 31.364 0 0 0-3.327 2.464 40.312 40.312 0 0 0-3.001 2.832l.453.459c.98-.925 2.03-1.774 3.118-2.559M-12.084 1.598c.178.27.437.478.636.728A16.632 16.632 0 0 0-9.354 4.29l.432-.48a15.802 15.802 0 0 1-1.716-2.121 5.569 5.569 0 0 1-.24-.385 2.166 2.166 0 0 0-.234-.387 23.85 23.85 0 0 1-1.055-1.469 12.372 12.372 0 0 1-.899-1.59l-.598.242c.206.6.425 1.202.682 1.79.256.589.555 1.16.898 1.708M23.57 79.249c-.248.023-.501.048-.75.063h-.005a34.714 34.714 0 0 1-2.04-3.996 51.132 51.132 0 0 1-1.926-5.214 51.326 51.326 0 0 1-6.566.745c-2.35.064-4.695-.107-7.016-.416a46.53 46.53 0 0 1-6.858-1.467 49.347 49.347 0 0 1-6.558-2.462l.265-.591a43.522 43.522 0 0 0 6.514 2.248c2.223.579 4.485.987 6.763 1.24 2.278.26 4.572.323 6.859.267 2.29 0 4.579-.198 6.841-.571l.427-.071.111.404a51.275 51.275 0 0 0 1.875 5.574 32.97 32.97 0 0 0 2.065 4.247M-17.815-.38a35.58 35.58 0 0 0-5.62 7.538c-.186.348-.368.693-.546 1.042-.163.357-.328.713-.51 1.058-.166.357-.352.702-.522 1.052l-.495 1.066a40.07 40.07 0 0 0-1.637 4.417l-.143.46-.43-.158a439.288 439.288 0 0 0-4.616-1.721c.048-.214.103-.428.158-.642 1.427.468 2.864.923 4.295 1.38.367-1.413.823-2.8 1.361-4.16l.462-1.122c.166-.365.329-.738.507-1.103.182-.36.383-.709.585-1.058l.626-1.04a36.351 36.351 0 0 1 6.073-7.47l.452.46z" fill="#AD5D04"/>
            </g>
            <ellipse fill="#FFF" opacity=".472" filter="url(#nnfc9zdlrd)" mask="url(#yyajecahfc)" transform="rotate(-125 53.47 14.335)" cx="53.47" cy="14.335" rx="8.594" ry="5.839"/>
        </g>
        <g transform="rotate(15 -148.25 256.52)">
            <g transform="matrix(1 0 0 -1 0 23.396)">
                <use fill="#000" filter="url(#nhuzeu1eye)" xlink:href="#7jna4at5vf"/>
                <use fill="url(#5kf5avpulg)" xlink:href="#7jna4at5vf"/>
                <use fill="#000" filter="url(#t1j4gdt90h)" xlink:href="#7jna4at5vf"/>
            </g>
            <ellipse fill-opacity=".22" fill="#FFF" transform="rotate(55 5.707 4.462)" cx="5.707" cy="4.462" rx="1.952" ry="3.414"/>
            <ellipse fill-opacity=".22" fill="#FFF" transform="rotate(55 17.376 17.75)" cx="17.376" cy="17.749" rx="1.952" ry="3.414"/>
            <path d="M17.04 6.592a3.464 3.464 0 0 0-4.907 0 3.487 3.487 0 0 0-.65 4.017L6.096 16.01l-.004 1.558 3.013.003v-1.469h1.465v-1.469h1.466v-1.469l.998-1c1.3.652 2.923.435 4.007-.652a3.485 3.485 0 0 0 0-4.92zm-1.102 2.594c-.41.41-1.075.41-1.484 0a1.054 1.054 0 0 1 0-1.488c.41-.41 1.074-.41 1.484 0 .41.41.41 1.077 0 1.488z" fill="#005C7B" fill-rule="nonzero"/>
        </g>
        <g fill-rule="nonzero" fill="#FFF300" transform="rotate(15 -103.154 178.603)">
            <use filter="url(#tachevro2i)" xlink:href="#zsh76gxl7j"/>
            <use xlink:href="#zsh76gxl7j"/>
        </g>
        <g opacity=".252" fill-rule="nonzero" filter="url(#xpez1a5dhk)" transform="translate(10 12)">
            <use fill="#000" filter="url(#ubq6kaskul)" xlink:href="#a04tptvtfm"/>
            <use fill="#00FFF7" xlink:href="#a04tptvtfm"/>
        </g>
        <g>
            <g transform="scale(-1 1) rotate(-15 72.666 469.994)">
                <use fill="#000" filter="url(#d7p8pfhukn)" xlink:href="#mzx3wcw16o"/>
                <use fill="url(#wbqajdxc9p)" xlink:href="#mzx3wcw16o"/>
            </g>
            <path d="m99.608 40.193 8.095 2.17c.216.057.448-.002.61-.156l1.285-1.218-10.944-2.933.503 1.697a.645.645 0 0 0 .451.44" fill="#2D2D2D"/>
            <path d="m93.45 27.931 25.717 6.891-1.511 5.64a26.84 26.84 0 0 1-8.181.88l-10.881-2.916a26.89 26.89 0 0 1-6.655-4.854l1.511-5.64z" fill="#515554"/>
            <path d="M0 1.491c0 2.848 14.236 5.156 31.798 5.156 17.562 0 31.799-2.308 31.799-5.156V.058L0 0v1.491z" transform="scale(-1 1) rotate(-15 83.207 540.03)" fill="url(#8019bsxg4q)"/>
            <path d="M0 5.156c0 2.848 14.236 5.157 31.798 5.157 17.562 0 31.799-2.309 31.799-5.157S49.36 0 31.798 0C14.236 0 0 2.308 0 5.156" transform="scale(-1 1) rotate(-15 63.978 542.562)" fill="url(#z6rz44eyur)" fill-rule="nonzero"/>
            <path d="M107.322 27.596c7.54 2.02 14.518 4.324 19.65 6.488 7.256 3.06 7.52 4.413 7.429 4.756-.092.342-.998 1.382-8.812.403-5.526-.692-12.722-2.186-20.261-4.206-7.54-2.02-14.518-4.324-19.65-6.488-7.257-3.06-7.521-4.413-7.43-4.755.092-.343.998-1.383 8.813-.404 5.526.692 12.721 2.186 20.26 4.206m-2.09 7.801c7.556 2.024 14.769 3.522 20.311 4.216 3.989.5 8.825.788 9.218-.677.392-1.465-3.94-3.634-7.644-5.196-5.147-2.17-12.143-4.48-19.698-6.504-7.555-2.024-14.768-3.522-20.31-4.216-3.99-.5-8.826-.788-9.218.677-.393 1.465 3.94 3.634 7.644 5.196 5.147 2.17 12.142 4.48 19.697 6.504" fill="#C4C4C4"/>
            <path d="M82.478 24.25c-.404 1.507 10.02 5.61 23.285 9.164 13.264 3.554 24.343 5.214 24.747 3.706.404-1.507-10.021-5.61-23.285-9.164-13.264-3.554-24.344-5.213-24.747-3.706" fill="#E9E9E9"/>
            <path d="M91.704 25.116c-.173.646 6.488 2.992 14.878 5.24 8.39 2.249 15.331 3.547 15.505 2.9.173-.646-6.488-2.992-14.878-5.24s-15.332-3.546-15.505-2.9" fill="#C4C4C4"/>
            <g transform="scale(-1 1) rotate(-15 28.836 475.276)">
                <use fill="#000" filter="url(#8gjrkf2izs)" xlink:href="#4ysvxtu9dt"/>
                <use fill="url(#llw5knrgqu)" xlink:href="#4ysvxtu9dt"/>
            </g>
            <path d="M108.603 20.083c-4.928-1.026-10.337 1.039-14.265 5.185a.34.34 0 0 0 .12.552c2.297.873 4.764 1.735 7.395 2.554l.068.021a126.739 126.739 0 0 0 14.022 3.494c-3.796-.998-9.447-2.75-13.43-4.276 2.76-3.233 8.483-5.265 10.349-5.862a14.229 14.229 0 0 0-2.405-1.136c-2.851 1.074-7.398 3.17-9.745 6.273a21.609 21.609 0 0 1-1.753-.825c-.392-.154.1-.563.268-.74 2.651-2.798 5.978-4.648 9.376-5.24z" fill="#FFF" opacity=".5"/>
            <path d="M107.23 20.322c-1.039-.222-2.102-.161-3.139.01-1.036.182-2.05.503-3.01.936-.24.107-.472.234-.707.353-.116.06-.234.119-.349.184l-.336.206c-.223.14-.445.28-.663.426-.21.16-.42.316-.625.48-.103.08-.207.16-.307.243-.099.087-.194.178-.29.266-.191.18-.38.362-.563.547-.187.181-.348.392-.515.592-.164.205-.326.409-.475.624l.126.137c.47-.236.893-.513 1.328-.768.221-.124.437-.25.652-.378.106-.065.21-.132.319-.194.11-.057.218-.12.327-.179.218-.118.43-.244.644-.367l.654-.343.324-.177.33-.16.66-.326a28.641 28.641 0 0 1 2.726-1.105 24.606 24.606 0 0 1 2.881-.82l.009-.187z" fill="#FFF"/>
            <path d="M111.762 21.162c4.364 2.094 7.316 6.25 7.976 10.935a.34.34 0 0 1-.387.388c-.473-.076-.951-.157-1.434-.24-.518-4.553-2.743-8.597-6.155-11.083" fill="#000" opacity=".1"/>
            <g transform="scale(-1 1) rotate(-15 52.546 341.2)">
                <use fill="#000" filter="url(#x947izj1tv)" xlink:href="#ka7gcdt0nw"/>
                <use fill="url(#ectuon6rcx)" xlink:href="#ka7gcdt0nw"/>
            </g>
            <g transform="scale(-1 1) rotate(-15 74.627 519.18)">
                <use fill="#000" filter="url(#m3fas1mz6y)" xlink:href="#ci29sqcjkz"/>
                <use fill="url(#ectuon6rcx)" xlink:href="#ci29sqcjkz"/>
            </g>
            <g transform="scale(-1 1) rotate(-15 65.955 377.422)">
                <use fill="#000" filter="url(#xik9p98yvA)" xlink:href="#ivixpxmtrB"/>
                <use fill="url(#ectuon6rcx)" xlink:href="#ivixpxmtrB"/>
            </g>
            <g transform="scale(-1 1) rotate(-15 77.948 478.777)">
                <use fill="#000" filter="url(#obdipqfeeC)" xlink:href="#id25f5ya0D"/>
                <use fill="url(#ectuon6rcx)" xlink:href="#id25f5ya0D"/>
            </g>
            <g transform="scale(-1 1) rotate(-15 73.17 429.39)">
                <use fill="#000" filter="url(#f9jc4jq6pE)" xlink:href="#m0xabvscjF"/>
                <use fill="url(#ectuon6rcx)" xlink:href="#m0xabvscjF"/>
            </g>
        </g>
    </g>
</svg>
