<svg width="87" height="30" viewBox="0 0 87 30" xmlns="http://www.w3.org/2000/svg">
    <defs>
        <filter id="cgy75w8nka">
            <feColorMatrix in="SourceGraphic" values="0 0 0 0 1.000000 0 0 0 0 1.000000 0 0 0 0 1.000000 0 0 0 1.000000 0"/>
        </filter>
        <filter id="l7jxnfjw9b">
            <feColorMatrix in="SourceGraphic" values="0 0 0 0 0.000000 0 0 0 0 0.462745 0 0 0 0 0.537255 0 0 0 1.000000 0"/>
        </filter>
    </defs>
    <g transform="translate(-76.5 -39)" filter="url(#cgy75w8nka)" fill="none" fill-rule="evenodd">
        <g transform="translate(77 39)" filter="url(#l7jxnfjw9b)">
            <g fill="#007689" fill-rule="nonzero">
                <path d="M41.165 7.416c.358 0 .655.296.655.65v3.253c.894-.296 1.787-.533 3.097-.533 3.393 0 5.716 2.011 5.716 6.032 0 3.962-2.323 5.972-6.788 5.972-2.084 0-4.585-.532-5.716-1.182V8.066c0-.354.298-.65.655-.65h2.381zm20.84 0c.357 0 .655.296.655.65v3.548h2.977c.357 0 .655.296.655.65v1.243c0 .354-.298.65-.655.65H62.66v3.903c0 1.478.774 2.247 1.905 2.247.536 0 .953-.118 1.489-.118h.416c.358 0 .655.295.655.65v1.124c0 .295-.297.59-.655.65-.774.06-1.964.177-2.917.177-3.037 0-4.585-1.537-4.585-4.79V8.067c0-.354.298-.65.655-.65h2.382zm12.087 3.311c3.87 0 6.192 2.07 6.192 5.854v.592c0 .355-.298.65-.655.65h-7.978v.06c.178 1.714.952 2.483 2.738 2.483.894 0 1.727-.237 2.084-.71.298-.354.655-.59 1.191-.59h1.608c.357 0 .655.295.655.65 0 2.247-2.322 3.015-5.835 3.015-3.87 0-6.193-2.07-6.193-5.972 0-3.903 2.382-6.032 6.193-6.032zm11.253-3.311c.357 0 .655.296.655.65v13.897c0 .354-.298.65-.655.65h-2.382v-.06a.659.659 0 0 1-.655-.65V8.066c0-.354.298-.65.655-.65h2.382zM55.634 11.2c.357 0 .655.296.655.65v10.053c0 .355-.298.65-.655.65h-2.382a.659.659 0 0 1-.655-.65V11.851c0-.355.298-.65.655-.65h2.382zm-11.491 2.07c-.536 0-1.43.177-2.323.414v6.268c.477.118 1.37.237 2.263.237 2.024 0 2.739-1.065 2.739-3.43 0-2.425-.715-3.489-2.68-3.489zm30.008-.118c-1.607 0-2.44.887-2.5 2.483h4.941c-.059-1.596-.833-2.483-2.44-2.483zM55.098 7.12c.774 0 1.19.473 1.19 1.242v.355c0 .769-.475 1.182-1.19 1.182h-1.31c-.774 0-1.25-.473-1.25-1.182v-.355c0-.769.476-1.242 1.25-1.242h1.31zM22.332 0c3.042.02 13.757 1.123 11.605 15.88 0 0-1.966 11.183-3.872 13.49 0 0-1.311 2.427-2.026-2.248 0 0-.536-5.917-4.826-4.91-.086 0-2.887.783-5.765 1.595l-.64.18c-2.66.753-5.221 1.48-5.586 1.584l-.044.013S.811 28.128.037 18.72c0 0-.032-.29-.037-.798v-.25C.035 13.924 1.642 1.33 21.545.022c0 0 .214-.018.587-.022zm5.111 9.667c-.477 0-1.251.178-1.49.65-.357.652-.297 4.794-.059 6.865.06.532.179 1.124.358 1.479.297.65 1.31 1.834 2.144 1.834.417 0 .656-.059.894-.237.715-.473 1.251-5.976.953-8.224-.06-.414-.119-.888-.298-1.184-.536-1.005-1.966-1.183-2.502-1.183zM12.37 8.484c-.894 0-1.788.591-2.324 1.183-.09.089-.31.396-.614.85l-.243.366c-.483.733-1.109 1.719-1.75 2.757l-.297.482-.296.485c-1.326 2.184-2.548 4.33-2.52 4.646.12.828 1.192 1.183 1.847 1.183.477 0 1.311-.178 1.61-.65.535-.83 1.608-2.427 2.8-4.084.118.77.595 2.9 1.012 3.314.596.532 1.668.77 2.383.77.477 0 1.192-.12 1.668-.593a105.21 105.21 0 0 1 2.86-2.958c.298 1.183 1.132 3.61 2.8 3.61.656 0 2.205-.415 2.443-1.362.06-.236.06-.473-.119-.71-.179-1.538-1.906-5.976-2.383-6.213-.358-.236-.715-.236-.953-.236-.954 0-2.205.592-2.8 1.183-.197.195-.578.6-1.038 1.066l-.358.359c-.432.427-.904.872-1.345 1.238-.298-1.243-.298-3.018-.477-4.32-.119-1.005-.298-2.366-1.906-2.366zm15.49-3.906c-1.37 0-2.383.947-2.383 2.13 0 1.184 1.072 2.13 2.383 2.13 1.31 0 2.383-.946 2.383-2.13 0-1.183-1.072-2.13-2.383-2.13z"/>
            </g>
        </g>
    </g>
</svg>
