<?xml version="1.0" encoding="utf-8"?>
<!-- Generator: Adobe Illustrator 24.0.2, SVG Export Plug-In . SVG Version: 6.00 Build 0)  -->
<svg version="1.1" id="Layer_1" xmlns="http://www.w3.org/2000/svg" xmlns:xlink="http://www.w3.org/1999/xlink" x="0px" y="0px"
	 viewBox="0 0 7.6 7.4" style="enable-background:new 0 0 7.6 7.4;" xml:space="preserve">
<style type="text/css">
	.st0{fill:url(#dkdm8nvhbb_1_);}
	.st1{fill:#FFFFFF;}
</style>
<g transform="matrix(0 -1 -1 0 26 26)">
	<g>
		
			<radialGradient id="dkdm8nvhbb_1_" cx="-597.4229" cy="454.4538" r="0.2798" gradientTransform="matrix(0 26 -26 0 11840 15553.3262)" gradientUnits="userSpaceOnUse">
			<stop  offset="0" style="stop-color:#00C3D5"/>
			<stop  offset="1" style="stop-color:#23E4DE"/>
		</radialGradient>
		<circle id="dkdm8nvhbb" class="st0" cx="22.3" cy="22.3" r="3.7"/>
	</g>
</g>
<g>
	<path class="st1" d="M3,5.5c-0.1,0-0.2,0-0.2-0.1C2.7,5.2,2.7,5,2.8,4.9L4,3.7L2.8,2.5C2.7,2.4,2.7,2.2,2.8,2C3,1.9,3.2,1.9,3.3,2
		l1.4,1.5c0.1,0.1,0.1,0.3,0,0.5L3.3,5.4C3.2,5.4,3.1,5.5,3,5.5z"/>
</g>
</svg>
