<?xml version="1.0" encoding="utf-8"?>
<!-- Generator: Adobe Illustrator 24.0.2, SVG Export Plug-In . SVG Version: 6.00 Build 0)  -->
<svg version="1.1" id="Layer_1" xmlns="http://www.w3.org/2000/svg" xmlns:xlink="http://www.w3.org/1999/xlink" x="0px" y="0px"
	 viewBox="0 0 183.5 185.1" style="enable-background:new 0 0 183.5 185.1;" xml:space="preserve">
<style type="text/css">
	.st0{filter:url(#knf7otf4la);}
	.st1{fill-rule:evenodd;clip-rule:evenodd;fill:url(#_x37_szei605gb_9_);}
	.st2{filter:url(#Adobe_OpacityMaskFilter);}
	.st3{fill-rule:evenodd;clip-rule:evenodd;fill:#FFFFFF;}
	.st4{opacity:0.1;mask:url(#u1mnr69qvd_6_);fill-rule:evenodd;clip-rule:evenodd;enable-background:new    ;}
	.st5{filter:url(#Adobe_OpacityMaskFilter_1_);}
	.st6{opacity:0.2;mask:url(#u1mnr69qvd_5_);fill-rule:evenodd;clip-rule:evenodd;fill:#FFFFFF;enable-background:new    ;}
	.st7{filter:url(#Adobe_OpacityMaskFilter_2_);}
	.st8{mask:url(#u1mnr69qvd_4_);}
	.st9{fill-rule:evenodd;clip-rule:evenodd;fill:#AD5D04;}
	.st10{opacity:0.2;fill-rule:evenodd;clip-rule:evenodd;fill:url(#SVGID_1_);enable-background:new    ;}
	.st11{fill-rule:evenodd;clip-rule:evenodd;fill:url(#_x30_1xn100ugg_20_);}
	.st12{filter:url(#Adobe_OpacityMaskFilter_3_);}
	.st13{mask:url(#_x30_0veg6elak_17_);}
	.st14{filter:url(#Adobe_OpacityMaskFilter_4_);}
	.st15{mask:url(#_x30_0veg6elak_16_);}
	.st16{filter:url(#Adobe_OpacityMaskFilter_5_);}
	.st17{mask:url(#_x30_0veg6elak_15_);}
	.st18{opacity:0.6;fill-rule:evenodd;clip-rule:evenodd;fill:url(#SVGID_2_);}
	.st19{filter:url(#Adobe_OpacityMaskFilter_6_);}
	.st20{mask:url(#_x30_0veg6elak_14_);}
	.st21{opacity:0.6;fill-rule:evenodd;clip-rule:evenodd;fill:url(#SVGID_3_);}
	.st22{filter:url(#Adobe_OpacityMaskFilter_7_);}
	.st23{mask:url(#_x30_0veg6elak_13_);}
	.st24{filter:url(#Adobe_OpacityMaskFilter_8_);}
	.st25{mask:url(#_x30_0veg6elak_12_);}
	.st26{filter:url(#Adobe_OpacityMaskFilter_9_);}
	.st27{opacity:0.2;mask:url(#_x30_0veg6elak_11_);fill-rule:evenodd;clip-rule:evenodd;enable-background:new    ;}
	.st28{filter:url(#Adobe_OpacityMaskFilter_10_);}
	.st29{opacity:0.1;mask:url(#_x30_0veg6elak_10_);}
	.st30{fill-rule:evenodd;clip-rule:evenodd;}
	.st31{fill-rule:evenodd;clip-rule:evenodd;fill:#FFE88A;}
	.st32{opacity:0.5;}
	.st33{fill-rule:evenodd;clip-rule:evenodd;fill:#FCE379;}
	.st34{opacity:0.307;fill-rule:evenodd;clip-rule:evenodd;fill:#0693DF;enable-background:new    ;}
</style>
<filter  filterUnits="objectBoundingBox" height="210%" id="knf7otf4la" width="210%" x="-55%" y="-55%">
	<feOffset  dy="8" in="SourceAlpha" result="shadowOffsetOuter1"></feOffset>
	<feGaussianBlur  in="shadowOffsetOuter1" result="shadowBlurOuter1" stdDeviation="14.5"></feGaussianBlur>
	<feColorMatrix  in="shadowBlurOuter1" result="shadowMatrixOuter1" values="0 0 0 0 0 0 0 0 0 0 0 0 0 0 0 0 0 0 0.5 0">
		</feColorMatrix>
	<feMerge>
		<feMergeNode  in="shadowMatrixOuter1"></feMergeNode>
		<feMergeNode  in="SourceGraphic"></feMergeNode>
	</feMerge>
</filter>
<g transform="translate(53 53)" class="st0">
	<g>
		
			<radialGradient id="_x37_szei605gb_9_" cx="-377.8311" cy="624.673" r="0.828" gradientTransform="matrix(129.999 0 0 -130 49135.0156 81215.7344)" gradientUnits="userSpaceOnUse">
			<stop  offset="0" style="stop-color:#FFC548"/>
			<stop  offset="0.6753" style="stop-color:#AD5D04"/>
			<stop  offset="1" style="stop-color:#ECA415"/>
		</radialGradient>
		<path id="_x37_szei605gb_8_" class="st1" d="M39.5-31.9c-2.5,0-5,0.1-7.5,0.4l-0.2,3.3c-0.9,0.2-1.8,0.4-2.7,0.6
			c-3.1,0.8-6.3,1.8-9.4,3.1c-0.3-0.3-0.6-0.6-0.9-0.9c-0.7-0.8-1.5-1.6-2.2-2.3C-3-20.4-18.2-3.7-23.5,16.9
			c-0.1,0.3-0.1,0.5-0.2,0.8c-1.2,5-1.8,10.2-1.8,15.4c0,6,0.8,11.7,2.3,17.2c0.1,0.4,0.2,0.7,0.3,1.1l0,0.2
			c0.1,0.4,0.2,0.7,0.3,1.1c4.7,14.9,14.6,27.5,27.6,35.7l-0.9-2.8l4.3,1.9l0.4,3.1c0,0,0,0,0,0c9.1,4.9,19.6,7.7,30.6,7.7
			c1.5,0,3-0.1,4.4-0.2c0.2,0,0.4,0,0.7,0h0c0.1,0,0.2,0,0.3,0c12.2-1,23.9-5.5,33.7-12.8c0.2-0.1,0.4-0.3,0.6-0.4
			c0,0,0.1-0.1,0.1-0.1c0.2-0.2,0.4-0.3,0.6-0.5c15-11.9,24.6-30.3,24.6-50.9c0-5.4-0.6-10.6-1.9-15.6l-1,1.2l-1.4-5l1-1.3
			C97.1,0.2,89.4-10.4,79.5-18.2c-0.3-0.2-0.5-0.4-0.8-0.6C67.8-27,54.2-31.9,39.5-31.9z"/>
	</g>
	<defs>
		<filter id="Adobe_OpacityMaskFilter" filterUnits="userSpaceOnUse" x="-18.6" y="-0.4" width="121.8" height="90.4">
			<feColorMatrix  type="matrix" values="1 0 0 0 0  0 1 0 0 0  0 0 1 0 0  0 0 0 1 0"/>
		</filter>
	</defs>
	<mask maskUnits="userSpaceOnUse" x="-18.6" y="-0.4" width="121.8" height="90.4" id="u1mnr69qvd_6_">
		<g class="st2">
			<path id="_x37_szei605gb_7_" class="st3" d="M39.5-31.9c-2.5,0-5,0.1-7.5,0.4l-0.2,3.3c-0.9,0.2-1.8,0.4-2.7,0.6
				c-3.1,0.8-6.3,1.8-9.4,3.1c-0.3-0.3-0.6-0.6-0.9-0.9c-0.7-0.8-1.5-1.6-2.2-2.3C-3-20.4-18.2-3.7-23.5,16.9
				c-0.1,0.3-0.1,0.5-0.2,0.8c-1.2,5-1.8,10.2-1.8,15.4c0,6,0.8,11.7,2.3,17.2c0.1,0.4,0.2,0.7,0.3,1.1l0,0.2
				c0.1,0.4,0.2,0.7,0.3,1.1c4.7,14.9,14.6,27.5,27.6,35.7l-0.9-2.8l4.3,1.9l0.4,3.1c0,0,0,0,0,0c9.1,4.9,19.6,7.7,30.6,7.7
				c1.5,0,3-0.1,4.4-0.2c0.2,0,0.4,0,0.7,0h0c0.1,0,0.2,0,0.3,0c12.2-1,23.9-5.5,33.7-12.8c0.2-0.1,0.4-0.3,0.6-0.4
				c0,0,0.1-0.1,0.1-0.1c0.2-0.2,0.4-0.3,0.6-0.5c15-11.9,24.6-30.3,24.6-50.9c0-5.4-0.6-10.6-1.9-15.6l-1,1.2l-1.4-5l1-1.3
				C97.1,0.2,89.4-10.4,79.5-18.2c-0.3-0.2-0.5-0.4-0.8-0.6C67.8-27,54.2-31.9,39.5-31.9z"/>
		</g>
	</mask>
	<path class="st4" d="M-18.3,38c0.4-2.8,1-5.5,2-8.1c0.3,6.4,2.6,12.6,5.5,18.2c4.5,8.7,11.1,16.8,20.1,20.5
		c12.9,5.3,27.5,1.9,39.8-3.5C61.4,59.6,74,51.9,83.4,42.2c10.8-11.1,14.2-28.1,8.4-42.6c6.6,12.1,12.3,24.3,11.2,38
		c-1.1,12.8-8.2,24.6-18,33C75.2,79,63.1,84.1,50.6,87.3c-12,3-24.9,4.2-36.5,0.1C-6.2,80.3-21.1,59.2-18.3,38"/>
	<defs>
		<filter id="Adobe_OpacityMaskFilter_1_" filterUnits="userSpaceOnUse" x="-25" y="-22.3" width="119.8" height="120.4">
			<feColorMatrix  type="matrix" values="1 0 0 0 0  0 1 0 0 0  0 0 1 0 0  0 0 0 1 0"/>
		</filter>
	</defs>
	<mask maskUnits="userSpaceOnUse" x="-25" y="-22.3" width="119.8" height="120.4" id="u1mnr69qvd_5_">
		<g class="st5">
			<path id="_x37_szei605gb_6_" class="st3" d="M39.5-31.9c-2.5,0-5,0.1-7.5,0.4l-0.2,3.3c-0.9,0.2-1.8,0.4-2.7,0.6
				c-3.1,0.8-6.3,1.8-9.4,3.1c-0.3-0.3-0.6-0.6-0.9-0.9c-0.7-0.8-1.5-1.6-2.2-2.3C-3-20.4-18.2-3.7-23.5,16.9
				c-0.1,0.3-0.1,0.5-0.2,0.8c-1.2,5-1.8,10.2-1.8,15.4c0,6,0.8,11.7,2.3,17.2c0.1,0.4,0.2,0.7,0.3,1.1l0,0.2
				c0.1,0.4,0.2,0.7,0.3,1.1c4.7,14.9,14.6,27.5,27.6,35.7l-0.9-2.8l4.3,1.9l0.4,3.1c0,0,0,0,0,0c9.1,4.9,19.6,7.7,30.6,7.7
				c1.5,0,3-0.1,4.4-0.2c0.2,0,0.4,0,0.7,0h0c0.1,0,0.2,0,0.3,0c12.2-1,23.9-5.5,33.7-12.8c0.2-0.1,0.4-0.3,0.6-0.4
				c0,0,0.1-0.1,0.1-0.1c0.2-0.2,0.4-0.3,0.6-0.5c15-11.9,24.6-30.3,24.6-50.9c0-5.4-0.6-10.6-1.9-15.6l-1,1.2l-1.4-5l1-1.3
				C97.1,0.2,89.4-10.4,79.5-18.2c-0.3-0.2-0.5-0.4-0.8-0.6C67.8-27,54.2-31.9,39.5-31.9z"/>
		</g>
	</mask>
	<path class="st6" d="M-6.7-0.1c-2.9,2.7-5.4,5.8-7.5,9.2l-0.8,1.3c-0.2,0.4-0.5,0.9-0.7,1.3c-0.2,0.5-0.4,0.9-0.6,1.4l-0.6,1.4
		c-0.7,1.7-1.2,3.4-1.7,5.1c-1.8-0.6-3.5-1.1-5.3-1.7c-0.1,0.3-0.1,0.5-0.2,0.8c1.9,0.7,3.8,1.4,5.7,2.1l0.5,0.2l0.2-0.6
		c0.6-1.9,1.2-3.7,2-5.5l0.6-1.3c0.2-0.4,0.4-0.9,0.6-1.3c0.2-0.4,0.4-0.9,0.6-1.3c0.2-0.4,0.4-0.9,0.7-1.3c1.9-3.4,4.2-6.5,7-9.3
		C-6.1,0.4-6.7-0.1-6.7-0.1z M42.1,93.5c-0.9-2.2-1.7-4.5-2.3-6.9l-0.1-0.5l-0.5,0.1c-2.8,0.5-5.6,0.7-8.5,0.7
		c-2.8,0.1-5.7,0-8.5-0.3c-2.8-0.3-5.6-0.8-8.4-1.5c-2.8-0.7-5.5-1.6-8.1-2.8L5.4,83c2.6,1.2,5.3,2.2,8.1,3c2.8,0.8,5.6,1.4,8.5,1.8
		c2.9,0.4,5.8,0.6,8.7,0.5c2.7-0.1,5.4-0.4,8.1-0.9c0.7,2.2,1.5,4.3,2.4,6.4c0.6,1.4,1.3,2.8,2.1,4.2c0.2,0,0.4,0,0.7,0h0
		c0.1,0,0.2,0,0.3,0C43.4,96.6,42.7,95.1,42.1,93.5L42.1,93.5z M-21.3,51.1c-0.4,0.1-0.9,0.1-1.3,0.1l-0.7,0c-0.1,0-0.2,0-0.3,0
		c-0.1,0-0.2,0-0.3,0c-0.3,0.1-0.7,0.2-1,0.3c0.1,0.4,0.2,0.8,0.3,1.2c0.3,0,0.6,0,0.9,0c0.2,0,0.4-0.2,0.7-0.2l0.7-0.2
		c0.4-0.1,0.9-0.3,1.3-0.4C-21.1,51.8-21.3,51.1-21.3,51.1z M0.7,3.2c0.2,0.3,0.5,0.6,0.8,0.9C2.3,5,3.1,5.8,4.1,6.5l0.5-0.6
		C3.8,5.1,3.1,4.2,2.5,3.3C2.4,3.1,2.3,3,2.2,2.8C2.1,2.7,2,2.5,1.9,2.3C1.4,1.8,1,1.2,0.6,0.5c-0.4-0.6-0.8-1.3-1.1-2l-0.7,0.3
		C-1-0.4-0.7,0.4-0.4,1.1C-0.1,1.8,0.3,2.5,0.7,3.2z M11.1-14.2c1.3-1,2.7-1.9,4.2-2.7c0.4-0.2,0.7-0.4,1-0.7
		c0.3-0.2,0.7-0.4,1.1-0.6l1.1-0.6l1.1-0.6c1.5-0.7,3-1.4,4.6-2l-0.2-0.8c-1.6,0.5-3.2,1.1-4.8,1.7l-1.2,0.5l-1.2,0.6
		c-0.8,0.4-1.5,0.7-2.3,1.2c-1.4,0.9-2.8,1.9-4.1,3c-1.3,1.1-2.5,2.3-3.7,3.5L7.2-11C8.5-12.1,9.8-13.2,11.1-14.2z M78.3-18.1
		c-1.5,0.8-2.9,1.8-4.1,2.9c-2.6-1.5-5.4-2.8-8.2-3.9L63.8-20c-0.8-0.2-1.5-0.5-2.3-0.7c-0.8-0.2-1.5-0.4-2.3-0.5l-2.3-0.4
		c-3.1-0.5-6.3-0.7-9.4-0.7c-3.1,0-6.3,0.4-9.4,0.9l0.1,0.8c3.1-0.5,6.1-0.7,9.2-0.7c3.1,0.1,6.2,0.4,9.2,1l2.3,0.5
		c0.7,0.2,1.5,0.4,2.2,0.6c0.7,0.2,1.5,0.4,2.2,0.6l2.2,0.7c2.9,1,5.7,2.3,8.4,3.8l0.3,0.2l0.3-0.3c1.3-1.3,2.8-2.4,4.5-3.3
		C78.8-17.8,78.6-17.9,78.3-18.1L78.3-18.1z M82.3,11.1l-6.4,3l-3.2,1.5c-0.9,0.4-1.7,0.8-2.6,1.2c-0.6-1.1-1.3-2.2-1.9-3.3
		c-0.8-1.3-1.6-2.5-2.4-3.8c-1.6-2.5-3.4-4.9-5.1-7.3l-0.6,0.5c1.7,2.4,3.3,4.9,4.8,7.5c0.8,1.3,1.5,2.5,2.2,3.8
		c0.7,1.3,1.4,2.6,2.2,3.9l0.4,0.6l0.6-0.3c1-0.6,2.1-1.1,3.2-1.6l3.2-1.6l6.3-3.2L82.3,11.1L82.3,11.1z M94.7,51
		c-0.3-4.1-1.3-8.2-2.9-11.9l-0.3-0.6L91,38.8c-2.8,2.4-5.9,4.4-9.3,6l0.3,0.7c3.2-1.5,6.2-3.3,9-5.5c1.3,3.5,2.1,7.2,2.3,11
		c0.1,2,0,4-0.2,5.9c-0.3,2-0.7,3.9-1.3,5.8c-1.2,3.8-3.2,7.3-5.6,10.4c-2.5,3.1-5.5,5.8-9,7.8l-0.4,0.2l0.3,0.4
		c0.5,0.7,0.8,1.5,1.1,2.3c0.1,0.3,0.2,0.6,0.3,0.8c0,0,0.1-0.1,0.1-0.1c0.2-0.2,0.4-0.3,0.6-0.5c-0.1-0.2-0.1-0.4-0.2-0.6
		c-0.2-0.7-0.5-1.4-0.9-2.1c3.4-2,6.5-4.6,9-7.6c2.6-3.2,4.7-6.8,6.1-10.7c0.7-2,1.1-4,1.4-6.1C94.8,55.1,94.8,53,94.7,51z
		 M49.7,20.1l0.2,0.8c-5,1.5-9.8,4.1-13.9,7.4c-4.1,3.3-7.6,7.3-10.2,11.9c-1.3,2.3-2.4,4.7-3.2,7.2c-0.8,2.5-1.5,5-1.9,7.6
		C20,60.1,20,65.5,21.2,70.6l0.1,0.5l-0.4,0.2c-2.6,0.9-5.3,1.2-8.1,1c-2.7-0.2-5.4-0.9-7.8-2.2l0.4-0.7c2.3,1.2,4.9,1.8,7.5,1.9
		c2.4,0.1,4.9-0.2,7.2-0.9c-1.2-5.1-1.3-10.5-0.6-15.7c0.4-2.7,0.9-5.3,1.8-7.9c0.9-2.6,2-5,3.4-7.4c0.3-0.6,0.2-0.5,0.5-1
		c-2.3-0.9-4.5-1.9-6.7-3l-1.8-1l-1.8-1c-0.6-0.4-1.2-0.7-1.8-1c-0.6-0.4-1.2-0.7-1.7-1.1c-2.2-1.6-4.3-3.3-6.4-5.1
		c-2-1.8-3.9-3.8-5.7-5.8L0,19.8c1.8,1.9,3.8,3.8,5.9,5.5c2.1,1.7,4.2,3.3,6.4,4.8c0.6,0.4,1.1,0.8,1.6,1.2c0.5,0.4,1.1,0.8,1.7,1.1
		l1.7,1.1l1.7,1c2.2,1.2,4.4,2.3,6.7,3.3c2.5-3.7,6.1-7.6,9.7-10.3C39.7,24.1,44.6,21.6,49.7,20.1L49.7,20.1z"/>
	<defs>
		<filter id="Adobe_OpacityMaskFilter_2_" filterUnits="userSpaceOnUse" x="-24.1" y="-22.3" width="118.3" height="120.8">
			<feColorMatrix  type="matrix" values="1 0 0 0 0  0 1 0 0 0  0 0 1 0 0  0 0 0 1 0"/>
		</filter>
	</defs>
	<mask maskUnits="userSpaceOnUse" x="-24.1" y="-22.3" width="118.3" height="120.8" id="u1mnr69qvd_4_">
		<g class="st7">
			<path id="_x37_szei605gb_5_" class="st3" d="M39.5-31.9c-2.5,0-5,0.1-7.5,0.4l-0.2,3.3c-0.9,0.2-1.8,0.4-2.7,0.6
				c-3.1,0.8-6.3,1.8-9.4,3.1c-0.3-0.3-0.6-0.6-0.9-0.9c-0.7-0.8-1.5-1.6-2.2-2.3C-3-20.4-18.2-3.7-23.5,16.9
				c-0.1,0.3-0.1,0.5-0.2,0.8c-1.2,5-1.8,10.2-1.8,15.4c0,6,0.8,11.7,2.3,17.2c0.1,0.4,0.2,0.7,0.3,1.1l0,0.2
				c0.1,0.4,0.2,0.7,0.3,1.1c4.7,14.9,14.6,27.5,27.6,35.7l-0.9-2.8l4.3,1.9l0.4,3.1c0,0,0,0,0,0c9.1,4.9,19.6,7.7,30.6,7.7
				c1.5,0,3-0.1,4.4-0.2c0.2,0,0.4,0,0.7,0h0c0.1,0,0.2,0,0.3,0c12.2-1,23.9-5.5,33.7-12.8c0.2-0.1,0.4-0.3,0.6-0.4
				c0,0,0.1-0.1,0.1-0.1c0.2-0.2,0.4-0.3,0.6-0.5c15-11.9,24.6-30.3,24.6-50.9c0-5.4-0.6-10.6-1.9-15.6l-1,1.2l-1.4-5l1-1.3
				C97.1,0.2,89.4-10.4,79.5-18.2c-0.3-0.2-0.5-0.4-0.8-0.6C67.8-27,54.2-31.9,39.5-31.9z"/>
		</g>
	</mask>
	<g class="st8">
		<path class="st9" d="M34.9,27.5c-3.5,2.7-6.6,6-9.2,9.7c-2.3-1-4.5-2.1-6.7-3.3l-1.7-1l-1.7-1.1c-0.6-0.4-1.1-0.7-1.7-1.1
			c-0.5-0.4-1.1-0.8-1.6-1.2c-2.2-1.5-4.4-3.1-6.4-4.8c-2.1-1.7-4-3.5-5.9-5.5l-0.6,0.5c1.8,2,3.7,4,5.7,5.8c2,1.8,4.1,3.5,6.4,5.1
			c0.6,0.4,1.1,0.7,1.7,1.1c0.6,0.3,1.2,0.7,1.8,1l1.8,1l1.8,1c2.2,1.1,4.4,2.1,6.7,3c-0.4,0.5-0.7,1.1-1,1.6
			c-1.4,2.3-2.5,4.8-3.4,7.4c-0.9,2.6-1.5,5.2-1.8,7.9c-0.7,5.2-0.5,10.5,0.6,15.6c-2.3,0.8-4.8,1.1-7.2,0.9
			c-2.6-0.2-5.2-0.8-7.5-1.9l-0.4,0.7c2.4,1.3,5.1,2,7.8,2.2c2.7,0.2,5.5-0.1,8.1-1l0.4-0.2l-0.1-0.5c-1.2-5.1-1.3-10.5-0.5-15.7
			c0.4-2.6,1.1-5.1,1.9-7.6c0.8-2.5,1.9-4.9,3.2-7.2c2.6-4.6,6.1-8.6,10.2-11.9c4.1-3.3,8.8-5.9,13.9-7.4l-0.2-0.8
			C44,21.6,39.1,24.2,34.9,27.5 M94,57.2c-0.2,2.1-0.6,4.1-1.4,6.1c-1.4,3.9-3.5,7.5-6.1,10.7c-2.5,3-5.6,5.6-9,7.6
			c0.4,0.7,0.7,1.4,0.9,2.1c0.2,0.5,0.3,0.9,0.4,1.4c-0.2,0.2-0.5,0.4-0.7,0.5c-0.2-0.6-0.3-1.1-0.5-1.7c-0.3-0.8-0.6-1.6-1.1-2.3
			l-0.3-0.4l0.4-0.2c3.4-2.1,6.5-4.7,9-7.8c2.5-3.1,4.4-6.6,5.6-10.4c0.6-1.9,1.1-3.8,1.3-5.8c0.3-2,0.3-4,0.2-5.9
			c-0.2-3.8-1-7.5-2.3-11c-2.8,2.1-5.8,4-9,5.5l-0.3-0.7c3.3-1.6,6.4-3.6,9.3-6l0.5-0.4l0.3,0.6c1.6,3.8,2.6,7.8,2.9,11.9
			C94.3,53.1,94.2,55.2,94,57.2 M81.7,11.2l-6.4,3L72,15.6c-0.9,0.4-1.7,0.8-2.6,1.2c-0.6-1.1-1.3-2.2-1.9-3.3
			c-0.8-1.3-1.6-2.5-2.4-3.8c-1.6-2.5-3.4-4.9-5.1-7.3l-0.6,0.5c1.7,2.4,3.3,4.9,4.8,7.5c0.8,1.3,1.5,2.5,2.2,3.8
			c0.7,1.3,1.4,2.6,2.2,3.9l0.4,0.6l0.6-0.3c1-0.6,2.1-1.1,3.2-1.6l3.2-1.6l6.3-3.2C82.1,11.9,81.7,11.2,81.7,11.2z M79-17.6
			c-1.6,0.9-3.1,2-4.5,3.3L74.3-14L74-14.2c-2.7-1.5-5.5-2.8-8.4-3.8l-2.2-0.7c-0.7-0.2-1.5-0.4-2.2-0.6c-0.8-0.2-1.5-0.4-2.2-0.6
			l-2.3-0.5c-3-0.6-6.1-0.9-9.2-0.9c-3.1-0.1-6.2,0.2-9.2,0.7L38-21.4c3.1-0.6,6.2-0.9,9.4-0.9c3.1-0.1,6.3,0.2,9.4,0.7l2.3,0.4
			c0.8,0.2,1.5,0.3,2.3,0.5c0.8,0.2,1.5,0.5,2.3,0.7l2.2,0.8c2.8,1.1,5.6,2.4,8.2,3.9c1.3-1.1,2.6-2.1,4.1-2.9
			C78.5-17.9,78.8-17.8,79-17.6 M10.5-14.1c1.3-1,2.7-1.9,4.2-2.7c0.4-0.2,0.7-0.4,1-0.7c0.3-0.2,0.7-0.4,1.1-0.6l1.1-0.6l1.1-0.6
			c1.5-0.7,3-1.4,4.6-2L23.3-22c-1.6,0.5-3.2,1.1-4.8,1.7l-1.2,0.5l-1.2,0.6c-0.8,0.4-1.5,0.7-2.3,1.2c-1.4,0.9-2.8,1.9-4.1,3
			c-1.3,1.1-2.5,2.3-3.7,3.5l0.6,0.6C7.9-12,9.2-13.1,10.5-14.1 M1,2.6c0.2,0.3,0.5,0.6,0.8,0.9c0.8,0.9,1.7,1.7,2.6,2.4l0.5-0.6
			C4.1,4.5,3.4,3.6,2.7,2.7C2.6,2.5,2.5,2.3,2.4,2.2C2.4,2,2.3,1.9,2.2,1.7C1.7,1.1,1.3,0.5,0.8-0.1c-0.4-0.6-0.8-1.3-1.1-2L-1-1.8
			C-0.7-1-0.5-0.3-0.2,0.4C0.2,1.2,0.5,1.9,1,2.6 M45.1,98.4c-0.3,0-0.6,0.1-0.9,0.1h0c-0.9-1.6-1.8-3.2-2.5-4.9
			c-0.9-2.1-1.7-4.3-2.4-6.4c-2.7,0.5-5.4,0.8-8.1,0.9c-2.9,0.1-5.8-0.1-8.7-0.5c-2.9-0.4-5.7-1-8.5-1.8c-2.8-0.8-5.5-1.8-8.1-3
			L6.2,82c2.6,1.1,5.3,2.1,8.1,2.8c2.8,0.7,5.5,1.2,8.4,1.5c2.8,0.3,5.7,0.4,8.5,0.3c2.8,0,5.7-0.2,8.5-0.7l0.5-0.1l0.1,0.5
			c0.7,2.3,1.4,4.6,2.3,6.9C43.3,95,44.1,96.8,45.1,98.4 M-6.1,0.1c-2.7,2.8-5.1,5.9-7,9.3c-0.2,0.4-0.5,0.9-0.7,1.3
			c-0.2,0.4-0.4,0.9-0.6,1.3c-0.2,0.4-0.4,0.9-0.6,1.3l-0.6,1.3c-0.8,1.8-1.5,3.6-2,5.5l-0.2,0.6l-0.5-0.2c-1.9-0.7-3.8-1.4-5.7-2.1
			c0.1-0.3,0.1-0.5,0.2-0.8c1.8,0.6,3.5,1.1,5.3,1.7c0.5-1.7,1-3.5,1.7-5.1l0.6-1.4c0.2-0.5,0.4-0.9,0.6-1.4
			c0.2-0.4,0.5-0.9,0.7-1.3l0.8-1.3c2.1-3.4,4.6-6.5,7.5-9.2C-6.7-0.5-6.1,0.1-6.1,0.1z"/>
	</g>
	
		<linearGradient id="SVGID_1_" gradientUnits="userSpaceOnUse" x1="-376.0989" y1="620.8309" x2="-374.9983" y2="619.9366" gradientTransform="matrix(72.5932 0 0 -63.4482 27301.2793 39381.9766)">
		<stop  offset="0" style="stop-color:#F8D965"/>
		<stop  offset="0.9994" style="stop-color:#DEA336"/>
	</linearGradient>
	<path class="st10" d="M53.1,2c-4.8,10.2-14.4,17.9-23.8,23.6C21,30.7,11.9,35.2,2.1,35.6c-5.4,0.2-11.1-1-14.8-4.9
		c-3.4-3.5-4.5-8.6-4.6-13.5c-0.1-13.6,7.6-25.7,18.3-34c5-3.9,10.7-6.9,16.6-8.9c0.3,0.3,0.6,0.6,0.9,0.9c3.1-1.2,6.2-2.3,9.4-3.1
		c11.4-0.6,24.5,5,27,17C55.9-6.5,55-2,53.1,2"/>
	<path class="st3" d="M31.8-31.9l-0.2,3.2c-4,0.9-8,2.1-12.1,3.7c-0.1-0.2-0.3-0.3-0.4-0.5c3.4,3.8,6.3,7.8,8.9,12.2
		C8.6-4.2-6.7,14.8-11.1,35.8c-0.2-4.4-6.9-5.1-8.8-1.2c-1,1.4-1.5,4-1.5,7.1v0.3c0,10.6,5.6,26.4,13.8,19.5h0
		c1.6-2.1,1.6-4.9,1.6-7.5c2.3,1.1,4.2,2.3,6.5,3.5C-0.1,66.7,1.2,76,4,84.9l4.3,1.9l0.1,0.9C6.9,77.1,5.9,66.5,5.5,55.7
		c-5.3-2.9-10-6.7-14.2-11C-6.6,26.7,4.2,9.6,19.1-0.6c3.2,4.5,7.2,8.4,11,12.3c2.8-1.3,6.3-2.5,9-3.9c7.1,6.1,12,14.9,13.8,24
		c-16.5,5.5-27.5,26.4-17.2,41.9c12,19.3,42.2,8.4,49.1-10c4.9-14.7-7-34.3-23-34.4c-3.2-8-7.3-15.4-12.6-22.3
		c7.1-3.3,15.2-6.4,22.7-7.9c7.8,8.1,14.9,17.2,19.6,27.5c3.5-2.4,6.9-5.3,9.8-8.6l-1.4-5l0.1-0.1c-2,2.4-4.2,4.6-6.9,6.7
		C87.5,9.7,80.3,0.6,72.1-7.5C60.8-5.8,49.9-2.7,39.4,1.6c-2.1-2.5-3.5-5-5.3-7.6c4.2-2.4,8.3-4.5,12.7-6.5
		C42.5-19.4,37.5-26.1,31.8-31.9L31.8-31.9z M4-15.8C-1.9-14.1-7.8-8.5-9.2-2.5C-8.1,5,1.7-1.2,6.2-7.4C9.3-11.6,10-15.8,4-15.8
		L4-15.8z M8.4,88.1l0-0.3L8.4,88.1z M8.7,89.9C8.7,89.9,8.7,89.9,8.7,89.9c-0.1-0.6-0.2-1.2-0.2-1.8C8.4,88.1,8.7,89.9,8.7,89.9z"
		/>
	<g transform="translate(4.109)">
		<g>
			
				<radialGradient id="_x30_1xn100ugg_20_" cx="-388.4866" cy="628.7206" r="0.9089" gradientTransform="matrix(-82.2829 -89.8097 -92.2911 84.5563 26115.9961 -87995.625)" gradientUnits="userSpaceOnUse">
				<stop  offset="0" style="stop-color:#0693DF"/>
				<stop  offset="0" style="stop-color:#0693DF"/>
				<stop  offset="0.3527" style="stop-color:#004A72"/>
				<stop  offset="1" style="stop-color:#1E4961"/>
			</radialGradient>
			<path id="_x30_1xn100ugg_19_" class="st11" d="M27.7-31.9l-0.2,3.2c-4,0.9-8,2.1-12.1,3.7c-0.1-0.2-0.3-0.3-0.4-0.5
				c3.4,3.8,6.3,7.8,8.9,12.2c-19.4,9-34.7,28.1-39.1,49.1c-0.2-4.4-6.9-5.1-8.8-1.2c-1,1.4-1.5,4-1.5,7.1v0.3
				c0,10.6,5.6,26.4,13.8,19.5h0c1.6-2.1,1.6-4.9,1.6-7.5c2.3,1.1,4.2,2.3,6.5,3.5C-4.2,66.7-2.9,76-0.1,84.9l4.3,1.9l0.1,0.9
				C2.8,77.1,1.8,66.5,1.4,55.7c-5.3-2.9-10-6.7-14.2-11C-10.7,26.7,0,9.6,15-0.6c3.2,4.5,7.2,8.4,11,12.3c2.8-1.3,6.3-2.5,9-3.9
				c7.1,6.1,12,14.9,13.8,24c-16.5,5.5-27.5,26.4-17.2,41.9c12,19.3,42.2,8.4,49.1-10c4.9-14.7-7-34.3-23-34.4
				c-3.2-8-7.3-15.4-12.6-22.3c7.1-3.3,15.2-6.4,22.7-7.9c7.8,8.1,14.9,17.2,19.6,27.5c3.5-2.4,6.9-5.3,9.8-8.6l-1.4-5l0.1-0.1
				c-2,2.4-4.2,4.6-6.9,6.7C83.4,9.7,76.2,0.6,68-7.5C56.7-5.8,45.8-2.7,35.3,1.6c-2-2.5-3.5-5-5.3-7.6c4.2-2.4,8.3-4.5,12.7-6.5
				C38.4-19.4,33.4-26.1,27.7-31.9z M-0.1-15.8C-6-14.1-11.9-8.5-13.3-2.5C-12.2,5-2.4-1.2,2.1-7.4C5.2-11.6,5.8-15.8-0.1-15.8
				C0-15.8-0.1-15.8-0.1-15.8z M4.3,88.1l0-0.3L4.3,88.1z M4.6,89.9C4.6,89.9,4.6,89.9,4.6,89.9c-0.1-0.6-0.2-1.2-0.2-1.8
				C4.3,88.1,4.6,89.9,4.6,89.9z"/>
		</g>
		<defs>
			<filter id="Adobe_OpacityMaskFilter_3_" filterUnits="userSpaceOnUse" x="-12" y="-54.2" width="70" height="50">
				<feColorMatrix  type="matrix" values="1 0 0 0 0  0 1 0 0 0  0 0 1 0 0  0 0 0 1 0"/>
			</filter>
		</defs>
		<mask maskUnits="userSpaceOnUse" x="-12" y="-54.2" width="70" height="50" id="_x30_0veg6elak_17_">
			<g class="st12">
				<path id="_x30_1xn100ugg_18_" class="st3" d="M27.7-31.9l-0.2,3.2c-4,0.9-8,2.1-12.1,3.7c-0.1-0.2-0.3-0.3-0.4-0.5
					c3.4,3.8,6.3,7.8,8.9,12.2c-19.4,9-34.7,28.1-39.1,49.1c-0.2-4.4-6.9-5.1-8.8-1.2c-1,1.4-1.5,4-1.5,7.1v0.3
					c0,10.6,5.6,26.4,13.8,19.5h0c1.6-2.1,1.6-4.9,1.6-7.5c2.3,1.1,4.2,2.3,6.5,3.5C-4.2,66.7-2.9,76-0.1,84.9l4.3,1.9l0.1,0.9
					C2.8,77.1,1.8,66.5,1.4,55.7c-5.3-2.9-10-6.7-14.2-11C-10.7,26.7,0,9.6,15-0.6c3.2,4.5,7.2,8.4,11,12.3c2.8-1.3,6.3-2.5,9-3.9
					c7.1,6.1,12,14.9,13.8,24c-16.5,5.5-27.5,26.4-17.2,41.9c12,19.3,42.2,8.4,49.1-10c4.9-14.7-7-34.3-23-34.4
					c-3.2-8-7.3-15.4-12.6-22.3c7.1-3.3,15.2-6.4,22.7-7.9c7.8,8.1,14.9,17.2,19.6,27.5c3.5-2.4,6.9-5.3,9.8-8.6l-1.4-5l0.1-0.1
					c-2,2.4-4.2,4.6-6.9,6.7C83.4,9.7,76.2,0.6,68-7.5C56.7-5.8,45.8-2.7,35.3,1.6c-2-2.5-3.5-5-5.3-7.6c4.2-2.4,8.3-4.5,12.7-6.5
					C38.4-19.4,33.4-26.1,27.7-31.9z M-0.1-15.8C-6-14.1-11.9-8.5-13.3-2.5C-12.2,5-2.4-1.2,2.1-7.4C5.2-11.6,5.8-15.8-0.1-15.8
					C0-15.8-0.1-15.8-0.1-15.8z M4.3,88.1l0-0.3L4.3,88.1z M4.6,89.9C4.6,89.9,4.6,89.9,4.6,89.9c-0.1-0.6-0.2-1.2-0.2-1.8
					C4.3,88.1,4.6,89.9,4.6,89.9z"/>
			</g>
		</mask>
		<g class="st13">
			<g>
				
					<image style="overflow:visible;" width="70" height="50" xlink:href="F2B6DDCFB3BF5272.png"  transform="matrix(1 0 0 1 -11.9675 -54.243)">
				</image>
			</g>
		</g>
		<defs>
			<filter id="Adobe_OpacityMaskFilter_4_" filterUnits="userSpaceOnUse" x="-45.5" y="-37.5" width="70" height="50">
				<feColorMatrix  type="matrix" values="1 0 0 0 0  0 1 0 0 0  0 0 1 0 0  0 0 0 1 0"/>
			</filter>
		</defs>
		<mask maskUnits="userSpaceOnUse" x="-45.5" y="-37.5" width="70" height="50" id="_x30_0veg6elak_16_">
			<g class="st14">
				<path id="_x30_1xn100ugg_17_" class="st3" d="M27.7-31.9l-0.2,3.2c-4,0.9-8,2.1-12.1,3.7c-0.1-0.2-0.3-0.3-0.4-0.5
					c3.4,3.8,6.3,7.8,8.9,12.2c-19.4,9-34.7,28.1-39.1,49.1c-0.2-4.4-6.9-5.1-8.8-1.2c-1,1.4-1.5,4-1.5,7.1v0.3
					c0,10.6,5.6,26.4,13.8,19.5h0c1.6-2.1,1.6-4.9,1.6-7.5c2.3,1.1,4.2,2.3,6.5,3.5C-4.2,66.7-2.9,76-0.1,84.9l4.3,1.9l0.1,0.9
					C2.8,77.1,1.8,66.5,1.4,55.7c-5.3-2.9-10-6.7-14.2-11C-10.7,26.7,0,9.6,15-0.6c3.2,4.5,7.2,8.4,11,12.3c2.8-1.3,6.3-2.5,9-3.9
					c7.1,6.1,12,14.9,13.8,24c-16.5,5.5-27.5,26.4-17.2,41.9c12,19.3,42.2,8.4,49.1-10c4.9-14.7-7-34.3-23-34.4
					c-3.2-8-7.3-15.4-12.6-22.3c7.1-3.3,15.2-6.4,22.7-7.9c7.8,8.1,14.9,17.2,19.6,27.5c3.5-2.4,6.9-5.3,9.8-8.6l-1.4-5l0.1-0.1
					c-2,2.4-4.2,4.6-6.9,6.7C83.4,9.7,76.2,0.6,68-7.5C56.7-5.8,45.8-2.7,35.3,1.6c-2-2.5-3.5-5-5.3-7.6c4.2-2.4,8.3-4.5,12.7-6.5
					C38.4-19.4,33.4-26.1,27.7-31.9z M-0.1-15.8C-6-14.1-11.9-8.5-13.3-2.5C-12.2,5-2.4-1.2,2.1-7.4C5.2-11.6,5.8-15.8-0.1-15.8
					C0-15.8-0.1-15.8-0.1-15.8z M4.3,88.1l0-0.3L4.3,88.1z M4.6,89.9C4.6,89.9,4.6,89.9,4.6,89.9c-0.1-0.6-0.2-1.2-0.2-1.8
					C4.3,88.1,4.6,89.9,4.6,89.9z"/>
			</g>
		</mask>
		<g class="st15">
			<g>
				
					<image style="overflow:visible;" width="70" height="50" xlink:href="F2B6DDCFB3BF5276.png"  transform="matrix(1 0 0 1 -45.5155 -37.469)">
				</image>
			</g>
		</g>
		<defs>
			<filter id="Adobe_OpacityMaskFilter_5_" filterUnits="userSpaceOnUse" x="6" y="-19.5" width="67.9" height="47.8">
				<feColorMatrix  type="matrix" values="1 0 0 0 0  0 1 0 0 0  0 0 1 0 0  0 0 0 1 0"/>
			</filter>
		</defs>
		<mask maskUnits="userSpaceOnUse" x="6" y="-19.5" width="67.9" height="47.8" id="_x30_0veg6elak_15_">
			<g class="st16">
				<path id="_x30_1xn100ugg_16_" class="st3" d="M27.7-31.9l-0.2,3.2c-4,0.9-8,2.1-12.1,3.7c-0.1-0.2-0.3-0.3-0.4-0.5
					c3.4,3.8,6.3,7.8,8.9,12.2c-19.4,9-34.7,28.1-39.1,49.1c-0.2-4.4-6.9-5.1-8.8-1.2c-1,1.4-1.5,4-1.5,7.1v0.3
					c0,10.6,5.6,26.4,13.8,19.5h0c1.6-2.1,1.6-4.9,1.6-7.5c2.3,1.1,4.2,2.3,6.5,3.5C-4.2,66.7-2.9,76-0.1,84.9l4.3,1.9l0.1,0.9
					C2.8,77.1,1.8,66.5,1.4,55.7c-5.3-2.9-10-6.7-14.2-11C-10.7,26.7,0,9.6,15-0.6c3.2,4.5,7.2,8.4,11,12.3c2.8-1.3,6.3-2.5,9-3.9
					c7.1,6.1,12,14.9,13.8,24c-16.5,5.5-27.5,26.4-17.2,41.9c12,19.3,42.2,8.4,49.1-10c4.9-14.7-7-34.3-23-34.4
					c-3.2-8-7.3-15.4-12.6-22.3c7.1-3.3,15.2-6.4,22.7-7.9c7.8,8.1,14.9,17.2,19.6,27.5c3.5-2.4,6.9-5.3,9.8-8.6l-1.4-5l0.1-0.1
					c-2,2.4-4.2,4.6-6.9,6.7C83.4,9.7,76.2,0.6,68-7.5C56.7-5.8,45.8-2.7,35.3,1.6c-2-2.5-3.5-5-5.3-7.6c4.2-2.4,8.3-4.5,12.7-6.5
					C38.4-19.4,33.4-26.1,27.7-31.9z M-0.1-15.8C-6-14.1-11.9-8.5-13.3-2.5C-12.2,5-2.4-1.2,2.1-7.4C5.2-11.6,5.8-15.8-0.1-15.8
					C0-15.8-0.1-15.8-0.1-15.8z M4.3,88.1l0-0.3L4.3,88.1z M4.6,89.9C4.6,89.9,4.6,89.9,4.6,89.9c-0.1-0.6-0.2-1.2-0.2-1.8
					C4.3,88.1,4.6,89.9,4.6,89.9z"/>
			</g>
		</mask>
		<g class="st17">
			
				<radialGradient id="SVGID_2_" cx="-377.7753" cy="610.2365" r="0.4762" gradientTransform="matrix(47.8066 0 0 -26.6251 18100.1367 16252.041)" gradientUnits="userSpaceOnUse">
				<stop  offset="0" style="stop-color:#41DAD6"/>
				<stop  offset="1" style="stop-color:#FFFFFF;stop-opacity:0"/>
			</radialGradient>
			<ellipse class="st18" cx="40" cy="4.5" rx="34" ry="23.9"/>
		</g>
		<defs>
			<filter id="Adobe_OpacityMaskFilter_6_" filterUnits="userSpaceOnUse" x="-44.3" y="56" width="67.9" height="47.8">
				<feColorMatrix  type="matrix" values="1 0 0 0 0  0 1 0 0 0  0 0 1 0 0  0 0 0 1 0"/>
			</filter>
		</defs>
		<mask maskUnits="userSpaceOnUse" x="-44.3" y="56" width="67.9" height="47.8" id="_x30_0veg6elak_14_">
			<g class="st19">
				<path id="_x30_1xn100ugg_15_" class="st3" d="M27.7-31.9l-0.2,3.2c-4,0.9-8,2.1-12.1,3.7c-0.1-0.2-0.3-0.3-0.4-0.5
					c3.4,3.8,6.3,7.8,8.9,12.2c-19.4,9-34.7,28.1-39.1,49.1c-0.2-4.4-6.9-5.1-8.8-1.2c-1,1.4-1.5,4-1.5,7.1v0.3
					c0,10.6,5.6,26.4,13.8,19.5h0c1.6-2.1,1.6-4.9,1.6-7.5c2.3,1.1,4.2,2.3,6.5,3.5C-4.2,66.7-2.9,76-0.1,84.9l4.3,1.9l0.1,0.9
					C2.8,77.1,1.8,66.5,1.4,55.7c-5.3-2.9-10-6.7-14.2-11C-10.7,26.7,0,9.6,15-0.6c3.2,4.5,7.2,8.4,11,12.3c2.8-1.3,6.3-2.5,9-3.9
					c7.1,6.1,12,14.9,13.8,24c-16.5,5.5-27.5,26.4-17.2,41.9c12,19.3,42.2,8.4,49.1-10c4.9-14.7-7-34.3-23-34.4
					c-3.2-8-7.3-15.4-12.6-22.3c7.1-3.3,15.2-6.4,22.7-7.9c7.8,8.1,14.9,17.2,19.6,27.5c3.5-2.4,6.9-5.3,9.8-8.6l-1.4-5l0.1-0.1
					c-2,2.4-4.2,4.6-6.9,6.7C83.4,9.7,76.2,0.6,68-7.5C56.7-5.8,45.8-2.7,35.3,1.6c-2-2.5-3.5-5-5.3-7.6c4.2-2.4,8.3-4.5,12.7-6.5
					C38.4-19.4,33.4-26.1,27.7-31.9z M-0.1-15.8C-6-14.1-11.9-8.5-13.3-2.5C-12.2,5-2.4-1.2,2.1-7.4C5.2-11.6,5.8-15.8-0.1-15.8
					C0-15.8-0.1-15.8-0.1-15.8z M4.3,88.1l0-0.3L4.3,88.1z M4.6,89.9C4.6,89.9,4.6,89.9,4.6,89.9c-0.1-0.6-0.2-1.2-0.2-1.8
					C4.3,88.1,4.6,89.9,4.6,89.9z"/>
			</g>
		</mask>
		<g class="st20">
			
				<radialGradient id="SVGID_3_" cx="-377.7753" cy="610.2365" r="0.4762" gradientTransform="matrix(47.8066 0 0 -26.6251 18049.8145 16327.5254)" gradientUnits="userSpaceOnUse">
				<stop  offset="0" style="stop-color:#41DAD6"/>
				<stop  offset="1" style="stop-color:#FFFFFF;stop-opacity:0"/>
			</radialGradient>
			<ellipse class="st21" cx="-10.3" cy="79.9" rx="34" ry="23.9"/>
		</g>
		<defs>
			<filter id="Adobe_OpacityMaskFilter_7_" filterUnits="userSpaceOnUse" x="-61" y="18.3" width="71" height="46">
				<feColorMatrix  type="matrix" values="1 0 0 0 0  0 1 0 0 0  0 0 1 0 0  0 0 0 1 0"/>
			</filter>
		</defs>
		<mask maskUnits="userSpaceOnUse" x="-61" y="18.3" width="71" height="46" id="_x30_0veg6elak_13_">
			<g class="st22">
				<path id="_x30_1xn100ugg_14_" class="st3" d="M27.7-31.9l-0.2,3.2c-4,0.9-8,2.1-12.1,3.7c-0.1-0.2-0.3-0.3-0.4-0.5
					c3.4,3.8,6.3,7.8,8.9,12.2c-19.4,9-34.7,28.1-39.1,49.1c-0.2-4.4-6.9-5.1-8.8-1.2c-1,1.4-1.5,4-1.5,7.1v0.3
					c0,10.6,5.6,26.4,13.8,19.5h0c1.6-2.1,1.6-4.9,1.6-7.5c2.3,1.1,4.2,2.3,6.5,3.5C-4.2,66.7-2.9,76-0.1,84.9l4.3,1.9l0.1,0.9
					C2.8,77.1,1.8,66.5,1.4,55.7c-5.3-2.9-10-6.7-14.2-11C-10.7,26.7,0,9.6,15-0.6c3.2,4.5,7.2,8.4,11,12.3c2.8-1.3,6.3-2.5,9-3.9
					c7.1,6.1,12,14.9,13.8,24c-16.5,5.5-27.5,26.4-17.2,41.9c12,19.3,42.2,8.4,49.1-10c4.9-14.7-7-34.3-23-34.4
					c-3.2-8-7.3-15.4-12.6-22.3c7.1-3.3,15.2-6.4,22.7-7.9c7.8,8.1,14.9,17.2,19.6,27.5c3.5-2.4,6.9-5.3,9.8-8.6l-1.4-5l0.1-0.1
					c-2,2.4-4.2,4.6-6.9,6.7C83.4,9.7,76.2,0.6,68-7.5C56.7-5.8,45.8-2.7,35.3,1.6c-2-2.5-3.5-5-5.3-7.6c4.2-2.4,8.3-4.5,12.7-6.5
					C38.4-19.4,33.4-26.1,27.7-31.9z M-0.1-15.8C-6-14.1-11.9-8.5-13.3-2.5C-12.2,5-2.4-1.2,2.1-7.4C5.2-11.6,5.8-15.8-0.1-15.8
					C0-15.8-0.1-15.8-0.1-15.8z M4.3,88.1l0-0.3L4.3,88.1z M4.6,89.9C4.6,89.9,4.6,89.9,4.6,89.9c-0.1-0.6-0.2-1.2-0.2-1.8
					C4.3,88.1,4.6,89.9,4.6,89.9z"/>
			</g>
		</mask>
		<g class="st23">
			<g>
				
					<image style="overflow:visible;" width="71" height="46" xlink:href="F2B6DDCFB3BF5271.png"  transform="matrix(1 0 0 1 -61.0208 18.3211)">
				</image>
			</g>
		</g>
		<defs>
			<filter id="Adobe_OpacityMaskFilter_8_" filterUnits="userSpaceOnUse" x="6.1" y="35.1" width="71" height="46">
				<feColorMatrix  type="matrix" values="1 0 0 0 0  0 1 0 0 0  0 0 1 0 0  0 0 0 1 0"/>
			</filter>
		</defs>
		<mask maskUnits="userSpaceOnUse" x="6.1" y="35.1" width="71" height="46" id="_x30_0veg6elak_12_">
			<g class="st24">
				<path id="_x30_1xn100ugg_13_" class="st3" d="M27.7-31.9l-0.2,3.2c-4,0.9-8,2.1-12.1,3.7c-0.1-0.2-0.3-0.3-0.4-0.5
					c3.4,3.8,6.3,7.8,8.9,12.2c-19.4,9-34.7,28.1-39.1,49.1c-0.2-4.4-6.9-5.1-8.8-1.2c-1,1.4-1.5,4-1.5,7.1v0.3
					c0,10.6,5.6,26.4,13.8,19.5h0c1.6-2.1,1.6-4.9,1.6-7.5c2.3,1.1,4.2,2.3,6.5,3.5C-4.2,66.7-2.9,76-0.1,84.9l4.3,1.9l0.1,0.9
					C2.8,77.1,1.8,66.5,1.4,55.7c-5.3-2.9-10-6.7-14.2-11C-10.7,26.7,0,9.6,15-0.6c3.2,4.5,7.2,8.4,11,12.3c2.8-1.3,6.3-2.5,9-3.9
					c7.1,6.1,12,14.9,13.8,24c-16.5,5.5-27.5,26.4-17.2,41.9c12,19.3,42.2,8.4,49.1-10c4.9-14.7-7-34.3-23-34.4
					c-3.2-8-7.3-15.4-12.6-22.3c7.1-3.3,15.2-6.4,22.7-7.9c7.8,8.1,14.9,17.2,19.6,27.5c3.5-2.4,6.9-5.3,9.8-8.6l-1.4-5l0.1-0.1
					c-2,2.4-4.2,4.6-6.9,6.7C83.4,9.7,76.2,0.6,68-7.5C56.7-5.8,45.8-2.7,35.3,1.6c-2-2.5-3.5-5-5.3-7.6c4.2-2.4,8.3-4.5,12.7-6.5
					C38.4-19.4,33.4-26.1,27.7-31.9z M-0.1-15.8C-6-14.1-11.9-8.5-13.3-2.5C-12.2,5-2.4-1.2,2.1-7.4C5.2-11.6,5.8-15.8-0.1-15.8
					C0-15.8-0.1-15.8-0.1-15.8z M4.3,88.1l0-0.3L4.3,88.1z M4.6,89.9C4.6,89.9,4.6,89.9,4.6,89.9c-0.1-0.6-0.2-1.2-0.2-1.8
					C4.3,88.1,4.6,89.9,4.6,89.9z"/>
			</g>
		</mask>
		<g class="st25">
			<g>
				
					<image style="overflow:visible;" width="71" height="46" xlink:href="F2B6DDCFB3BF5273.png"  transform="matrix(1 0 0 1 6.0762 35.0951)">
				</image>
			</g>
		</g>
		<defs>
			<filter id="Adobe_OpacityMaskFilter_9_" filterUnits="userSpaceOnUse" x="48.5" y="37.9" width="33.9" height="41.2">
				<feColorMatrix  type="matrix" values="1 0 0 0 0  0 1 0 0 0  0 0 1 0 0  0 0 0 1 0"/>
			</filter>
		</defs>
		<mask maskUnits="userSpaceOnUse" x="48.5" y="37.9" width="33.9" height="41.2" id="_x30_0veg6elak_11_">
			<g class="st26">
				<path id="_x30_1xn100ugg_12_" class="st3" d="M27.7-31.9l-0.2,3.2c-4,0.9-8,2.1-12.1,3.7c-0.1-0.2-0.3-0.3-0.4-0.5
					c3.4,3.8,6.3,7.8,8.9,12.2c-19.4,9-34.7,28.1-39.1,49.1c-0.2-4.4-6.9-5.1-8.8-1.2c-1,1.4-1.5,4-1.5,7.1v0.3
					c0,10.6,5.6,26.4,13.8,19.5h0c1.6-2.1,1.6-4.9,1.6-7.5c2.3,1.1,4.2,2.3,6.5,3.5C-4.2,66.7-2.9,76-0.1,84.9l4.3,1.9l0.1,0.9
					C2.8,77.1,1.8,66.5,1.4,55.7c-5.3-2.9-10-6.7-14.2-11C-10.7,26.7,0,9.6,15-0.6c3.2,4.5,7.2,8.4,11,12.3c2.8-1.3,6.3-2.5,9-3.9
					c7.1,6.1,12,14.9,13.8,24c-16.5,5.5-27.5,26.4-17.2,41.9c12,19.3,42.2,8.4,49.1-10c4.9-14.7-7-34.3-23-34.4
					c-3.2-8-7.3-15.4-12.6-22.3c7.1-3.3,15.2-6.4,22.7-7.9c7.8,8.1,14.9,17.2,19.6,27.5c3.5-2.4,6.9-5.3,9.8-8.6l-1.4-5l0.1-0.1
					c-2,2.4-4.2,4.6-6.9,6.7C83.4,9.7,76.2,0.6,68-7.5C56.7-5.8,45.8-2.7,35.3,1.6c-2-2.5-3.5-5-5.3-7.6c4.2-2.4,8.3-4.5,12.7-6.5
					C38.4-19.4,33.4-26.1,27.7-31.9z M-0.1-15.8C-6-14.1-11.9-8.5-13.3-2.5C-12.2,5-2.4-1.2,2.1-7.4C5.2-11.6,5.8-15.8-0.1-15.8
					C0-15.8-0.1-15.8-0.1-15.8z M4.3,88.1l0-0.3L4.3,88.1z M4.6,89.9C4.6,89.9,4.6,89.9,4.6,89.9c-0.1-0.6-0.2-1.2-0.2-1.8
					C4.3,88.1,4.6,89.9,4.6,89.9z"/>
			</g>
		</mask>
		<path class="st27" d="M81.3,66.1c-0.6,1.9-1.5,3.6-2.6,5.3c-1.1,0.8-2.2,1.5-3.5,2l0.6,1.5c-1.5,1.5-3.1,2.9-4.8,4.1
			c-0.6,0.1-1.3,0.1-1.9,0.1H69v-4.6c-2.1,0-4.2-0.4-6.1-1.2l-1.8,4.2c-2.5-1-4.8-2.6-6.7-4.5l3.3-3.2c-1.5-1.5-2.7-3.3-3.5-5.2
			L50,66.4c-1-2.5-1.6-5.2-1.5-7.8l4.6,0c0-2.2,0.4-4.2,1.2-6.1L50,50.6c1-2.5,2.6-4.8,4.5-6.7l3.2,3.3c1.5-1.5,3.3-2.7,5.2-3.5
			l-1.8-4.2c2.5-1,5.1-1.5,7.8-1.6h0.1v4.6c2.2,0,4.2,0.4,6.1,1.2l0.9-2.3c0.7,1,1.4,2,2,3C82,50.9,83.7,59,81.3,66.1"/>
		<defs>
			<filter id="Adobe_OpacityMaskFilter_10_" filterUnits="userSpaceOnUse" x="15.6" y="-8.6" width="47.9" height="57.5">
				<feColorMatrix  type="matrix" values="1 0 0 0 0  0 1 0 0 0  0 0 1 0 0  0 0 0 1 0"/>
			</filter>
		</defs>
		<mask maskUnits="userSpaceOnUse" x="15.6" y="-8.6" width="47.9" height="57.5" id="_x30_0veg6elak_10_">
			<g class="st28">
				<path id="_x30_1xn100ugg_11_" class="st3" d="M27.7-31.9l-0.2,3.2c-4,0.9-8,2.1-12.1,3.7c-0.1-0.2-0.3-0.3-0.4-0.5
					c3.4,3.8,6.3,7.8,8.9,12.2c-19.4,9-34.7,28.1-39.1,49.1c-0.2-4.4-6.9-5.1-8.8-1.2c-1,1.4-1.5,4-1.5,7.1v0.3
					c0,10.6,5.6,26.4,13.8,19.5h0c1.6-2.1,1.6-4.9,1.6-7.5c2.3,1.1,4.2,2.3,6.5,3.5C-4.2,66.7-2.9,76-0.1,84.9l4.3,1.9l0.1,0.9
					C2.8,77.1,1.8,66.5,1.4,55.7c-5.3-2.9-10-6.7-14.2-11C-10.7,26.7,0,9.6,15-0.6c3.2,4.5,7.2,8.4,11,12.3c2.8-1.3,6.3-2.5,9-3.9
					c7.1,6.1,12,14.9,13.8,24c-16.5,5.5-27.5,26.4-17.2,41.9c12,19.3,42.2,8.4,49.1-10c4.9-14.7-7-34.3-23-34.4
					c-3.2-8-7.3-15.4-12.6-22.3c7.1-3.3,15.2-6.4,22.7-7.9c7.8,8.1,14.9,17.2,19.6,27.5c3.5-2.4,6.9-5.3,9.8-8.6l-1.4-5l0.1-0.1
					c-2,2.4-4.2,4.6-6.9,6.7C83.4,9.7,76.2,0.6,68-7.5C56.7-5.8,45.8-2.7,35.3,1.6c-2-2.5-3.5-5-5.3-7.6c4.2-2.4,8.3-4.5,12.7-6.5
					C38.4-19.4,33.4-26.1,27.7-31.9z M-0.1-15.8C-6-14.1-11.9-8.5-13.3-2.5C-12.2,5-2.4-1.2,2.1-7.4C5.2-11.6,5.8-15.8-0.1-15.8
					C0-15.8-0.1-15.8-0.1-15.8z M4.3,88.1l0-0.3L4.3,88.1z M4.6,89.9C4.6,89.9,4.6,89.9,4.6,89.9c-0.1-0.6-0.2-1.2-0.2-1.8
					C4.3,88.1,4.6,89.9,4.6,89.9z"/>
			</g>
		</mask>
		<g class="st29">
			<path class="st30" d="M63.5,31.2c-1.5,3.5-3.6,6.6-6.3,9.3L52.7,36c-2.1,2.1-4.5,3.7-7.3,4.8l2.4,5.9c-3.5,1.4-7.2,2.2-10.9,2.1
				h-0.1v-6.4c-0.7,0-1.4,0-2.1-0.1c3.7-4.3,8.7-7.6,14-9.7c-1.7-9.2-6.7-18-13.8-24c-2.8,1.3-6.3,2.5-9,3.9
				c-3.6-3.7-7.4-7.4-10.4-11.6c0.4-0.4,0.7-0.8,1.1-1.2l4.5,4.5c2.1-2.1,4.5-3.7,7.2-4.8L26-6.5c3.2-1.3,6.7-2.1,10.2-2.2
				c-2.1,1.1-4.1,2.2-6.1,3.3c1.8,2.7,3.2,5.2,5.3,7.6c2.9-1.2,5.9-2.3,9-3.3c0.4,0.1,0.8,0.3,1.3,0.5l0.4-1
				c2.4-0.8,4.8-1.5,7.2-2.1c1.5,1,2.9,2.2,4.2,3.5l-4.5,4.5c0.1,0.1,0.1,0.1,0.2,0.2c-2.7,1-5.3,2.2-7.9,3.4
				c5.2,6.8,9.3,14.3,12.6,22.3c1.5,0,3.1,0.2,4.5,0.5L63.5,31.2L63.5,31.2z"/>
		</g>
	</g>
	<path class="st31" d="M-8.6-0.6c0-0.3,0-0.5,0-0.8c0.2-3,3.1-6.2,5.1-8.3c2.2-2.3,4.9-4.3,8.1-5c1.5-0.3,2.6,0,3.4,0.6
		c-0.5-1.4-1.9-2.2-4.2-1.8c-3.2,0.7-5.9,2.7-8.1,5c-2,2.1-4.9,5.3-5.1,8.3c0,0.3,0,0.5,0,0.8C-9.3-1-9-0.3-8.4,0.2
		C-8.5-0.1-8.6-0.3-8.6-0.6L-8.6-0.6z M102.1,17l-1.3,0.3c-2.9,3.2-6.2,6.1-9.9,8.7l0.4,0.8C95.5,23.7,99.2,20.5,102.1,17z M31.8,56
		c2.3-10,9.7-17.8,20-22.6l0.8-1.5C40,37.2,33.8,45.6,31.8,56z M81.4,42.2c-4.3-7.2-11.5-12.8-19.9-12.8c-3.2-8-7.3-15.4-12.6-22.3
		v2.8c4.5,6.1,8.2,13.2,11.3,21.2c0,0,17.5-2.3,22.4,21.5c4.9,23.8-27.7,34.7-39.3,27.5c-3.6-2.2-6.2-4.4-7.9-6.2
		c3.2,4.9,8.3,8.7,14.1,9.9c7,1.5,14.4-0.8,20.6-4.3c6.3-3.6,12.1-8.7,14.4-15.6C86.9,56.7,85.2,48.6,81.4,42.2L81.4,42.2z
		 M31.3,67.4c0-0.2-0.1-0.4-0.1-0.5C31.2,67.1,31.2,67.2,31.3,67.4z M33.8-6v2.4l4.9,6.8c10.7-3.9,21.5-6.9,32.2-9
		c8.2,8,15.4,16.7,21.4,26.1l0.6-0.6C87.4,10.1,80.4,1,71.8-7.5C61.3-6.1,50.3-2.9,39.1,1.6L33.8-6L33.8-6z M0.3,57.4
		C-0.5,68,1.3,78,4.6,87.7L6,86c-2.8-9.6-4-19.4-3.2-29.3l-6.8-3.8l-2.4,1C-6.2,53.9,0.3,57.4,0.3,57.4z M-19.6,49.3
		c-3.6-16.4,3-17.4,6.5-16.5c-0.7-0.5-1.4-0.8-2.2-0.9c-1.9-0.2-3.8,1-4.9,2.6c-1.1,1.6-1.4,3.6-1.5,5.6c-0.4,6.6,1.6,14.1,5.1,19.7
		c1.3,2,3.5,3.8,5.9,3.4c1.2-0.2,2.2-0.9,2.9-1.9C-8.2,61.7-15.7,66.6-19.6,49.3L-19.6,49.3z M-11.4,35.8l0.9-0.1
		c5.9-21.8,19-36.6,38.2-47.5v-1.5C8.4-4.7-6.7,12.9-11.4,35.8z M31.5-31.9c5.5,5.6,10.4,12.1,15,19.3l-1.7,0.8
		c-4.3-6.7-8.8-12.5-13.5-16.9L31.5-31.9z"/>
	<g class="st32">
		<path class="st33" d="M8.6,11.4c-0.9,1.2-1.7,2.8-0.9,4.2c0.6,1.1,2.1,1.5,3.4,1.7c2.9,0.3,5.9,0.1,8.7-0.6c1.5-0.4,3.1-1,3.7-2.5
			c0.6-1.3,0.1-2.9-0.4-4.3c-0.6-1.6-1.2-3.3-2.4-4.6C16.4,1,10.9,8.1,8.6,11.4 M12.4-10.9c-0.4,0.6-0.7,1.5-0.2,2
			c0.4,0.4,1.2,0.4,1.8,0.2c2.3-0.6,4.5-1.4,6.6-2.5c0.7-0.4,1.4-0.8,2-1.4c0.5-0.6,0.9-1.4,0.7-2.2c-0.2-1.1-1.4-1.8-2.5-2
			C17-17.2,14.2-13.9,12.4-10.9"/>
	</g>
	<path class="st34" d="M79.1,63.2c-0.7,1-1.7,1.7-2.8,1.7c-1.1,0-2.2-0.5-3.1-1.3c-1.6-1.6-2.3-4.1-1.6-6.2c0.7-2.2,2.8-4.3,5-4.6
		c-1.6,0-3.3,0.2-4.8,0.8c-1.5,0.6-2.9,1.6-3.7,3.1c-1.3,2.2-1,5,0.3,7.2c1.2,2.2,3.3,3.8,5.6,4.9c-1.8,0.3-3.6-0.2-5.1-1
		c-4.7-2.5-7.7-7.2-6.2-12.6c0.9-3.1,3.2-5.7,6.1-6.9c2.9-1.2,6.4-0.9,9.2,0.7c2.8,1.7,3.5,6.5,3.2,9.5
		C80.8,59.8,80.2,61.7,79.1,63.2"/>
</g>
</svg>
