<svg width="170" height="148" viewBox="0 0 170 148" xmlns="http://www.w3.org/2000/svg" xmlns:xlink="http://www.w3.org/1999/xlink">
    <defs>
        <radialGradient cx="69.277%" cy="21.097%" fx="69.277%" fy="21.097%" r="114.443%" gradientTransform="matrix(-.60534 .79292 -.79596 -.60303 1.28 -.211)" id="44ebmqf2bb">
            <stop stop-color="#FFF" offset="0%"/>
            <stop stop-color="#FFE245" offset="28.076%"/>
            <stop stop-color="#E38427" offset="100%"/>
        </radialGradient>
        <radialGradient cx="61.182%" cy="-10.018%" fx="61.182%" fy="-10.018%" r="127.098%" gradientTransform="matrix(.5942 .54327 -.3845 .83956 .21 -.348)" id="v0wm037spc">
            <stop stop-color="#E38427" offset=".37%"/>
            <stop stop-color="#FFE245" offset="91.85%"/>
        </radialGradient>
        <radialGradient cx="81.084%" cy="36.817%" fx="81.084%" fy="36.817%" r="74.374%" gradientTransform="matrix(-.50399 .84953 -.86371 -.49571 1.537 -.138)" id="r5r0t1becd">
            <stop stop-color="#FFE245" offset="0%"/>
            <stop stop-color="#E38427" offset="100%"/>
        </radialGradient>
        <radialGradient cx="50.032%" cy="50.516%" fx="50.032%" fy="50.516%" r="132.055%" gradientTransform="scale(.27992 1) rotate(32.907 1.144 2.684)" id="bpg9pjn1ke">
            <stop stop-color="#FFE245" offset="8.148%"/>
            <stop stop-color="#E38427" offset="99.63%"/>
        </radialGradient>
        <radialGradient cx="50.032%" cy="50.516%" fx="50.032%" fy="50.516%" r="132.055%" gradientTransform="scale(.27992 1) rotate(32.907 1.144 2.684)" id="b0hlxjafsf">
            <stop stop-color="#DFAB45" offset="8.148%"/>
            <stop stop-color="#E64A24" offset="100%"/>
        </radialGradient>
        <radialGradient cx="45.094%" cy="57.786%" fx="45.094%" fy="57.786%" r="63.569%" gradientTransform="scale(.67166 1) rotate(32.907 .561 .951)" id="u38c5amorg">
            <stop stop-color="#DFAB45" offset="8.148%"/>
            <stop stop-color="#E64A24" offset="100%"/>
        </radialGradient>
        <radialGradient cx="49.493%" cy="37.338%" fx="49.493%" fy="37.338%" r="175.352%" gradientTransform="matrix(.17526 .54327 -.1134 .83956 .45 -.209)" id="m7xg306nuh">
            <stop stop-color="#DFAB45" offset="8.148%"/>
            <stop stop-color="#E64A24" offset="100%"/>
        </radialGradient>
        <radialGradient cx="51.293%" cy="45.989%" fx="51.293%" fy="45.989%" r="97.931%" gradientTransform="scale(.3991 1) rotate(33.572 .9 1.74)" id="dfx76fpgai">
            <stop stop-color="#DFAB45" offset="8.148%"/>
            <stop stop-color="#E64A24" offset="100%"/>
        </radialGradient>
        <radialGradient cx="50.001%" cy="50.012%" fx="50.001%" fy="50.012%" r="55.902%" gradientTransform="scale(1 .81057) rotate(32.834 .302 .559)" id="7yb60pihop">
            <stop stop-color="#FFE245" offset="8.148%"/>
            <stop stop-color="#E38427" offset="99.63%"/>
        </radialGradient>
        <radialGradient cx="47.321%" cy="49.167%" fx="47.321%" fy="49.167%" r="65.215%" gradientTransform="matrix(.52125 .54327 -.3373 .83956 .392 -.178)" id="171le9wlgq">
            <stop stop-color="#DFAB45" offset="8.148%"/>
            <stop stop-color="#E64A24" offset="100%"/>
        </radialGradient>
        <radialGradient cx="65.999%" cy="50.942%" fx="65.999%" fy="50.942%" r="97.736%" gradientTransform="scale(1 .37646) rotate(32.907 -.769 .931)" id="rb3mm5sw5r">
            <stop stop-color="#DFAB45" offset="8.148%"/>
            <stop stop-color="#E64A24" offset="100%"/>
        </radialGradient>
        <radialGradient cx="48.651%" cy="51.738%" fx="48.651%" fy="51.738%" r="55.614%" gradientTransform="scale(1 .81042) rotate(32.907 .282 .578)" id="yvq564p6os">
            <stop stop-color="#DFAB45" offset="8.148%"/>
            <stop stop-color="#E64A24" offset="100%"/>
        </radialGradient>
        <path id="a494jlxf6j" d="M0 0h4.924v4.242H0z"/>
        <path id="81xovejxnl" d="M0 0h12.012v7.61H0z"/>
        <path id="w6xyxcen2n" d="M0 0h5.211v2.633H0z"/>
        <filter x="-27.9%" y="-34.2%" width="155.8%" height="168.5%" filterUnits="objectBoundingBox" id="77p8c5cb9a">
            <feOffset dy="6" in="SourceAlpha" result="shadowOffsetOuter1"/>
            <feGaussianBlur stdDeviation="5.5" in="shadowOffsetOuter1" result="shadowBlurOuter1"/>
            <feColorMatrix values="0 0 0 0 0 0 0 0 0 0.133333333 0 0 0 0 0.211764706 0 0 0 0.5 0" in="shadowBlurOuter1" result="shadowMatrixOuter1"/>
            <feMerge>
                <feMergeNode in="shadowMatrixOuter1"/>
                <feMergeNode in="SourceGraphic"/>
            </feMerge>
        </filter>
    </defs>
    <g filter="url(#77p8c5cb9a)" transform="matrix(-1 0 0 1 145 25)" fill="none" fill-rule="evenodd" opacity=".703">
        <ellipse fill="url(#44ebmqf2bb)" fill-rule="nonzero" cx="59.275" cy="50.117" rx="36.206" ry="36.346"/>
        <path d="M93.195 37.415c-.838 4.056-2.363 8.035-4.726 11.707-10.137 15.84-31.175 20.43-46.954 10.177-8.69-5.586-13.949-14.538-15.245-24.026-7.24 16.145-1.829 35.58 13.416 45.45C56.53 91.59 78.94 86.77 89.766 69.859c6.402-10.1 7.317-22.113 3.43-32.443z" fill="url(#v0wm037spc)" fill-rule="nonzero"/>
        <path d="M92.204 65.267a33.357 33.357 0 0 1-11.586 4.898c-18.37 3.978-36.435-7.729-40.399-26.17-2.21-10.1.382-20.2 6.175-27.851-16.465 6.274-26.374 23.873-22.487 41.625C28.1 77.357 47.385 89.829 66.974 85.62c11.586-2.449 20.657-10.33 25.23-20.354z" fill="url(#r5r0t1becd)" fill-rule="nonzero" opacity=".45"/>
        <ellipse fill="#FFF" fill-rule="nonzero" opacity=".5" transform="rotate(-12.31 62.85 32.671)" cx="62.851" cy="32.671" rx="4.955" ry="4.973"/>
        <path d="M58.208 46.062c0 .076 0 .153.077.153.304.994 1.067 1.836 2.21 1.836 1.067 0 1.982-.612 2.363-1.683.076-.153.076-.383.076-.612.076-.919-.533-1.837-1.372-2.22-.762-.382-1.905-.305-2.515.383-.076.077-.076.153-.153.153-.533.612-.914 1.301-.686 1.99zM70.252 43.766c-.076 0-.153 0-.229-.076-.686-.153-1.448 0-1.83.688-.38.612-.304 1.378.153 1.99l.153.153c.686.842 2.134.688 2.667-.23.61-.918.153-2.295-.914-2.525z" fill="#F99A00" fill-rule="nonzero"/>
        <path d="M77.722 35.962c3.43 2.218 6.784-3.138 3.43-5.28-3.43-2.22-6.86 3.06-3.43 5.28zM80.237 48.051c1.143.689 2.21-.995 1.143-1.76-1.143-.765-2.286.995-1.143 1.76z" fill="#FFF14F" fill-rule="nonzero"/>
        <path d="M49.366 41.624c1.067.688 2.744.459 3.43-.765.686-1.148.458-2.679-.762-3.444-1.067-.688-2.744-.459-3.43.765-.686 1.148-.457 2.679.762 3.444zM50.967 24.943c1.83 1.224 3.735-1.683 1.83-2.908-1.83-1.224-3.736 1.684-1.83 2.908zM44.03 29.993h-.304c-1.144-.153-2.058 1.301-1.449 2.296.077.076.077.153.153.23.686 1.07 2.21 1.3 2.973.152.762-1.147-.077-2.525-1.372-2.678zM65.83 23.642c.687.46 1.525.612 2.364.46.762-.154 1.6-.69 1.982-1.378.838-1.454.533-3.367-.915-4.285-.686-.459-1.525-.612-2.363-.459-.762.153-1.6.689-1.982 1.377-.838 1.454-.534 3.367.915 4.285z" fill="#F99A00" fill-rule="nonzero"/>
        <path d="M65.755 58.075c1.448.918 2.896-1.3 1.448-2.22-1.448-.917-2.897 1.302-1.448 2.22zM72.081 55.932c1.296.842 2.668-1.224 1.296-2.066-1.296-.841-2.592 1.225-1.296 2.066zM71.929 38.41c1.372.918 2.82-1.3 1.372-2.142-1.372-.919-2.744 1.224-1.372 2.142z" fill="#FFF14F" fill-rule="nonzero"/>
        <path d="M68.651 29.917c1.22.765 2.363-1.072 1.22-1.837-1.22-.765-2.44 1.071-1.22 1.837z" fill="#F99A00" fill-rule="nonzero"/>
        <path d="M31.682 52.03c1.144.765 2.82.46 3.583-.765.686-1.224.457-2.755-.762-3.596-1.144-.766-2.82-.46-3.583.765-.686 1.224-.457 2.83.762 3.596z" fill="#FFF" fill-rule="nonzero" opacity=".5"/>
        <path d="M40.067 68.558c.381.23.762-.383.381-.612-.381-.23-.762.306-.381.612zM47.156 68.175c1.448.918 2.896-1.3 1.448-2.219-1.448-.918-2.896 1.3-1.448 2.22zM36.866 67.027v-.153c.152-.994-1.144-1.836-1.982-1.3-.076 0-.076.076-.153.076-.457.306-.762.689-.838 1.224 0 .536.228.995.686 1.301.457.306.99.306 1.448.077.534-.23.686-.689.839-1.225zM72.234 69.323c.762.535 1.981.306 2.439-.536.457-.841.305-1.913-.534-2.448-.762-.536-1.982-.306-2.439.535-.457.842-.305 1.913.534 2.449zM77.798 71.924c0 .077.076 0 0 0 0-.076-.076 0 0 0zM84.353 53.943c1.296.842 2.668-1.224 1.296-2.066-1.296-.765-2.592 1.224-1.296 2.066zM80.542 73.608c1.982 1.3 3.964-1.76 1.982-3.06-1.982-1.302-3.964 1.759-1.982 3.06z" fill="#E3AD27" fill-rule="nonzero"/>
        <path d="M72.92 54.402c-4.498 7.04-2.516 16.375 4.497 20.966 1.753 1.147 3.735 1.836 5.64 2.219 2.516-2.22 4.803-4.744 6.632-7.729 3.735-5.815 5.564-12.242 5.793-18.67a14.884 14.884 0 0 0-1.753-1.3c-6.937-4.591-16.312-2.525-20.81 4.514z" fill="#FFF14F" fill-rule="nonzero" opacity=".5"/>
        <path d="M92.814 36.42c-1.448-3.672-3.582-7.115-6.25-10.176a6.057 6.057 0 0 0-1.296 1.454c-1.83 2.83-.991 6.504 1.753 8.34 1.83 1.071 4.04 1.148 5.793.383z" fill="#FFF14F" fill-rule="nonzero"/>
        <path d="M39.686 80.647a43.846 43.846 0 0 0 4.573 2.525c1.449-.994 2.668-2.295 3.66-3.825 4.191-6.504 2.286-15.227-4.193-19.436-6.022-3.902-13.95-2.525-18.37 2.908 2.591 7.116 7.47 13.39 14.33 17.828z" fill="#FFF14F" fill-rule="nonzero" opacity=".5"/>
        <path d="M47.766 77.893c2.591 1.683 5.26-2.372 2.667-4.132-2.667-1.684-5.335 2.448-2.667 4.132z" fill="#FFF14F" fill-rule="nonzero"/>
        <path d="M26.194 35.35c-1.448 3.213-2.363 6.58-2.82 9.947 1.6-.153 3.201-1.072 4.116-2.525 1.6-2.449.99-5.74-1.296-7.423z" fill="#FFF14F" fill-rule="nonzero" opacity=".5"/>
        <path d="M63.925 81.948a6.878 6.878 0 0 0-9.528 2.066c-.381.612-.686 1.3-.838 1.99 4.42.688 8.918.612 13.186-.307-.457-1.53-1.448-2.83-2.82-3.749z" fill="#F99A00" fill-rule="nonzero"/>
        <path d="M60.952 75.827c2.592 1.683 6.022.918 7.7-1.684 1.676-2.601.914-6.044-1.678-7.728-2.592-1.683-6.022-.918-7.699 1.684-1.6 2.601-.838 6.044 1.677 7.728z" fill="#FFF14F" fill-rule="nonzero"/>
        <path d="M119.95 56.238c.61-4.973-5.183-9.411-17.684-13.696-2.82-.918-5.284-1.836-8.562-2.755.382.919.61 1.913.839 2.831.381 1.225.61 2.449.838 3.75 1.449.459 2.311.841 3.684 1.3 12.653 4.133 14.635 7.193 14.94 7.805-.382.46-3.126 2.984-16.389 3.98-10.671.764-24.391.229-38.722-1.531-14.33-1.76-27.821-4.515-37.96-7.881C8.282 45.909 6.3 42.848 5.995 42.236c.382-.46 1.37-2.984 14.633-3.979 1.448-.077 2.973-.153 4.497-.23a19.513 19.513 0 0 1 2.668-6.044c-3.201.076-6.25.23-9.07.459C5.61 33.589.658 36.497.048 41.47c-.38 2.907 1.449 5.585 5.488 8.187 2.897 1.836 6.937 3.673 12.12 5.433 10.671 3.673 25.078 6.657 40.475 8.57 15.397 1.913 30.109 2.372 41.314 1.453 13.263-.918 19.894-3.902 20.504-8.876z" fill="url(#bpg9pjn1ke)" fill-rule="nonzero"/>
        <path d="M119.95 56.238c.61-4.973-5.183-9.411-17.684-13.696-2.82-.918-4.699-1.836-7.976-2.755.38.919.61 1.913.838 2.831.381 1.225.61 2.449.839 3.75 1.448.459 2.896.841 4.268 1.3 12.653 4.133 13.465 7.193 13.77 7.805-.382.46-3.126 2.984-16.389 3.98-10.671.764-24.391.229-38.722-1.531-14.33-1.76-27.821-4.515-37.96-7.881C8.282 45.909 6.3 42.848 5.995 42.236c.382-.46 3.126-2.984 16.389-3.979 1.448-.077 1.217-.153 2.741-.23a19.513 19.513 0 0 1 2.668-6.044c-3.201.076-4.494.23-7.315.459C7.367 33.589.66 36.497.05 41.47c-.38 2.907 1.449 5.585 5.488 8.187 2.897 1.836 6.937 3.673 12.12 5.433 10.671 3.673 25.078 6.657 40.475 8.57 15.397 1.913 30.109 2.372 41.314 1.453 13.263-.918 19.894-3.902 20.504-8.876z" fill="url(#b0hlxjafsf)" fill-rule="nonzero" opacity=".2"/>
        <g fill-rule="nonzero">
            <path d="M95.814 14.309c1.448.459 2.897.841 4.269 1.3 7.927 2.602 11.662 4.744 13.415 6.198 1.067-.535 1.449-.918 1.601-1.07-.305-.537-2.287-3.674-14.94-7.806-1.372-.459-2.82-.841-4.269-1.3-.228-1.225-.457-2.449-.838-3.673l-.915-.23c.381.918.61 1.913.839 2.831.38 1.148.686 2.449.838 3.75z" fill="url(#u38c5amorg)" transform="translate(.152 32.212)"/>
            <path d="M119.797 24.026c.077-.612.077-1.224-.076-1.76-1.296 4.438-7.927 7.04-20.2 8.111-11.204.995-25.915.46-41.313-1.454-15.397-1.913-29.803-4.897-40.475-8.57-5.183-1.76-9.223-3.596-12.12-5.432-3.2-2.066-5.03-4.209-5.411-6.428-.076.306-.153.613-.153.919-.38 2.907 1.449 5.585 5.488 8.187 2.897 1.836 6.937 3.673 12.12 5.433 10.671 3.672 25.078 6.657 40.475 8.57 15.397 1.912 30.109 2.372 41.314 1.453 13.11-1.07 19.742-4.055 20.351-9.029z" fill="url(#m7xg306nuh)" transform="translate(.152 32.212)"/>
            <path d="M25.124 3.29c-1.524.077-3.049.153-4.497.23C7.364 4.514 5.28 6.963 4.824 7.499c.076.23.457.765 1.525 1.607 1.981-.919 5.512-2.22 14.125-2.832 1.449-.076 2.973-.153 4.498-.23A19.513 19.513 0 0 1 27.639 0h-1.372c-.457.995-.838 2.142-1.143 3.29z" fill="url(#dfx76fpgai)" transform="translate(.152 32.212)"/>
        </g>
        <path d="M30.845 48.486c-.009.015.293.206.675.426.382.22.698.387.707.371.009-.015-.294-.206-.675-.426-.382-.22-.698-.387-.707-.371" fill="#FFF"/>
        <path d="M31.127 49.565c.015.008.208-.298.43-.683.224-.386.392-.706.377-.715-.015-.009-.208.297-.43.683-.224.386-.392.706-.377.715" fill="#FFF"/>
        <path d="M30.894 48.99c.002.01.294-.034.652-.099.358-.065.647-.126.645-.136-.002-.01-.294.034-.652.1-.358.064-.646.125-.645.136" fill="#FFF"/>
        <path d="M31.654 49.523c.01-.001-.032-.294-.093-.654-.061-.359-.12-.649-.13-.647-.01.002.032.295.093.654.061.36.12.65.13.647" fill="#FFF"/>
        <path d="M31.205 49.112c.003.006.158-.097.344-.23a3.68 3.68 0 0 0 .332-.25 3.639 3.639 0 0 0-.345.231 3.69 3.69 0 0 0-.331.25" fill="#FFF"/>
        <path d="M31.778 49.21a3.603 3.603 0 0 0-.226-.344 3.598 3.598 0 0 0-.244-.33c-.006.003.095.157.225.344.13.186.24.334.245.33" fill="#FFF"/>
        <path d="M31.137 48.804c0 .006.18.042.404.08.223.039.406.064.407.058a3.554 3.554 0 0 0-.403-.08 3.588 3.588 0 0 0-.408-.058" fill="#FFF"/>
        <path d="M31.47 49.281c.006.001.044-.18.084-.406.04-.226.068-.41.061-.41a3.69 3.69 0 0 0-.084.406c-.04.225-.067.409-.061.41M26.083 47.396c-.006.01.198.14.455.287.257.149.47.26.476.25.006-.01-.198-.138-.455-.286-.257-.149-.47-.26-.476-.25" fill="#FFF"/>
        <path d="M26.272 48.117c.01.006.14-.2.29-.46.15-.26.263-.476.253-.481-.01-.006-.14.2-.29.46-.15.26-.264.475-.253.48" fill="#FFF"/>
        <path d="M26.119 47.733c0 .006.197-.023.438-.067.242-.044.436-.085.435-.092a3.885 3.885 0 0 0-.439.067 3.87 3.87 0 0 0-.434.092" fill="#FFF"/>
        <path d="M26.63 48.091a3.926 3.926 0 0 0-.062-.44 3.877 3.877 0 0 0-.088-.436c-.006.001.022.198.063.44s.08.438.087.436" fill="#FFF"/>
        <path d="M26.328 47.815c.002.003.106-.066.232-.155.126-.09.225-.165.223-.168a2.464 2.464 0 0 0-.232.155c-.126.089-.226.164-.223.168" fill="#FFF"/>
        <path d="M26.714 47.88a2.45 2.45 0 0 0-.152-.231 2.433 2.433 0 0 0-.165-.223 2.39 2.39 0 0 0 .152.232c.087.125.161.225.165.222" fill="#FFF"/>
        <path d="M26.282 47.607c0 .004.121.028.272.054.15.026.273.043.274.039.001-.005-.12-.029-.271-.055a2.412 2.412 0 0 0-.275-.038" fill="#FFF"/>
        <path d="M26.506 47.928c.005 0 .03-.122.057-.274.027-.151.046-.275.041-.276-.004 0-.03.122-.057.274a2.473 2.473 0 0 0-.04.276" fill="#FFF"/>
        <g transform="scale(-1 1) rotate(-30 76.302 72.167)">
            <mask id="6fau536omk" fill="#fff">
                <use xlink:href="#a494jlxf6j"/>
            </mask>
            <path d="M1.929 0c.754.03.09.188-.031.268-.12.08-.088.299.208.171.297-.127.858-.265.98-.118.12.146.18.106-.023.185-.204.078-.473.174-.117.186.357.012 1.1.325 1.205.548.105.222-.007.109-.12.127-.113.018-.54.371-.194.338.345-.033 1.076.08 1.086.234.01.152-.698.367-1.044.382-.346.016.124.306.238.308.115.002.21-.125.136.11-.074.234-.766.649-1.118.71-.352.061-.071.119.14.168.213.05.148.018.048.18-.1.162-.648.148-.96.064-.311-.085-.296.054-.165.116.13.063.381.181.076.237C1.055 4.435.076 3.307.003 2.248-.07 1.188 1.174-.03 1.929 0" fill="#EB8C29" mask="url(#6fau536omk)"/>
        </g>
        <path d="M21.34 47.516c-.078.116.662 1.058.386 1.04-.275-.02-.389-.402-.38-.09.01.312 1.057.962.663.975-.393.013.35.319.688.367.339.047.213.255-.026.344-.238.09-.361.048-.062.194.167.082 1.08.251 1.608.135.42-.093.46-.454.678-.553.01-.27.457-.589.371-1.067-.087-.48-.706-1.119-.83-1.23-.249-.224-.164-.125-.157.13.007.255-.138.45-.309.153-.171-.296-.733-.87-.597-.5s-.86-.357-1.152-.249c-.292.109.104.07.225.32.122.248-1.028-.085-1.106.031" fill="#FFCC17"/>
        <path d="M25.286 50.287c-.59-.063-2.29-.433-1.757-.615.535-.181-.797-.51-.498-.545.298-.035-.228-.376-.059-.526.075-.213.588.147.509-.143-.08-.29.724.822.691.258-.032-.564.834 1.049 1.114 1.571" fill="#EB8C29"/>
        <path d="M26.222 50.08a.151.151 0 0 0 .186-.104l.623-2.155a.15.15 0 1 1-.287-.081l-.624 2.154a.15.15 0 0 0 .102.186" fill="#5C8F2B"/>
        <path d="M26.867 47.852a.107.107 0 0 0 .13-.073l.52-1.795a.105.105 0 1 1-.202-.057l-.52 1.795a.105.105 0 0 0 .072.13" fill="#0BA09F"/>
        <path d="M27.4 46.007c.036.01.073-.01.084-.047l.625-2.163a.067.067 0 1 1-.129-.036l-.625 2.163c-.01.036.01.073.046.083" fill="#0BA09F"/>
        <path d="M28.106 43.57a.285.285 0 0 1-.158.547.285.285 0 0 1 .158-.547" fill="#19C9C8"/>
        <path d="M28.124 43.625a.148.148 0 0 1-.082.284.148.148 0 0 1 .082-.284" fill="#FFF"/>
        <path d="M31.861 48.088c1.011 1.059 1.451 3.282.035 4.595-.26-.755-.663-1.424-1.149-1.889.564-.894.767-1.704.516-2.428-.149-.43.203-.691.598-.278" fill="#0BA09F"/>
        <path d="M32.03 48.983c.427.799.746 2.465-.313 3.378-.203-.102-.277-.527-.787-1.296.61-.615.873-1.377.75-1.984-.089-.44.118-.529.35-.098" fill="#19C9C8"/>
        <path d="M25.81 47.06a.214.214 0 0 0-.292.08.214.214 0 0 0 .077.294.214.214 0 0 0 .292-.08.214.214 0 0 0-.077-.293" fill="#0BA09F"/>
        <path d="M25.827 47.113a.124.124 0 0 0-.17.046.124.124 0 0 0 .045.17.124.124 0 0 0 .17-.047.124.124 0 0 0-.045-.17" fill="#19C9C8"/>
        <path d="M34.57 52.974a.214.214 0 0 0-.293.08.214.214 0 0 0 .077.293.214.214 0 0 0 .292-.08.214.214 0 0 0-.077-.293" fill="#0BA09F"/>
        <path d="M34.586 53.025a.124.124 0 0 0-.17.047.124.124 0 0 0 .045.17.124.124 0 0 0 .17-.047.124.124 0 0 0-.045-.17" fill="#19C9C8"/>
        <g transform="scale(-1 1) rotate(-30 78.05 93.812)">
            <mask id="k124ww5zum" fill="#fff">
                <use xlink:href="#81xovejxnl"/>
            </mask>
            <path d="M12.012 3.805c0 7.053-12.012 2.632-12.012 0s12.012-7.053 12.012 0" fill="#19C9C8" mask="url(#k124ww5zum)"/>
        </g>
        <path d="M25.144 48.357c-2.9 4.486 7.471 6.286 8.378 5.236 1.293-1.495-5.084-10.33-8.378-5.236" fill="#61A6C9"/>
        <path d="M25.415 48.502c-2.67 4.121 7.023 5.867 7.86 4.905 1.194-1.37-4.827-9.585-7.86-4.905" fill="#C2E8FA"/>
        <path d="M31.92 53.324c.591.03 1.02-.026 1.16-.18.757-.834-2.038-4.89-4.68-5.737 2.171 1.208 3.901 4.557 3.52 5.917" fill="#FFF"/>
        <g transform="scale(-1 1) rotate(-30 87.075 77.603)">
            <mask id="bowo3ib5ho" fill="#fff">
                <use xlink:href="#w6xyxcen2n"/>
            </mask>
            <path d="M4.79 2.421C3.216 2.997.699 2.433 0 .337.905.413 1.79.297 2.501 0c.665 1.006 1.41 1.593 2.281 1.664.516.042.623.533.008.757" fill="#0BA09F" mask="url(#bowo3ib5ho)"/>
        </g>
        <path d="M26.197 53.046c-.562-.402-1.126-.538-1.261-.305-.135.234.212.748.774 1.15.562.401 1.127.538 1.261.305.135-.234-.212-.748-.774-1.15" fill="#0BA09F"/>
        <path d="M22.768 53.936c.852.586 2.698 1.15 3.857.047-.091-.245-.563-.381-1.372-1.057-.768.626-1.66.835-2.332.622-.488-.154-.612.072-.153.388" fill="#19C9C8"/>
        <path d="M26.114 53.158c-.394-.283-.792-.377-.889-.21-.096.167.146.531.54.814.394.283.792.377.888.21.096-.167-.145-.531-.54-.814" fill="#19C9C8"/>
        <path d="M34.055 54.796a.214.214 0 0 0-.292.08.214.214 0 0 0 .077.294.214.214 0 0 0 .292-.08.214.214 0 0 0-.077-.294" fill="#0BA09F"/>
        <path d="M34.072 54.848a.124.124 0 0 0-.17.047.124.124 0 0 0 .045.17c.059.034.135.013.17-.047a.124.124 0 0 0-.045-.17" fill="#19C9C8"/>
        <path d="M32.347 54.958a.214.214 0 0 0-.293.08.214.214 0 0 0 .077.293.214.214 0 0 0 .293-.08.214.214 0 0 0-.077-.293" fill="#0BA09F"/>
        <path d="M32.363 55.01a.124.124 0 0 0-.169.046.124.124 0 0 0 .045.17.124.124 0 0 0 .169-.047.124.124 0 0 0-.045-.17" fill="#19C9C8"/>
        <path d="M30.327 54.725a.214.214 0 0 0-.292.08.214.214 0 0 0 .077.293.214.214 0 0 0 .292-.08.214.214 0 0 0-.077-.293" fill="#0BA09F"/>
        <path d="M30.344 54.777a.124.124 0 0 0-.17.046.124.124 0 0 0 .045.17.124.124 0 0 0 .17-.046.124.124 0 0 0-.045-.17" fill="#19C9C8"/>
        <path d="M28.088 54.074a.214.214 0 0 0-.292.08.214.214 0 0 0 .076.293.214.214 0 0 0 .293-.08.214.214 0 0 0-.077-.293" fill="#0BA09F"/>
        <path d="M28.104 54.126a.124.124 0 0 0-.169.046.124.124 0 0 0 .045.17.124.124 0 0 0 .169-.046.124.124 0 0 0-.045-.17" fill="#19C9C8"/>
        <path d="M24.65 51.836a.214.214 0 0 0-.293.08.214.214 0 0 0 .077.293.214.214 0 0 0 .292-.08.214.214 0 0 0-.077-.293" fill="#0BA09F"/>
        <path d="M24.666 51.888a.124.124 0 0 0-.17.046.124.124 0 0 0 .045.17.124.124 0 0 0 .17-.047.124.124 0 0 0-.045-.17" fill="#19C9C8"/>
        <path d="M23.982 50.361a.214.214 0 0 0-.293.08.214.214 0 0 0 .077.294.214.214 0 0 0 .292-.08.214.214 0 0 0-.076-.294" fill="#0BA09F"/>
        <path d="M23.998 50.413a.124.124 0 0 0-.17.046.124.124 0 0 0 .045.17.124.124 0 0 0 .17-.046.124.124 0 0 0-.045-.17" fill="#19C9C8"/>
        <path d="M24.351 48.455a.214.214 0 0 0-.292.08.214.214 0 0 0 .077.293.214.214 0 0 0 .292-.08.214.214 0 0 0-.077-.293" fill="#0BA09F"/>
        <path d="M24.368 48.507a.124.124 0 0 0-.17.046.124.124 0 0 0 .045.17.124.124 0 0 0 .17-.046.124.124 0 0 0-.045-.17" fill="#19C9C8"/>
        <path d="M24.528 51.064a.149.149 0 0 1-.145-.154l.076-2.237a.148.148 0 0 0 .145.154.152.152 0 0 0 .154-.147l-.076 2.237a.152.152 0 0 1-.154.147" fill="#0BA09F"/>
        <path d="M24.606 48.751a.105.105 0 0 1-.102-.108l.064-1.865a.104.104 0 0 0 .102.108.107.107 0 0 0 .108-.103l-.063 1.865a.107.107 0 0 1-.109.103" fill="#0BA09F"/>
        <path d="M24.671 46.835a.067.067 0 0 1-.064-.07l.076-2.246a.066.066 0 0 0 .065.07.068.068 0 0 0 .069-.067l-.077 2.247a.068.068 0 0 1-.069.066" fill="#0BA09F"/>
        <path d="M24.757 44.304a.287.287 0 0 0-.292.277.28.28 0 0 0 .273.291.287.287 0 0 0 .292-.277.28.28 0 0 0-.273-.291" fill="#19C9C8"/>
        <path d="M24.821 44.384a.149.149 0 0 0-.151.144.145.145 0 0 0 .141.151.149.149 0 0 0 .152-.144.145.145 0 0 0-.142-.15" fill="#FFF"/>
        <path d="M97.235 96.64c3.888-3.061 3.558-8.562-2.235-20.422-1.296-2.678-2.82-5.509-4.497-8.417-.381.919-.915 1.76-1.448 2.602a23.055 23.055 0 0 1-2.058 3.214c.762 1.377 1.448 2.678 2.134 3.979 6.022 11.86 4.674 13.764 4.522 14.3-.61.076-4.269-.077-14.33-8.8-8.08-7.04-17.456-17.14-26.298-28.54-8.842-11.402-16.464-22.956-21.343-32.52-6.021-11.86-5.26-15.534-5.107-16.07.61-.076 3.683-.512 13.745 8.21 1.067.919 2.21 1.99 3.354 3.061 1.906-1.147 3.964-1.913 6.098-2.372-2.287-2.219-3.988-3.695-6.122-5.531C33.588.84 26.804-1.838 22.84 1.223c-2.286 1.76-2.896 4.973-1.905 9.717.762 3.367 2.286 7.5 4.726 12.473 4.954 10.176 13.034 22.496 22.562 34.815 9.604 12.243 19.59 23.032 28.203 30.377C86.564 97.1 93.348 99.7 97.236 96.64z" fill="url(#7yb60pihop)" fill-rule="nonzero"/>
        <g fill-rule="nonzero">
            <path d="M21.327 11.041c-10.061-8.723-13.72-8.876-14.33-8.8-.076.23-.228.842-.076 2.22 1.906.612 5.87 2.525 12.806 8.57 1.067.918 2.21 1.989 3.354 3.06 1.905-1.148 3.963-1.913 6.098-2.372-.382-.383-.839-.765-1.22-1.148-1.143.46-2.287.918-3.354 1.53-1.067-1.07-2.21-2.065-3.278-3.06z" fill="url(#171le9wlgq)" transform="translate(20.517 1.146)"/>
            <path d="M66.48 72.547c.762 1.377 1.448 2.678 2.134 3.979 3.735 7.422 4.878 11.63 5.183 13.85.839.229 1.296.229 1.525.229.228-.612.914-4.208-5.107-16.069-.686-1.3-1.373-2.601-2.135-3.978a37.828 37.828 0 0 0 2.058-3.214c.077-.077.077-.153.153-.153l-.229-.46c-.381.919-.915 1.76-1.448 2.602-.686 1.072-1.448 2.143-2.134 3.214z" fill="url(#rb3mm5sw5r)" transform="translate(20.517 1.146)"/>
            <path d="M78.319 93.504c-3.888 3.06-10.748.459-20.81-8.111-8.613-7.27-18.674-18.058-28.202-30.377C19.702 42.773 11.699 30.377 6.744 20.2c-2.439-4.973-4.04-9.105-4.726-12.472-.686-3.29-.61-5.815.305-7.728C.113 1.76-.573 4.974.493 9.641c.763 3.367 2.288 7.499 4.727 12.472C10.174 32.29 18.254 44.61 27.782 56.93c9.604 12.242 19.59 23.031 28.203 30.377 10.062 8.493 16.846 11.171 20.81 8.11.609-.459 1.143-1.147 1.524-1.912z" fill="url(#yvq564p6os)" transform="translate(20.517 1.146)"/>
        </g>
    </g>
</svg>
