<svg width="156" height="124" viewBox="0 0 156 124" xmlns="http://www.w3.org/2000/svg" xmlns:xlink="http://www.w3.org/1999/xlink">
    <defs>
        <linearGradient x1="90.167%" y1="90.036%" x2="14.009%" y2="8.437%" id="tvyqnwl5ib">
            <stop stop-color="#58FFF8" offset="0%"/>
            <stop stop-color="#009BAD" offset="100%"/>
        </linearGradient>
        <linearGradient x1="91.448%" y1="73.718%" x2="12.861%" y2="25.377%" id="bmmpl3jydc">
            <stop stop-color="#58FFF8" offset="0%"/>
            <stop stop-color="#009BAD" offset="100%"/>
        </linearGradient>
        <linearGradient x1="5.747%" y1="112.684%" x2="39.933%" y2="28.642%" id="p0e1ywz2od">
            <stop stop-color="#5A37B9" offset="0%"/>
            <stop stop-color="#A438EF" offset="100%"/>
        </linearGradient>
        <linearGradient x1="4.336%" y1="87.135%" x2="39.612%" y2="37.347%" id="gbkcdn0sre">
            <stop stop-color="#5A37B9" offset="0%"/>
            <stop stop-color="#A438EF" offset="100%"/>
        </linearGradient>
        <linearGradient x1="81.997%" y1="4.098%" x2="19.698%" y2="93.466%" id="m30ld8eysf">
            <stop stop-color="#8FF" offset="8.05%"/>
            <stop stop-color="#18C5E0" offset="55.56%"/>
            <stop stop-color="#437DFF" offset="100%"/>
        </linearGradient>
        <linearGradient x1="107.406%" y1="36.099%" x2="-.046%" y2="68.681%" id="il9hytn3kg">
            <stop stop-color="#00ACE5" offset="2.68%"/>
            <stop stop-color="#0087BC" offset="49.81%"/>
            <stop stop-color="#474FB0" offset="100%"/>
        </linearGradient>
        <linearGradient x1="103.219%" y1="33.377%" x2="13.914%" y2="58.711%" id="iupglyl5vh">
            <stop stop-color="#5EFFBB" offset="0%"/>
            <stop stop-color="#33C9E2" offset="21.46%"/>
            <stop stop-color="#0088EB" offset="100%"/>
        </linearGradient>
        <linearGradient x1="105.659%" y1="45.677%" x2="-5.428%" y2="56.958%" id="6tf7dop9qi">
            <stop stop-color="#0087BC" offset="0%"/>
            <stop stop-color="#474FB0" offset="100%"/>
        </linearGradient>
        <linearGradient x1="105.651%" y1="38.443%" x2="1.578%" y2="65.236%" id="qk5u22ownj">
            <stop stop-color="#00ACE5" offset="2.68%"/>
            <stop stop-color="#0087BC" offset="49.81%"/>
            <stop stop-color="#474FB0" offset="100%"/>
        </linearGradient>
        <linearGradient x1="89.22%" y1="35.13%" x2="11.023%" y2="60.122%" id="njes49c46k">
            <stop stop-color="#5EFFBB" offset="0%"/>
            <stop stop-color="#33C9E2" offset="21.46%"/>
            <stop stop-color="#0088EB" offset="100%"/>
        </linearGradient>
        <linearGradient x1="76.627%" y1="28.966%" x2="20.699%" y2="73.147%" id="3ewf90mnul">
            <stop stop-color="#00CE89" offset="2.3%"/>
            <stop stop-color="#09BBFD" offset="19.92%"/>
            <stop stop-color="#0046BB" offset="100%"/>
        </linearGradient>
        <linearGradient x1="105.147%" y1="38.507%" x2="1.952%" y2="65.01%" id="fseqtlw5zm">
            <stop stop-color="#00CE89" offset="2.3%"/>
            <stop stop-color="#09BBFD" offset="19.92%"/>
            <stop stop-color="#0046BB" offset="100%"/>
        </linearGradient>
        <linearGradient x1="100.339%" y1="37.192%" x2="19.374%" y2="62.687%" id="lil2mdpoin">
            <stop stop-color="#5EFFBB" offset="0%"/>
            <stop stop-color="#33C9E2" offset="21.46%"/>
            <stop stop-color="#0088EB" offset="100%"/>
        </linearGradient>
        <linearGradient x1="106.055%" y1="38.474%" x2="-6.737%" y2="66.364%" id="rnww6vxs3o">
            <stop stop-color="#0087BC" offset="0%"/>
            <stop stop-color="#474FB0" offset="100%"/>
        </linearGradient>
        <linearGradient x1="103.976%" y1="42.164%" x2="6.508%" y2="66.737%" id="b0ktazgllp">
            <stop stop-color="#33EAFF" offset="0%"/>
            <stop stop-color="#007CB3" offset="100%"/>
        </linearGradient>
        <linearGradient x1="103.444%" y1="39.019%" x2="4.382%" y2="63.213%" id="wqd9j4mfjq">
            <stop stop-color="#00CE89" offset="2.3%"/>
            <stop stop-color="#09BBFD" offset="19.92%"/>
            <stop stop-color="#0046BB" offset="100%"/>
        </linearGradient>
        <linearGradient x1="99.625%" y1="39.326%" x2="25.467%" y2="61.709%" id="qj44xt334r">
            <stop stop-color="#5EFFBB" offset="0%"/>
            <stop stop-color="#33C9E2" offset="21.46%"/>
            <stop stop-color="#0088EB" offset="100%"/>
        </linearGradient>
        <linearGradient x1="106.057%" y1="38.473%" x2="-6.734%" y2="66.364%" id="wida3nkjzs">
            <stop stop-color="#0087BC" offset="0%"/>
            <stop stop-color="#474FB0" offset="100%"/>
        </linearGradient>
        <linearGradient x1="100.615%" y1="43.011%" x2="22.193%" y2="62.783%" id="qabn1kr5et">
            <stop stop-color="#5EFFBB" offset="0%"/>
            <stop stop-color="#33C9E2" offset="21.46%"/>
            <stop stop-color="#0088EB" offset="100%"/>
        </linearGradient>
        <linearGradient x1="87.757%" y1="90.036%" x2="16.169%" y2="8.437%" id="70o57xoq3u">
            <stop stop-color="#58FFF8" offset="0%"/>
            <stop stop-color="#009BAD" offset="100%"/>
        </linearGradient>
        <linearGradient x1="91.448%" y1="75.233%" x2="12.861%" y2="23.805%" id="tl3icpm5jv">
            <stop stop-color="#58FFF8" offset="0%"/>
            <stop stop-color="#009BAD" offset="100%"/>
        </linearGradient>
        <linearGradient x1="27.607%" y1="159.798%" x2="58.308%" y2="9.833%" id="vzpr3g4qnw">
            <stop stop-color="#340000" offset="0%"/>
            <stop stop-color="#203A01" offset="12.27%"/>
            <stop stop-color="#2D4C03" offset="29.1%"/>
            <stop stop-color="#436907" offset="48.57%"/>
            <stop stop-color="#61910C" offset="70.01%"/>
            <stop stop-color="#88C412" offset="92.82%"/>
            <stop stop-color="#95D614" offset="100%"/>
        </linearGradient>
        <linearGradient x1="26.893%" y1="115.046%" x2="58.573%" y2="26.205%" id="wu9hlorgdz">
            <stop stop-color="#340000" offset="0%"/>
            <stop stop-color="#203A01" offset="12.27%"/>
            <stop stop-color="#2D4C03" offset="29.1%"/>
            <stop stop-color="#436907" offset="48.57%"/>
            <stop stop-color="#61910C" offset="70.01%"/>
            <stop stop-color="#88C412" offset="92.82%"/>
            <stop stop-color="#95D614" offset="100%"/>
        </linearGradient>
        <linearGradient x1="5.747%" y1="112.684%" x2="39.933%" y2="28.642%" id="nhr9ydbhlC">
            <stop stop-color="#5A37B9" offset="0%"/>
            <stop stop-color="#A438EF" offset="100%"/>
        </linearGradient>
        <linearGradient x1="4.336%" y1="87.135%" x2="39.612%" y2="37.347%" id="rl2hs9ip7D">
            <stop stop-color="#5A37B9" offset="0%"/>
            <stop stop-color="#A438EF" offset="100%"/>
        </linearGradient>
        <linearGradient x1="2.617%" y1="60.459%" x2="97.382%" y2="39.542%" id="frjf04bq1E">
            <stop stop-color="#FFCE33" offset="0%"/>
            <stop stop-color="#E45E33" offset="100%"/>
        </linearGradient>
        <linearGradient x1="1.106%" y1="56.196%" x2="98.892%" y2="43.805%" id="n03d9l6idF">
            <stop stop-color="#FFCE33" offset="0%"/>
            <stop stop-color="#E45E33" offset="100%"/>
        </linearGradient>
        <linearGradient x1="26.893%" y1="159.326%" x2="58.573%" y2="10.006%" id="fnwgm9vphG">
            <stop stop-color="#340000" offset="0%"/>
            <stop stop-color="#203A01" offset="12.27%"/>
            <stop stop-color="#2D4C03" offset="29.1%"/>
            <stop stop-color="#436907" offset="48.57%"/>
            <stop stop-color="#61910C" offset="70.01%"/>
            <stop stop-color="#88C412" offset="92.82%"/>
            <stop stop-color="#95D614" offset="100%"/>
        </linearGradient>
        <linearGradient x1="26.586%" y1="123.968%" x2="58.264%" y2="10.833%" id="f8dupqtytH">
            <stop stop-color="#81B114" offset="0%"/>
            <stop stop-color="#5B9414" offset="30.57%"/>
            <stop stop-color="#266B14" offset="77.23%"/>
            <stop stop-color="#115B14" offset="100%"/>
        </linearGradient>
        <linearGradient x1="27.607%" y1="159.798%" x2="58.308%" y2="9.833%" id="g0ypuryg5I">
            <stop stop-color="#340000" offset="0%"/>
            <stop stop-color="#203A01" offset="12.27%"/>
            <stop stop-color="#2D4C03" offset="29.1%"/>
            <stop stop-color="#436907" offset="48.57%"/>
            <stop stop-color="#61910C" offset="70.01%"/>
            <stop stop-color="#88C412" offset="92.82%"/>
            <stop stop-color="#95D614" offset="100%"/>
        </linearGradient>
        <linearGradient x1="26.893%" y1="115.046%" x2="58.573%" y2="26.205%" id="c9rf3p4o1L">
            <stop stop-color="#340000" offset="0%"/>
            <stop stop-color="#203A01" offset="12.27%"/>
            <stop stop-color="#2D4C03" offset="29.1%"/>
            <stop stop-color="#436907" offset="48.57%"/>
            <stop stop-color="#61910C" offset="70.01%"/>
            <stop stop-color="#88C412" offset="92.82%"/>
            <stop stop-color="#95D614" offset="100%"/>
        </linearGradient>
        <linearGradient x1="29.603%" y1="159.798%" x2="57.567%" y2="9.833%" id="2w6h49nr3O">
            <stop stop-color="#340000" offset="0%"/>
            <stop stop-color="#203A01" offset="12.27%"/>
            <stop stop-color="#2D4C03" offset="29.1%"/>
            <stop stop-color="#436907" offset="48.57%"/>
            <stop stop-color="#61910C" offset="70.01%"/>
            <stop stop-color="#88C412" offset="92.82%"/>
            <stop stop-color="#95D614" offset="100%"/>
        </linearGradient>
        <linearGradient x1="26.893%" y1="121.413%" x2="58.573%" y2="23.875%" id="u7u1brxe7R">
            <stop stop-color="#340000" offset="0%"/>
            <stop stop-color="#203A01" offset="12.27%"/>
            <stop stop-color="#2D4C03" offset="29.1%"/>
            <stop stop-color="#436907" offset="48.57%"/>
            <stop stop-color="#61910C" offset="70.01%"/>
            <stop stop-color="#88C412" offset="92.82%"/>
            <stop stop-color="#95D614" offset="100%"/>
        </linearGradient>
        <radialGradient cx="50%" cy="31.502%" fx="50%" fy="31.502%" r="109.952%" gradientTransform="matrix(.35098 .9218 -.93638 .34551 .62 -.255)" id="q15q4tz4vy">
            <stop stop-color="#FFD529" offset="0%"/>
            <stop stop-color="#FDCB00" offset="39.387%"/>
            <stop stop-color="#FFE400" offset="61.059%"/>
            <stop stop-color="#FDCB00" offset="82.219%"/>
            <stop stop-color="#FFE400" offset="100%"/>
        </radialGradient>
        <radialGradient cx="50%" cy="31.502%" fx="50%" fy="31.502%" r="113.078%" gradientTransform="scale(.76969 1) rotate(63.679 .575 .435)" id="kp1bgskrnB">
            <stop stop-color="#FFD529" offset="0%"/>
            <stop stop-color="#FDCB00" offset="39.387%"/>
            <stop stop-color="#FFE400" offset="61.059%"/>
            <stop stop-color="#FDCB00" offset="82.219%"/>
            <stop stop-color="#FFE400" offset="100%"/>
        </radialGradient>
        <radialGradient cx="14.669%" cy="33.858%" fx="14.669%" fy="33.858%" r="85.368%" gradientTransform="matrix(.79237 .60054 -.78703 1.00635 .297 -.09)" id="yb0y9h8ilK">
            <stop stop-color="#0098E2" offset="0%"/>
            <stop stop-color="#0297E3" offset="35.52%"/>
            <stop stop-color="#0A93E5" offset="52.97%"/>
            <stop stop-color="#178CE9" offset="66.54%"/>
            <stop stop-color="#2A81EE" offset="78.11%"/>
            <stop stop-color="#4274F5" offset="88.3%"/>
            <stop stop-color="#5F64FE" offset="97.56%"/>
            <stop stop-color="#6263FF" offset="100%"/>
        </radialGradient>
        <radialGradient cx="14.669%" cy="33.858%" fx="14.669%" fy="33.858%" r="101.744%" gradientTransform="matrix(.66483 .50388 -.50035 1.11438 .219 -.113)" id="j065k3gtuN">
            <stop stop-color="#0098E2" offset="0%"/>
            <stop stop-color="#0297E3" offset="35.52%"/>
            <stop stop-color="#0A93E5" offset="52.97%"/>
            <stop stop-color="#178CE9" offset="66.54%"/>
            <stop stop-color="#2A81EE" offset="78.11%"/>
            <stop stop-color="#4274F5" offset="88.3%"/>
            <stop stop-color="#5F64FE" offset="97.56%"/>
            <stop stop-color="#6263FF" offset="100%"/>
        </radialGradient>
        <radialGradient cx="50%" cy="31.502%" fx="50%" fy="31.502%" r="114.574%" gradientTransform="scale(1 .93952) rotate(70.317 .486 .325)" id="rws1vdmsjQ">
            <stop stop-color="#FFD529" offset="0%"/>
            <stop stop-color="#FDCB00" offset="39.387%"/>
            <stop stop-color="#FFE400" offset="61.059%"/>
            <stop stop-color="#FDCB00" offset="82.219%"/>
            <stop stop-color="#FFE400" offset="100%"/>
        </radialGradient>
        <radialGradient cx="50%" cy="31.502%" fx="50%" fy="31.502%" r="112.082%" gradientTransform="matrix(.3443 .90429 -.72929 .42692 .558 -.272)" id="4tri1d7wlT">
            <stop stop-color="#FFD529" offset="0%"/>
            <stop stop-color="#FDCB00" offset="39.387%"/>
            <stop stop-color="#FFE400" offset="61.059%"/>
            <stop stop-color="#FDCB00" offset="82.219%"/>
            <stop stop-color="#FFE400" offset="100%"/>
        </radialGradient>
        <path d="M7.515 2.97C8 5.048 6.747 7.127 4.7 7.633 2.651 8.127.603 6.854.104 4.775-.38 2.695.872.616 2.92.11 4.97-.396 7.03.89 7.515 2.97z" id="32c43zkqlx"/>
        <path d="M6.613 4.324c-.89.82-2.291 1.217-3.463.985C1.694 5.02.44 3.352.59 1.848a3.851 3.851 0 0 0-.459 2.9c.485 2.08 2.547 3.351 4.595 2.859 2.048-.493 3.301-2.586 2.816-4.665 0-.014-.013-.027-.013-.027a3.682 3.682 0 0 1-.916 1.409z" id="crge08wdoA"/>
        <path d="M6.852 2.707c.443 1.896-.7 3.792-2.567 4.254C2.417 7.41.55 6.25.095 4.354-.347 2.458.795.562 2.663.1 4.53-.36 6.41.811 6.853 2.707z" id="fxkraqme4J"/>
        <path d="M6.03 3.942c-.812.749-2.09 1.11-3.158.898C1.545 4.578.402 3.057.537 1.685A3.511 3.511 0 0 0 .12 4.329a3.472 3.472 0 0 0 4.19 2.607c1.867-.45 3.01-2.358 2.567-4.254 0-.012-.012-.025-.012-.025-.185.487-.443.911-.836 1.285z" id="qrplwl88fM"/>
        <path d="M10.811 4.476c.698 3.134-1.105 6.268-4.051 7.031-2.946.743-5.893-1.175-6.61-4.31C-.548 4.064 1.255.93 4.201.168c2.947-.764 5.912 1.174 6.61 4.309z" id="3wad6378qP"/>
        <path d="M9.513 6.517C8.233 7.754 6.217 8.352 4.53 8.002 2.437 7.569.635 5.053.848 2.785a6.042 6.042 0 0 0-.66 4.371c.699 3.135 3.664 5.052 6.61 4.31 2.947-.742 4.75-3.897 4.052-7.031 0-.021-.02-.042-.02-.042-.29.804-.697 1.506-1.317 2.124z" id="rda3z6agiS"/>
        <filter x="-28.2%" y="-40.1%" width="156.4%" height="180.2%" filterUnits="objectBoundingBox" id="s7h7t6itxa">
            <feOffset dy="6" in="SourceAlpha" result="shadowOffsetOuter1"/>
            <feGaussianBlur stdDeviation="5" in="shadowOffsetOuter1" result="shadowBlurOuter1"/>
            <feColorMatrix values="0 0 0 0 0 0 0 0 0 0.133333333 0 0 0 0 0.211764706 0 0 0 0.5 0" in="shadowBlurOuter1" result="shadowMatrixOuter1"/>
            <feMerge>
                <feMergeNode in="shadowMatrixOuter1"/>
                <feMergeNode in="SourceGraphic"/>
            </feMerge>
        </filter>
    </defs>
    <g filter="url(#s7h7t6itxa)" transform="translate(23 23)" fill="none" fill-rule="evenodd" opacity=".756">
        <g fill-rule="nonzero">
            <path d="M9.505 3.755c.613 2.63-.972 5.26-3.562 5.9-2.59.623-5.18-.986-5.811-3.616-.614-2.63.971-5.26 3.562-5.9 2.59-.64 5.197.987 5.81 3.616z" fill="url(#tvyqnwl5ib)" transform="matrix(-1 0 0 1 17.079 36.38)"/>
            <path d="M8.363 5.468c-1.125 1.038-2.897 1.54-4.38 1.246C2.143 6.35.558 4.24.745 2.337a4.87 4.87 0 0 0-.58 3.668c.614 2.63 3.222 4.238 5.812 3.616 2.59-.623 4.175-3.27 3.562-5.9 0-.018-.017-.035-.017-.035-.256.675-.614 1.263-1.159 1.782z" fill="url(#bmmpl3jydc)" transform="matrix(-1 0 0 1 17.079 36.38)"/>
            <path d="M13.811 44.859c2.165-.761 3.153-3.2 2.915-5.415.357.917.46 1.937.221 2.958-.613 2.63-3.22 4.239-5.811 3.616-1.704-.415-2.982-1.713-3.477-3.304 1.296 1.99 3.664 3.01 6.152 2.145z" fill="#000" opacity=".251"/>
            <path d="M10.54 39.409c-1.074-.502-.955-1.678-.069-2.232.801-.519 1.858-.605 2.778-.45.835.156 1.943.762 2.215 1.627.307 1.003-.835 1.47-1.601 1.626-.563.121-2.25-.052-3.324-.571z" fill="#FFF" opacity=".151"/>
            <path d="M9.892 37.61c.852-.64 2.045-.83 3.084-.675.358.052.716.138 1.04.294.988.433 1.619 1.384 1.5 2.491-.137 1.315-1.142 2.18-2.403 2.457-1.16.26-2.642-.086-3.596-.848-1.312-1.038-.87-2.785.375-3.72z" fill="#FFF" opacity=".198"/>
        </g>
        <g fill-rule="nonzero">
            <path d="M10.831 4.28c.7 2.996-1.107 5.993-4.059 6.722C3.821 11.712.87 9.88.15 6.882-.549 3.885 1.257.888 4.21.159c2.952-.73 5.923 1.124 6.622 4.12z" fill="url(#p0e1ywz2od)" transform="translate(16.769 60.82)"/>
            <path d="M9.53 6.231c-1.282 1.183-3.301 1.755-4.99 1.42C2.441 7.237.635 4.83.85 2.663a5.55 5.55 0 0 0-.66 4.18c.698 2.996 3.67 4.83 6.621 4.12 2.952-.71 4.758-3.726 4.059-6.723 0-.02-.02-.04-.02-.04-.29.77-.699 1.44-1.32 2.031z" fill="url(#gbkcdn0sre)" opacity=".3" transform="translate(16.769 60.82)"/>
            <path d="M20.492 70.481c-2.466-.867-3.592-3.647-3.32-6.17a5.676 5.676 0 0 0-.253 3.37c.7 2.997 3.67 4.831 6.622 4.121 1.942-.473 3.399-1.952 3.962-3.765-1.476 2.267-4.176 3.43-7.01 2.444z" fill="#000" opacity=".251"/>
            <path d="M24.22 64.27c1.224-.57 1.088-1.911.078-2.542-.912-.592-2.116-.69-3.165-.513-.952.177-2.214.867-2.524 1.853-.35 1.144.951 1.676 1.825 1.854.64.138 2.563-.06 3.787-.651z" fill="#FFF" opacity=".151"/>
            <path d="M24.959 62.22c-.971-.729-2.33-.946-3.515-.768-.408.059-.816.157-1.185.335-1.126.493-1.845 1.577-1.709 2.839.156 1.498 1.301 2.484 2.738 2.8 1.32.295 3.01-.1 4.098-.967 1.495-1.183.99-3.174-.427-4.238z" fill="#FFF" opacity=".198"/>
        </g>
        <g transform="translate(13.2)">
            <ellipse fill="url(#m30ld8eysf)" fill-rule="nonzero" cx="39.258" cy="39.131" rx="36.032" ry="35.956"/>
            <path d="M22.895 11.966C14.248 16.35 6.707 17.238 6.298 17.2l3.516 1.198s8.68-1.443 16.413-5.726c8.377-4.64 12.307-9.492 12.307-9.492l.954-3.164c-.33.43-4.428 5.766-16.593 11.951z" fill="url(#il9hytn3kg)" fill-rule="nonzero"/>
            <path d="M38.965 0C25.402 0 13.412 6.806 6.298 17.201c.41.04 7.948-.85 16.597-5.232C35.06 5.783 39.159.447 39.49.022 39.315 0 39.14 0 38.965 0z" fill="url(#iupglyl5vh)" fill-rule="nonzero"/>
            <path d="M39.697 17.134s-10.28 7.39-24.214 10.22C8.37 28.81 3.727 28.711 1.86 28.577l2.487 1.61s12.06.394 25.721-6.002c6.036-3.397 10.15-6.883 10.539-7.223l-.91.172z" fill="url(#6tf7dop9qi)" fill-rule="nonzero"/>
            <path d="M37.001 31.418C19.65 40.551.908 43.217.111 43.372l3.512 1.122s20.197-4.21 33.718-11.492c19.862-10.697 27.378-19.306 27.378-19.306l.838-2.92c.002-.003-9.532 10.615-28.556 20.642z" fill="url(#qk5u22ownj)" fill-rule="nonzero"/>
            <path d="M42.96 1.233c-.193.427-3.692 7.369-14.263 13.362-12.768 7.253-22.912 6.361-23.435 6.302-1.379 2.404-2.547 4.983-3.4 7.68 1.865.136 6.51.232 13.623-1.223C29.42 24.524 39.7 17.134 39.7 17.134l.913-.175c-.39.341-4.503 3.827-10.539 7.223-3.895 2.192-8.584 4.348-13.616 5.596C6.975 32.105 2.621 32.298.913 32.22A38.365 38.365 0 0 0 0 40.578c0 .951.04 1.88.117 2.792.796-.156 19.537-2.821 36.89-11.954C56.03 21.39 65.563 10.773 65.563 10.773a39.426 39.426 0 0 0-22.604-9.54z" fill="url(#njes49c46k)" fill-rule="nonzero"/>
            <path d="m76.641 25.707-3.54 1.062s-7.983 7.21-20.743 14.461C42.67 46.734 28.035 51.9 21.543 54.071c.54-.024 15.213-.83 35.62-12.92 15.657-9.278 19.478-15.444 19.478-15.444z" fill="url(#3ewf90mnul)" fill-rule="nonzero"/>
            <path d="m69.678 15.082-2.646 1.146S55.673 27.542 40.26 35.684C24.849 43.827 4.265 47.747 4.265 47.747l-3.288 1.92c.729-.074 21.937-2.703 40.49-12.688C62.41 25.707 69.678 15.082 69.678 15.082z" fill="url(#fseqtlw5zm)" fill-rule="nonzero"/>
            <path d="M76.641 25.707s-3.821 6.166-19.478 15.442c-20.41 12.092-35.08 12.895-35.62 12.92l-.052.002s12.175-3.967 29.136-13.273c11.992-6.578 24.66-18.206 24.66-18.206a38.393 38.393 0 0 0-5.609-7.51S62.41 25.707 41.47 36.979C22.914 46.967 1.706 49.593.98 49.667c1.609 7.013 4.954 13.15 10.032 18.085.786-.148 14.804-.11 37.9-10.89C70.525 46.777 79.2 35.313 79.2 35.313c-.479-3.37-1.198-6.587-2.559-9.605z" fill="url(#lil2mdpoin)" fill-rule="nonzero"/>
            <path d="m69.214 60.966-1.882 2.278c1.315-1.386 1.882-2.278 1.882-2.278z"/>
            <path d="m67.332 63.241 1.882-2.277-1.021-.702s-6.356 4.654-14.945 8.716c-8.59 4.06-14.796 6.084-14.796 6.084v1.334s7.126-.128 16.281-4.459c6.601-3.12 10.531-6.52 12.6-8.696z" fill="url(#rnww6vxs3o)" fill-rule="nonzero"/>
            <path d="M67.332 63.241c-2.068 2.177-5.998 5.574-12.601 8.696-9.155 4.33-16.282 4.46-16.282 4.46s9.527 2.092 18.447-1.56c9.707-3.975 12.318-13.873 12.318-13.873s-.567.894-1.882 2.277z" fill="url(#b0ktazgllp)" fill-rule="nonzero"/>
            <path d="m78.49 41.692-3.419 1.406c-3.37 2.955-9.958 9.57-24.58 16.732C37 66.438 25.945 68.45 20.246 69.68l-1.735-1.15-2.145 3.412s16.45.025 35.553-9.306c18.87-9.217 25.97-20.343 26.572-20.944z" fill="url(#wqd9j4mfjq)" fill-rule="nonzero"/>
            <path d="M51.919 62.636c-19.103 9.33-35.553 9.306-35.553 9.306 4.042 2.831 7.984 4.207 12.958 5.35 0 0 12.126-2.035 25.566-8.544 14.126-6.84 20.181-14.491 21.19-15.46 1.38-3.646 2.195-7.544 2.41-11.596-.602.6-7.701 11.727-26.571 20.944z" fill="url(#qj44xt334r)" fill-rule="nonzero"/>
            <path d="m69.105 60.986-1.882 2.278c1.317-1.386 1.882-2.278 1.882-2.278z"/>
            <path d="m67.223 63.261 1.882-2.278-1.021-.701s-6.356 4.654-14.945 8.715c-8.59 4.062-14.796 6.085-14.796 6.085v1.334s7.126-.129 16.281-4.46c6.601-3.12 10.534-6.518 12.6-8.695z" fill="url(#wida3nkjzs)" fill-rule="nonzero"/>
            <path d="M67.223 63.261c-2.068 2.177-5.998 5.573-12.601 8.696-9.155 4.33-16.282 4.459-16.282 4.459s9.527 2.092 18.446-1.559c9.708-3.975 12.32-13.874 12.32-13.874s-.566.895-1.883 2.278z" fill="url(#qabn1kr5et)" fill-rule="nonzero"/>
        </g>
        <g fill-rule="nonzero">
            <path d="M14.415 5.874c.93 4.114-1.473 8.228-5.402 9.23C5.085 16.077 1.156 13.56.2 9.446-.73 5.333 1.673 1.219 5.602.218c3.928-1.001 7.883 1.543 8.813 5.656z" fill="url(#70o57xoq3u)" transform="matrix(-1 0 0 1 110 18.959)"/>
            <path d="M12.683 8.554c-1.705 1.624-4.393 2.409-6.642 1.948-2.791-.568-5.195-3.87-4.91-6.847a7.824 7.824 0 0 0-.88 5.738c.931 4.114 4.885 6.63 8.814 5.656 3.929-.974 6.332-5.115 5.402-9.229 0-.027-.026-.054-.026-.054-.388 1.056-.93 1.976-1.758 2.788z" fill="url(#tl3icpm5jv)" transform="matrix(-1 0 0 1 110 18.959)"/>
            <path d="M105.044 32.222c3.283-1.191 4.782-5.007 4.42-8.471a8.022 8.022 0 0 1 .336 4.627c-.93 4.114-4.885 6.631-8.813 5.657-2.585-.65-4.523-2.68-5.273-5.17 1.964 3.113 5.557 4.71 9.33 3.357z" fill="#000" opacity=".251"/>
            <path d="M100.082 23.696c-1.628-.784-1.447-2.625-.103-3.49 1.214-.813 2.817-.948 4.213-.705 1.266.244 2.946 1.191 3.36 2.544.465 1.57-1.267 2.3-2.43 2.545-.853.189-3.412-.082-5.04-.894z" fill="#FFF" opacity=".151"/>
            <path d="M99.1 20.882c1.292-1.002 3.101-1.3 4.678-1.056.543.081 1.086.217 1.577.46 1.499.677 2.455 2.165 2.274 3.898-.207 2.056-1.732 3.41-3.644 3.843-1.758.406-4.006-.136-5.454-1.326-1.99-1.624-1.318-4.358.569-5.82z" fill="#FFF" opacity=".198"/>
        </g>
        <g fill-rule="nonzero">
            <g transform="matrix(-1 0 0 1 91.616 4.87)">
                <use fill="url(#vzpr3g4qnw)" xlink:href="#32c43zkqlx"/>
                <use fill="url(#q15q4tz4vy)" xlink:href="#32c43zkqlx"/>
            </g>
            <g transform="matrix(-1 0 0 1 91.616 4.87)">
                <use fill="url(#wu9hlorgdz)" xlink:href="#crge08wdoA"/>
                <use fill="url(#kp1bgskrnB)" xlink:href="#crge08wdoA"/>
            </g>
            <path d="M89.032 11.574c1.712-.602 2.493-2.531 2.305-4.282.282.725.363 1.532.175 2.339-.485 2.08-2.547 3.352-4.595 2.86-1.348-.33-2.358-1.355-2.75-2.614 1.025 1.573 2.898 2.38 4.865 1.697z" fill="#000" opacity=".251"/>
            <path d="M86.445 7.264c-.849-.396-.754-1.327-.054-1.764.634-.41 1.469-.48 2.197-.356.66.123 1.536.602 1.751 1.286.243.793-.66 1.163-1.266 1.286-.445.096-1.779-.041-2.628-.452z" fill="#FFF" opacity=".151"/>
            <path d="M85.933 5.842c.674-.507 1.617-.657 2.44-.534.282.041.565.11.821.233.782.342 1.28 1.094 1.186 1.97-.108 1.04-.903 1.723-1.9 1.942-.916.205-2.089-.068-2.843-.67-1.038-.821-.688-2.203.296-2.941z" fill="#FFF" opacity=".198"/>
        </g>
        <g fill-rule="nonzero">
            <path d="M4.642 1.834c.3 1.284-.475 2.569-1.74 2.881C1.637 5.02.372 4.234.064 2.95-.236 1.665.54.381 1.804.07c1.265-.314 2.538.48 2.838 1.765z" fill="url(#nhr9ydbhlC)" transform="matrix(-1 0 0 1 104.415 8.526)"/>
            <path d="M4.084 2.67c-.55.507-1.415.753-2.139.609C1.046 3.1.272 2.07.364 1.14a2.379 2.379 0 0 0-.283 1.791 2.352 2.352 0 0 0 2.838 1.766c1.265-.304 2.04-1.597 1.74-2.88 0-.01-.009-.018-.009-.018-.125.33-.3.617-.566.87z" fill="url(#rl2hs9ip7D)" transform="matrix(-1 0 0 1 104.415 8.526)"/>
            <path d="M102.819 12.667c1.057-.372 1.54-1.563 1.423-2.645.175.448.225.947.108 1.445a2.352 2.352 0 0 1-2.838 1.766 2.375 2.375 0 0 1-1.698-1.614c.633.972 1.79 1.47 3.005 1.048z" fill="#000" opacity=".251"/>
            <path d="M101.22 10.006c-.523-.245-.465-.82-.032-1.09.39-.254.907-.296 1.356-.22.408.076.949.372 1.082.794.15.49-.408.718-.782.794-.275.06-1.099-.025-1.623-.278z" fill="#FFF" opacity=".151"/>
            <path d="M100.905 9.127c.416-.313.998-.406 1.506-.33.175.026.35.068.508.144.482.211.79.676.732 1.217-.066.642-.557 1.064-1.173 1.2-.566.126-1.29-.043-1.756-.415-.641-.507-.425-1.36.183-1.816z" fill="#FFF" opacity=".198"/>
        </g>
        <g fill-rule="nonzero">
            <path d="M7.515 2.97C8 5.048 6.747 7.127 4.7 7.633 2.651 8.127.603 6.854.104 4.775-.38 2.695.872.616 2.92.11 4.97-.396 7.03.89 7.515 2.97z" fill="url(#frjf04bq1E)" transform="matrix(-1 0 0 1 39.78 22.855)"/>
            <path d="M6.613 4.324c-.89.82-2.291 1.217-3.463.985C1.694 5.02.44 3.352.59 1.848a3.851 3.851 0 0 0-.459 2.9c.485 2.08 2.547 3.351 4.595 2.859 2.048-.493 3.301-2.586 2.816-4.665 0-.014-.013-.027-.013-.027a3.682 3.682 0 0 1-.916 1.409z" fill="url(#n03d9l6idF)" transform="matrix(-1 0 0 1 39.78 22.855)"/>
            <path d="M37.196 29.56c1.71-.603 2.492-2.531 2.304-4.282.283.725.364 1.532.175 2.339-.485 2.08-2.547 3.351-4.595 2.859-1.347-.328-2.358-1.354-2.749-2.613 1.024 1.573 2.897 2.38 4.865 1.696z" fill="#000" opacity=".251"/>
            <path d="M34.608 25.25c-.848-.397-.754-1.327-.053-1.765.633-.41 1.468-.478 2.196-.355.66.123 1.536.602 1.752 1.286.242.793-.66 1.162-1.267 1.286-.445.095-1.779-.041-2.628-.452z" fill="#FFF" opacity=".151"/>
            <path d="M34.096 23.827c.674-.506 1.617-.656 2.44-.533.282.04.565.11.821.232.782.342 1.28 1.095 1.186 1.97-.108 1.04-.903 1.724-1.9 1.943-.916.205-2.088-.068-2.843-.67-1.038-.821-.687-2.203.296-2.942z" fill="#FFF" opacity=".198"/>
        </g>
        <g fill-rule="nonzero">
            <path d="M11.532 4.476a5.84 5.84 0 0 1-4.321 7.031A5.858 5.858 0 0 1 .16 7.197 5.84 5.84 0 0 1 4.481.168c3.143-.764 6.307 1.174 7.051 4.309z" fill="url(#fnwgm9vphG)" transform="matrix(-1 0 0 1 98.267 39.376)"/>
            <path d="M10.147 6.517C8.782 7.754 6.632 8.352 4.833 8.002 2.6 7.569.677 5.053.904 2.785a5.717 5.717 0 0 0-.703 4.371c.745 3.135 3.908 5.052 7.051 4.31 3.143-.742 5.066-3.897 4.321-7.031 0-.021-.02-.042-.02-.042-.31.804-.745 1.506-1.406 2.124z" fill="url(#f8dupqtytH)" opacity=".3" transform="matrix(-1 0 0 1 98.267 39.376)"/>
            <path d="M94.302 49.48c2.626-.907 3.825-3.814 3.536-6.453a5.838 5.838 0 0 1 .269 3.526c-.745 3.134-3.908 5.052-7.051 4.31a5.856 5.856 0 0 1-4.218-3.94c1.571 2.372 4.445 3.589 7.464 2.558z" fill="#000" opacity=".251"/>
            <path d="M90.332 42.985c-1.302-.598-1.158-2-.082-2.66.971-.618 2.253-.721 3.37-.536 1.013.186 2.357.907 2.688 1.938.372 1.196-1.013 1.753-1.944 1.939-.682.144-2.729-.062-4.032-.68z" fill="#FFF" opacity=".151"/>
            <path d="M89.547 40.84c1.033-.762 2.48-.989 3.742-.803.434.061.868.165 1.261.35 1.2.516 1.965 1.65 1.82 2.97-.166 1.567-1.385 2.598-2.916 2.928-1.405.309-3.204-.104-4.362-1.01-1.592-1.238-1.055-3.32.455-4.434z" fill="#FFF" opacity=".198"/>
        </g>
        <g fill-rule="nonzero">
            <g transform="translate(0 57.36)">
                <use fill="url(#g0ypuryg5I)" xlink:href="#fxkraqme4J"/>
                <use fill="url(#yb0y9h8ilK)" xlink:href="#fxkraqme4J"/>
            </g>
            <g transform="translate(0 57.36)">
                <use fill="url(#c9rf3p4o1L)" xlink:href="#qrplwl88fM"/>
                <use fill="url(#j065k3gtuN)" xlink:href="#qrplwl88fM"/>
            </g>
            <path d="M2.356 63.473C.796 62.924.083 61.165.255 59.569a3.591 3.591 0 0 0-.16 2.133 3.472 3.472 0 0 0 4.19 2.607c1.228-.3 2.15-1.235 2.506-2.383-.934 1.435-2.642 2.17-4.435 1.547z" fill="#000" opacity=".251"/>
            <path d="M4.715 59.544c.774-.362.688-1.21.049-1.61-.578-.373-1.34-.436-2.003-.323-.602.112-1.4.548-1.597 1.172-.221.723.602 1.06 1.155 1.173.405.087 1.622-.038 2.396-.412z" fill="#FFF" opacity=".151"/>
            <path d="M5.181 58.247c-.614-.462-1.474-.599-2.223-.487-.258.038-.516.1-.75.212-.712.312-1.167.998-1.08 1.796.097.948.822 1.572 1.731 1.772.836.187 1.905-.063 2.593-.612.946-.748.626-2.008-.27-2.681z" fill="#FFF" opacity=".198"/>
        </g>
        <g fill-rule="nonzero">
            <g transform="matrix(-1 0 0 1 49.867 61.98)">
                <use fill="url(#2w6h49nr3O)" xlink:href="#3wad6378qP"/>
                <use fill="url(#rws1vdmsjQ)" xlink:href="#3wad6378qP"/>
            </g>
            <g transform="matrix(-1 0 0 1 49.867 61.98)">
                <use fill="url(#u7u1brxe7R)" xlink:href="#rda3z6agiS"/>
                <use fill="url(#4tri1d7wlT)" xlink:href="#rda3z6agiS"/>
            </g>
            <path d="M46.15 72.085c2.462-.907 3.586-3.815 3.315-6.454a6.203 6.203 0 0 1 .252 3.526c-.698 3.134-3.664 5.052-6.61 4.31-1.939-.495-3.393-2.042-3.955-3.939 1.474 2.372 4.168 3.588 6.998 2.557z" fill="#000" opacity=".251"/>
            <path d="M42.428 65.59c-1.221-.598-1.085-2-.077-2.66.91-.619 2.113-.722 3.16-.536.95.185 2.21.907 2.52 1.938.348 1.196-.95 1.753-1.823 1.938-.64.145-2.559-.062-3.78-.68z" fill="#FFF" opacity=".151"/>
            <path d="M41.692 63.445c.969-.763 2.326-.99 3.508-.804.407.062.814.165 1.183.35 1.124.516 1.841 1.65 1.705 2.97-.155 1.567-1.298 2.598-2.733 2.928-1.318.31-3.004-.103-4.09-1.01-1.492-1.238-.988-3.32.427-4.434z" fill="#FFF" opacity=".198"/>
        </g>
    </g>
</svg>
